<svg xmlns="http://www.w3.org/2000/svg" width="351" height="48" fill="none"><path fill="#FED709" stroke="#000" strokeWidth="3" d="M2.449 14.497 347.476 2.448l1.102 31.567L3.551 46.064z"/><path fill="#000" d="M22.187 35.859c-.507.017-.876-.043-1.107-.182-.232-.152-.378-.3-.436-.445l-.088-.217-.037-.479a54.81 54.81 0 0 0-.065-1.299 85.376 85.376 0 0 0-.081-1.758l-.107-1.917a70.895 70.895 0 0 0-.166-3.036l-.018-.5c-.013 0-.089-.064-.227-.192a.724.724 0 0 1-.214-.413c-.004-.106.117-.264.364-.473.246-.209.666-.39 1.261-.544.608-.168 1.447-.224 2.516-.168.962.046 1.72.18 2.275.4.568.208.983.44 1.245.698.262.244.43.465.504.663a713.179 713.179 0 0 0 .132.335c.028.04.052.165.073.378.034.199.065.531.095.997.03.466.052 1.119.068 1.959.01.68-.13 1.225-.423 1.636-.28.41-.635.722-1.068.938a5.473 5.473 0 0 1-1.306.425 8.937 8.937 0 0 1-1.076.118l-.44-.005.014.44c.024.28.04.752.05 1.42.012.332-.073.589-.253.769-.168.166-.37.28-.609.341-.224.061-.43.095-.616.102l-.26.009Zm1.24-9.75.353 4.951.26-.029c.172-.033.37-.106.592-.22.223-.115.41-.302.56-.56.165-.273.225-.649.181-1.128a38.065 38.065 0 0 0-.13-1.436 13.911 13.911 0 0 0-.081-.617l-.006-.16-.045-.159a.836.836 0 0 0-.174-.374c-.098-.13-.268-.224-.51-.282-.23-.072-.563-.067-1 .014Zm6.836 8.387-1.224-8.683-.064-.117a.79.79 0 0 1-.031-.32c.008-.133.077-.276.205-.427.141-.152.383-.294.726-.426a9.15 9.15 0 0 1 1.624-.476 7.754 7.754 0 0 1 2.015-.17 5.26 5.26 0 0 1 2.141.565c.42.198.738.494.952.887.214.393.348.815.404 1.267.056.451.071.884.045 1.299a5.88 5.88 0 0 1-.104 1.024l-.066.403-.13.304c-.086.203-.258.436-.515.699-.245.248-.611.455-1.1.619l2.946 2.959.145.155c.097.103.175.234.234.392.072.144.064.298-.024.46-.075.15-.29.284-.646.404-.37.12-.702.157-.997.114a1.967 1.967 0 0 1-.708-.235 2.19 2.19 0 0 1-.412-.326l-.146-.155-2.752-3.166.758 2.796.047.178a.654.654 0 0 1-.027.381c-.048.149-.177.287-.386.414-.21.114-.547.18-1.014.195-.466.017-.834-.024-1.105-.121-.256-.098-.44-.218-.552-.361a1.169 1.169 0 0 1-.214-.373l-.025-.159Zm1.594-8.801.62 4 .22.013c.16.008.347-.012.558-.06a1.52 1.52 0 0 0 .63-.302c.208-.167.373-.413.495-.737.121-.338.152-.793.092-1.364-.059-.545-.18-.941-.361-1.188-.183-.26-.402-.42-.657-.478a1.785 1.785 0 0 0-.802-.032 7.199 7.199 0 0 0-.795.148Zm7.045-.566-.046-.159a.919.919 0 0 1 .005-.42c.048-.162.163-.313.345-.452.195-.14.505-.238.93-.293.425-.055.904-.105 1.436-.15.545-.046 1.064-.09 1.556-.135.505-.044.918-.078 1.237-.103l.48-.037.26.011c.186-.006.4.013.642.058.255.031.484.11.689.236a.74.74 0 0 1 .378.527c.049.239.009.427-.12.565a1.275 1.275 0 0 1-.47.316c-.184.06-.35.1-.495.118l-.22.027-3.191.292.069.258c.046.171.093.37.14.595.061.211.101.397.12.556.019.146.038.339.06.578a49.792 49.792 0 0 0 .09.878l1.48-.052.22.012a1.84 1.84 0 0 1 .503.063c.201.033.377.094.527.182.15.088.234.225.254.411a.55.55 0 0 1-.26.55 1.67 1.67 0 0 1-.592.26 4.665 4.665 0 0 0-.378.073c-.04.002-.146.012-.319.032l-.58.02-.54.019-.239.008.01.3c.02.186.041.405.063.658.023.253.03.473.024.66.006.173.006.386.002.64-.005.24-.01.454-.018.641l-.01.26 2.694-.194.26-.009c.173-.019.38-.013.621.019.241.031.457.104.648.217.19.114.297.29.319.53.035.238-.025.434-.18.586a1.465 1.465 0 0 1-.548.34c-.211.073-.403.127-.575.16l-.24.028-4.309.37-.32.012c-.2.02-.433.015-.7-.016a1.746 1.746 0 0 1-.71-.275c-.206-.153-.308-.39-.306-.71.012-.427.015-1.094.01-2.002a45.188 45.188 0 0 0-.152-3.216 31.547 31.547 0 0 0-.554-3.843Zm9.152-.38-.007-.2a1.47 1.47 0 0 1 .084-.483c.06-.189.194-.36.402-.514.208-.168.524-.272.95-.314.425-.041.76-.02 1.003.065.256.085.44.198.552.341.124.13.202.253.233.372l.066.158 1.135 6.725.532-5.382.033-.201c.022-.148.083-.303.184-.467.114-.177.282-.323.505-.438.223-.128.535-.165.937-.113.401.04.692.143.871.31a.995.995 0 0 1 .338.508c.046.172.058.325.036.46l-.033.2-.1.565c-.068.362-.158.832-.271 1.41-.1.577-.212 1.195-.336 1.853a1025.153 1025.153 0 0 0-.626 3.284c-.066.376-.106.57-.12.584a1.251 1.251 0 0 0-.091.224c-.036.12-.111.27-.225.448-.114.164-.296.31-.545.439-.236.128-.553.2-.953.213-.533.019-.936-.054-1.208-.218-.273-.177-.453-.35-.539-.521l-.129-.256-2.678-9.052Zm9.626 8.85a25.603 25.603 0 0 1-.14-1.697 126.343 126.343 0 0 1-.157-4.497c.001-.747.005-1.408.012-1.981a23.9 23.9 0 0 1 .036-1.242c.03-.322.134-.566.315-.732.18-.18.383-.307.607-.381.238-.075.436-.116.596-.121l.26-.03.24.032c.174.008.362.034.564.08.202.047.345.136.43.266.182.26.27.517.266.771.009.24.006.553-.007.94a44.6 44.6 0 0 0-.037 2.944c.02.96.05 1.833.091 2.618.041.786.076 1.412.106 1.878l.064.698-.012.22c.005.134-.03.288-.104.465-.074.175-.221.34-.443.495-.222.141-.552.22-.992.235-.44.015-.781-.02-1.025-.104-.23-.099-.394-.213-.492-.343a1.146 1.146 0 0 1-.152-.355l-.026-.16Zm4.547-9.285-.045-.158a.918.918 0 0 1 .005-.42c.048-.163.163-.313.344-.453.196-.14.506-.238.93-.293.426-.054.904-.105 1.436-.15.546-.046 1.064-.09 1.557-.134a116.697 116.697 0 0 1 1.716-.14l.26.01c.187-.006.401.013.643.058.254.032.484.11.688.236a.74.74 0 0 1 .379.527c.048.239.008.427-.12.565a1.275 1.275 0 0 1-.47.317c-.184.06-.35.099-.496.117l-.219.028-3.192.291.07.258c.045.172.092.37.14.596.06.21.1.396.12.556.018.146.038.338.06.578a48.029 48.029 0 0 0 .09.877l1.48-.051.22.012c.147-.005.314.016.503.062.201.033.377.094.526.182.15.088.235.225.255.412a.55.55 0 0 1-.261.549c-.183.126-.38.213-.591.26a4.649 4.649 0 0 0-.378.074c-.04.001-.146.012-.32.031l-.579.02-.54.02-.24.008.011.3c.02.186.041.405.063.658.022.252.03.472.023.66.006.172.007.386.002.64a40.609 40.609 0 0 1-.028.901l2.695-.194.26-.01c.172-.018.38-.012.62.02.242.03.458.103.649.217.19.113.297.29.318.529.035.239-.025.434-.18.587a1.464 1.464 0 0 1-.548.339c-.21.074-.402.127-.575.16l-.239.028-4.31.371-.32.011c-.199.02-.432.015-.7-.015a1.746 1.746 0 0 1-.71-.276c-.206-.153-.307-.39-.305-.71.012-.427.015-1.094.01-2.001a45.131 45.131 0 0 0-.152-3.217 31.553 31.553 0 0 0-.555-3.843Zm10.634-.951.28-.01c.186-.02.407.006.663.077.255.058.487.19.694.396.22.192.358.5.413.926.038.332.106.763.205 1.294.098.516.204 1.06.317 1.63.113.57.219 1.106.316 1.61.111.49.199.893.263 1.21l.117.477.747-3.228.09-.283c.06-.202.174-.4.34-.592.18-.194.45-.296.81-.309.36-.012.635.051.827.191.191.127.33.289.417.486.1.197.18.387.24.572.045.132.113.356.204.673.104.304.202.627.294.97a114.172 114.172 0 0 0 .383 1.228l.122-1.665.634-5.906.111-.264c.087-.19.254-.376.501-.558.26-.182.651-.263 1.172-.24.788.025 1.274.168 1.456.429.196.26.234.585.114.976-.06.19-.145.599-.257 1.23-.112.618-.24 1.363-.382 2.235-.143.872-.278 1.79-.404 2.755a99.251 99.251 0 0 0-.326 2.713c-.038.442-.146.786-.324 1.032a1.543 1.543 0 0 1-.543.5c-.196.1-.368.16-.514.178l-.219.027-.26.01c-.173.019-.387 0-.642-.058-.242-.058-.487-.19-.734-.395-.235-.205-.426-.532-.575-.98-.285-.898-.531-1.65-.74-2.256l-.311-.91-1 3.437-.112.245c-.075.162-.23.328-.463.496-.221.168-.558.26-1.011.275-.68.024-1.157-.066-1.43-.27-.262-.218-.474-.57-.638-1.058a28.517 28.517 0 0 0-.272-.911c-.136-.45-.287-.97-.455-1.565a184.31 184.31 0 0 0-.524-1.823c-.182-.634-.35-1.215-.5-1.744a42.298 42.298 0 0 0-.387-1.307l-.138-.516-.046-.178a.79.79 0 0 1 .025-.421c.047-.175.175-.34.383-.494.222-.154.578-.267 1.07-.337Zm20.802.494a7.156 7.156 0 0 1-.737.086c-.32.01-.647.002-.982-.026a2.995 2.995 0 0 1-.867-.19c-.244-.111-.383-.28-.418-.506-.021-.226.04-.408.181-.546.156-.14.338-.246.55-.32.21-.087.395-.14.554-.16l.259-.048 5.578-.715.28-.01c.186-.02.4-.02.64-.002.254.017.483.076.687.176a.513.513 0 0 1 .336.448.595.595 0 0 1-.181.547 1.965 1.965 0 0 1-.528.358 5.28 5.28 0 0 1-.554.2l-.238.048-1.272.245c.065.331.141.802.23 1.413.087.597.177 1.261.269 1.991.092.731.177 1.449.255 2.153.078.704.14 1.336.186 1.895.06.558.094.957.102 1.197.01.306-.068.542-.235.708a1.45 1.45 0 0 1-.569.34c-.211.061-.403.101-.576.12l-.24.009-.26.01a2.02 2.02 0 0 1-.605-.14c-.216-.086-.415-.252-.598-.5-.168-.247-.261-.624-.28-1.13a20.915 20.915 0 0 0-.137-1.656 58.521 58.521 0 0 0-.23-2.014 51.475 51.475 0 0 0-.289-1.95 48.973 48.973 0 0 0-.23-1.454l-.08-.577Zm6.74 3.447c-.037-1.066.115-2.045.458-2.938.342-.906.823-1.63 1.445-2.172.621-.555 1.318-.846 2.091-.873a3.182 3.182 0 0 1 1.655.402c.53.275 1.004.679 1.423 1.211a6.258 6.258 0 0 1 1.004 1.826c.251.699.391 1.448.419 2.247a7.35 7.35 0 0 1-.261 2.27 6.535 6.535 0 0 1-.874 1.912 4.729 4.729 0 0 1-1.335 1.308 3.289 3.289 0 0 1-1.624.497c-.773.027-1.488-.209-2.146-.706-.658-.51-1.189-1.2-1.593-2.066-.403-.866-.624-1.839-.662-2.918Zm3.055-.187c.027.773.106 1.484.235 2.133.129.636.293 1.144.493 1.524.2.366.413.546.64.538.226-.008.426-.202.6-.581.173-.393.301-.912.386-1.555a13.29 13.29 0 0 0 .085-2.144 13.13 13.13 0 0 0-.235-2.133c-.129-.636-.293-1.144-.493-1.524-.2-.38-.413-.566-.64-.558-.227.008-.426.208-.599.601s-.302.911-.386 1.555a13.042 13.042 0 0 0-.086 2.144Zm17.944-2.708c-.453.016-.801-.025-1.045-.123-.244-.112-.422-.24-.533-.382a.95.95 0 0 1-.174-.394 3.105 3.105 0 0 1-.028-.24 1.093 1.093 0 0 0-.092-.316c-.045-.159-.181-.234-.408-.226a1.59 1.59 0 0 0-.987.374c-.272.237-.414.575-.425 1.016-.011.44.115.816.379 1.127.265.311.77.46 1.517.448.373-.013.768.026 1.185.118.417.093.809.252 1.177.48a2.4 2.4 0 0 1 .913.908c.24.379.37.861.39 1.447.028 1.174-.254 2.09-.844 2.752-.591.66-1.599 1.016-3.025 1.066-.946.033-1.709-.054-2.29-.26-.582-.22-1.011-.485-1.289-.796-.264-.31-.407-.593-.43-.845-.022-.253-.017-.5.015-.741.044-.242.177-.453.398-.635.233-.181.61-.301 1.128-.36.531-.058.913-.024 1.144.1.231.113.376.248.434.406.073.158.109.256.111.296.001.04.018.14.05.299.045.145.117.29.216.432.111.13.26.192.446.185a.929.929 0 0 0 .708-.365c.192-.233.306-.604.341-1.113.059-1.002-.458-1.484-1.551-1.446a5.9 5.9 0 0 1-1.044-.084 4.762 4.762 0 0 1-1.256-.436 3.105 3.105 0 0 1-1.074-.963c-.295-.417-.447-.972-.458-1.665-.011-.694.096-1.264.32-1.713.224-.461.525-.819.903-1.072a4.132 4.132 0 0 1 1.281-.585c.476-.123.947-.2 1.412-.23a6.176 6.176 0 0 1 1.807.158c.592.14 1.087.369 1.485.688.411.306.652.718.724 1.236.053.385.003.68-.15.886-.14.191-.322.331-.545.419-.211.074-.403.12-.576.14l-.26.01Zm2.565-2.25-.046-.16a.922.922 0 0 1 .006-.42c.047-.162.162-.312.344-.452.195-.14.505-.238.93-.293.425-.055.904-.105 1.436-.15.545-.046 1.064-.09 1.556-.134.506-.045.918-.079 1.237-.104l.48-.036.26.01c.187-.006.401.013.642.058.255.031.485.11.689.236.204.113.33.29.379.527.048.239.008.427-.121.565a1.272 1.272 0 0 1-.469.317c-.185.06-.35.099-.496.117l-.219.028-3.192.291.069.258c.046.172.093.37.141.596.061.21.1.396.119.556.019.146.039.338.061.578a43.76 43.76 0 0 0 .09.877l1.479-.051.221.012c.146-.005.314.016.502.062.202.033.377.094.527.182.15.088.235.225.255.412a.552.552 0 0 1-.261.549c-.183.126-.38.213-.592.26a4.622 4.622 0 0 0-.377.074c-.04.001-.147.012-.319.031l-.58.02-.54.02-.24.008.011.3c.02.185.041.405.063.658.022.252.03.472.023.66.006.172.007.386.002.64a56.586 56.586 0 0 1-.028.901l2.695-.194.259-.01c.173-.018.38-.012.621.02.242.03.458.103.648.217.191.113.297.29.319.529.035.239-.025.434-.18.587a1.455 1.455 0 0 1-.548.339 4.04 4.04 0 0 1-.575.16l-.239.028-4.31.371-.319.011c-.2.02-.434.015-.701-.015a1.742 1.742 0 0 1-.71-.276c-.206-.153-.308-.39-.305-.71.011-.427.015-1.094.01-2.001a45.584 45.584 0 0 0-.153-3.217 31.628 31.628 0 0 0-.554-3.843Zm9.135-.32-.046-.158a.922.922 0 0 1 .006-.42c.047-.162.162-.313.344-.453.195-.14.505-.238.931-.293.425-.055.903-.105 1.435-.15.546-.046 1.064-.09 1.556-.134.506-.045.918-.079 1.238-.104l.479-.036.26.01c.187-.006.401.013.643.058.254.032.484.11.688.236.204.113.33.29.379.527.048.239.008.427-.121.565a1.27 1.27 0 0 1-.469.317 2.75 2.75 0 0 1-.496.117l-.219.028-3.192.291.069.258c.046.172.093.37.141.595.061.212.101.397.119.557.019.146.039.338.061.578a43.907 43.907 0 0 0 .09.877l1.479-.051.221.012c.147-.005.314.016.502.062.202.033.377.094.527.182.15.088.235.225.255.412a.552.552 0 0 1-.261.549c-.183.126-.38.213-.592.26a4.622 4.622 0 0 0-.377.074c-.04.001-.147.012-.319.031l-.58.02-.54.02-.24.008.011.3c.02.185.041.405.063.658.022.252.03.472.023.66.006.172.007.386.002.64a56.586 56.586 0 0 1-.028.901l2.695-.194.259-.01c.173-.018.38-.012.621.02.242.03.458.103.648.217.191.113.297.29.319.529.035.239-.025.434-.18.586a1.455 1.455 0 0 1-.548.34 4.004 4.004 0 0 1-.575.16l-.239.028-4.31.371-.319.011c-.2.02-.433.015-.701-.015a1.742 1.742 0 0 1-.71-.276c-.206-.153-.308-.39-.305-.71.011-.427.015-1.094.01-2.001a44.989 44.989 0 0 0-.153-3.217 31.628 31.628 0 0 0-.554-3.843Zm15.062 8.52-.709-9.421-.005-.16a.943.943 0 0 1 .127-.365c.075-.15.217-.28.426-.395.223-.128.547-.206.973-.234.572-.047.981.006 1.226.157.258.138.417.293.477.464.072.157.108.243.109.256a85.59 85.59 0 0 1 .113 1.537l.085 1.278a68.545 68.545 0 0 0 .112 1.497l2.115-.194-.46-4.006-.025-.14a.99.99 0 0 1 .067-.362c.062-.149.19-.287.386-.414.209-.14.519-.238.93-.292.425-.055.753-.04.983.045.229.072.399.173.51.303.112.13.176.247.193.353l.045.159.946 9.312.028.22c.018.132.003.3-.043.501-.047.189-.174.36-.382.514-.195.14-.506.218-.933.233-.426.015-.761-.034-1.005-.145-.244-.112-.422-.239-.534-.382a1.288 1.288 0 0 1-.214-.413l-.047-.178-.274-3.833-2.174.196.317 3.911-.015.161a.838.838 0 0 1-.148.345c-.089.124-.245.242-.468.357-.223.101-.555.16-.994.175-.44.015-.782-.026-1.025-.125-.231-.112-.395-.233-.493-.363a1.33 1.33 0 0 1-.193-.373l-.027-.18Zm9.431-5.052c-.037-1.066.115-2.046.458-2.938.341-.906.823-1.63 1.445-2.172.621-.555 1.318-.846 2.09-.873a3.179 3.179 0 0 1 1.655.402c.53.275 1.005.679 1.424 1.211.418.52.753 1.128 1.004 1.826.251.698.391 1.447.419 2.247a7.35 7.35 0 0 1-.261 2.27 6.533 6.533 0 0 1-.874 1.912 4.73 4.73 0 0 1-1.335 1.308 3.293 3.293 0 0 1-1.624.496c-.773.027-1.488-.208-2.146-.705-.658-.51-1.189-1.2-1.593-2.066-.404-.866-.625-1.84-.662-2.918Zm3.055-.187c.027.773.105 1.484.235 2.133.129.636.293 1.144.493 1.524.2.366.413.546.639.538.227-.008.427-.202.6-.582.173-.393.302-.91.386-1.554.084-.657.113-1.371.086-2.144a13.127 13.127 0 0 0-.235-2.133c-.129-.636-.293-1.144-.493-1.524-.2-.38-.414-.566-.64-.558-.227.008-.427.208-.6.601s-.301.911-.386 1.555a13.16 13.16 0 0 0-.085 2.144Zm7.719-5.093.28-.01c.186-.02.407.006.663.078.256.057.487.19.694.396.221.192.358.5.413.926.038.332.107.763.205 1.293.098.517.204 1.06.317 1.63.114.57.219 1.107.317 1.61.11.49.198.894.262 1.212l.117.476.748-3.228.09-.284c.059-.202.173-.4.339-.592.18-.193.45-.296.81-.308.36-.013.636.051.827.191.191.127.331.289.417.486.101.197.181.387.241.572.044.132.112.356.203.673.104.303.202.627.294.97a155.57 155.57 0 0 0 .383 1.228l.122-1.665.635-5.906.11-.264c.087-.19.254-.376.501-.558.261-.183.651-.263 1.173-.241.788.026 1.273.169 1.455.43.196.26.234.585.115.976-.061.189-.146.599-.258 1.23-.112.617-.239 1.362-.382 2.234-.143.873-.278 1.791-.404 2.756a97.63 97.63 0 0 0-.325 2.713c-.038.442-.146.786-.325 1.032a1.539 1.539 0 0 1-.543.5c-.196.1-.368.159-.514.178l-.219.027-.26.01c-.172.019-.387 0-.642-.058a1.843 1.843 0 0 1-.734-.395c-.234-.205-.426-.532-.575-.98-.285-.898-.531-1.65-.739-2.256l-.312-.91-1.001 3.437-.111.244c-.075.163-.229.328-.463.497-.221.168-.558.26-1.011.275-.68.024-1.157-.066-1.43-.27-.262-.218-.474-.57-.638-1.059a26.62 26.62 0 0 0-.272-.91 98.05 98.05 0 0 1-.455-1.566c-.167-.594-.342-1.202-.524-1.823l-.501-1.743a40.995 40.995 0 0 0-.386-1.307l-.138-.516-.046-.178a.796.796 0 0 1 .025-.422c.048-.175.175-.34.383-.493.222-.155.578-.267 1.069-.338ZM187.686 29l-1.223-8.683-.065-.118a.81.81 0 0 1-.031-.319c.009-.134.077-.276.205-.427.142-.152.384-.294.726-.426a9.152 9.152 0 0 1 1.624-.477 7.77 7.77 0 0 1 2.016-.17 5.264 5.264 0 0 1 2.141.565c.42.2.737.495.951.888.214.392.349.815.405 1.266.056.452.071.885.045 1.3a5.894 5.894 0 0 1-.104 1.024l-.066.402-.13.305c-.086.203-.258.436-.516.698-.244.25-.611.455-1.099.62l2.945 2.958.146.155c.097.104.175.234.234.392.071.145.063.298-.024.461-.075.15-.29.284-.647.403-.369.12-.701.158-.996.115a1.968 1.968 0 0 1-.709-.235 2.197 2.197 0 0 1-.411-.326l-.146-.155-2.752-3.166.758 2.795.046.179a.643.643 0 0 1-.027.38c-.048.15-.176.287-.385.415-.21.114-.548.179-1.014.195-.467.016-.835-.024-1.105-.121-.257-.098-.441-.218-.553-.361a1.155 1.155 0 0 1-.213-.373l-.026-.16Zm1.594-8.801.62 4 .221.013c.16.008.346-.012.558-.06.225-.048.435-.148.63-.302.207-.167.372-.413.494-.738.122-.337.153-.792.093-1.364-.059-.545-.18-.94-.362-1.188-.182-.26-.401-.42-.657-.477a1.787 1.787 0 0 0-.802-.032 7.196 7.196 0 0 0-.795.148Zm8.794-2.049.262.031a1.6 1.6 0 0 1 .586.16c.229.085.429.252.597.5.169.234.248.584.237 1.052-.002.307-.008.72-.016 1.241.004.507.017 1.067.038 1.68.021.6.055 1.199.103 1.797.061.599.14 1.15.238 1.653.111.503.245.905.402 1.207.17.287.368.42.595.4.239-.022.413-.189.522-.5.109-.323.175-.726.198-1.207.023-.494.018-1.015-.014-1.56a27.502 27.502 0 0 0-.134-1.557 27.455 27.455 0 0 0-.164-1.235c-.038-.332-.064-.518-.079-.557a5.077 5.077 0 0 1-.072-.338 1.361 1.361 0 0 1 .02-.561c.047-.202.174-.386.381-.554.221-.167.571-.28 1.049-.336.479-.057.854-.01 1.126.14.272.151.465.338.58.56.128.223.201.42.221.593l.049.259.076.457c.064.305.118.71.162 1.215.057.492.076 1.038.057 1.64-.005.6-.071 1.21-.196 1.827a5.464 5.464 0 0 1-.602 1.682 3.562 3.562 0 0 1-1.197 1.243c-.509.324-1.157.5-1.943.528-.786.027-1.458-.11-2.015-.41-.545-.315-1-.732-1.365-1.253a7.224 7.224 0 0 1-.843-1.792 13.14 13.14 0 0 1-.431-2.026 26.7 26.7 0 0 1-.15-1.996 48.823 48.823 0 0 1 .003-1.641c.024-.468.039-.802.045-1.002.015-.348.106-.611.273-.79.167-.193.355-.326.566-.4.224-.075.416-.115.576-.12l.259-.03Zm9.056 10.17-1.426-9.335-.025-.14a.821.821 0 0 1 .047-.381c.048-.149.17-.286.365-.413.209-.141.539-.24.991-.295.451-.056.799-.035 1.043.064.256.097.441.224.553.38.112.157.177.301.195.434l.047.198.427 3.047 1.739-3.483.153-.205c.102-.15.284-.283.547-.4.263-.115.622-.134 1.078-.057.47.077.788.193.953.347.166.154.238.325.218.513-.007.187-.06.369-.161.546-.063.109-.182.313-.359.613-.176.3-.384.64-.624 1.022a197.875 197.875 0 0 1-1.211 2.003l-.208.348 3.586 4.117.127.196a.913.913 0 0 1 .155.435c.019.16-.069.31-.265.45-.182.14-.545.232-1.091.278-.532.032-.961-.027-1.287-.176-.325-.162-.565-.327-.717-.495l-.21-.273-1.767-2.46.407 3.048.005.16a.717.717 0 0 1-.107.364c-.062.136-.204.26-.427.375-.223.115-.554.18-.994.195-.44.015-.781-.026-1.025-.124-.243-.099-.421-.22-.533-.362a.974.974 0 0 1-.173-.374l-.026-.16Zm13.387-2.188.36-.012c.226-.022.506-.038.839-.05.333-.025.659-.043.979-.054.332-.025.612-.041.839-.05l.339-.031.22-.008c.146-.005.32.016.522.062.201.033.378.12.529.262.165.14.26.364.284.67.024.293-.055.53-.235.709a1.484 1.484 0 0 1-.628.362 4.426 4.426 0 0 1-.656.123l-.279.03-.419.054a15.77 15.77 0 0 0-1.056.137 25.75 25.75 0 0 0-1.431.27c-.517.098-1.013.223-1.488.373-.475.15-.873.21-1.194.181-.308-.016-.55-.074-.727-.174a1.425 1.425 0 0 1-.392-.347c-.071-.13-.108-.216-.109-.256-.017-.093.006-.207.068-.343.061-.149.184-.253.369-.313.066-.016.093-.203.081-.563a16.012 16.012 0 0 0-.13-1.416 38.147 38.147 0 0 0-.246-1.893 51.22 51.22 0 0 0-.35-2.009 49.163 49.163 0 0 0-.342-1.77c-.112-.516-.219-.899-.321-1.149-.146-.381-.17-.68-.071-.898a.981.981 0 0 1 .424-.475 1.8 1.8 0 0 1 .532-.219l.259-.049.259-.029c.185-.033.399-.027.641.018.254.031.492.136.711.315.233.166.403.453.511.863.139.542.301 1.184.487 1.924.199.727.375 1.568.529 2.523.166.955.264 2.032.292 3.232Zm6.025 1.57a25.488 25.488 0 0 1-.139-1.695 116.15 116.15 0 0 1-.157-4.498c0-.747.004-1.407.011-1.981.006-.574.018-.988.036-1.242.029-.321.134-.565.315-.732.18-.18.383-.307.607-.381.238-.075.436-.115.596-.121l.259-.029.242.032c.173.007.361.034.563.08.201.046.345.135.429.265.183.26.272.518.267.771.009.24.006.554-.007.941a44.803 44.803 0 0 0-.037 2.943c.02.96.05 1.833.091 2.619.041.785.076 1.411.106 1.877l.064.698-.012.22c.005.134-.03.289-.104.465-.074.176-.222.341-.443.495-.222.142-.553.22-.992.235-.44.016-.781-.02-1.025-.104-.23-.099-.394-.213-.492-.343a1.13 1.13 0 0 1-.152-.355l-.026-.16Zm11.079-7.35c-.454.015-.802-.026-1.045-.124-.244-.111-.422-.239-.534-.381a.977.977 0 0 1-.174-.395 3.776 3.776 0 0 1-.028-.239 1.116 1.116 0 0 0-.091-.317c-.046-.158-.182-.234-.409-.226a1.591 1.591 0 0 0-.987.375c-.272.236-.414.575-.425 1.015-.011.441.115.817.38 1.128.264.31.77.46 1.516.447.373-.013.768.027 1.185.119a3.79 3.79 0 0 1 1.178.48c.381.213.685.515.912.908.24.378.37.86.391 1.447.027 1.173-.254 2.09-.845 2.751s-1.599 1.017-3.025 1.066c-.946.033-1.709-.053-2.29-.26-.581-.22-1.011-.485-1.289-.795-.264-.311-.407-.593-.429-.846-.023-.253-.018-.5.014-.74.045-.242.177-.454.398-.635.234-.182.61-.302 1.128-.36.532-.058.913-.025 1.144.1.231.113.376.247.435.405.072.158.109.257.11.297.001.04.018.14.05.298.046.146.117.29.216.433.111.13.26.191.446.185a.929.929 0 0 0 .708-.365c.192-.234.306-.605.342-1.113.058-1.003-.459-1.485-1.552-1.447a5.894 5.894 0 0 1-1.043-.083 4.753 4.753 0 0 1-1.256-.437 3.1 3.1 0 0 1-1.075-.963c-.294-.416-.447-.971-.458-1.665-.011-.693.096-1.264.32-1.712.224-.462.525-.819.903-1.072a4.134 4.134 0 0 1 1.281-.585c.476-.124.947-.2 1.413-.23a6.169 6.169 0 0 1 1.806.157c.592.14 1.087.37 1.485.689.411.306.652.718.724 1.235.053.385.003.68-.149.886a1.214 1.214 0 0 1-.546.42c-.211.073-.403.12-.576.14l-.259.009Zm5.385-1.71a7.172 7.172 0 0 1-.738.087c-.32.01-.647.002-.981-.026a2.99 2.99 0 0 1-.867-.19c-.244-.112-.384-.28-.418-.506-.021-.226.039-.408.181-.547.155-.138.338-.245.549-.319.21-.087.395-.14.555-.16l.258-.048 5.579-.715.279-.01c.187-.02.4-.02.641-.003.254.018.483.077.686.177a.514.514 0 0 1 .336.448.595.595 0 0 1-.181.547 1.969 1.969 0 0 1-.528.358 5.26 5.26 0 0 1-.553.2l-.238.048-1.273.245c.065.331.142.802.23 1.413a132.572 132.572 0 0 1 .525 4.144c.078.704.14 1.336.186 1.894.059.559.093.958.102 1.198.01.306-.068.542-.236.708a1.443 1.443 0 0 1-.568.34c-.211.061-.404.101-.576.12l-.24.009-.26.009a2.017 2.017 0 0 1-.605-.139c-.217-.086-.416-.252-.598-.5-.169-.247-.262-.624-.28-1.13a20.143 20.143 0 0 0-.138-1.657 56.14 56.14 0 0 0-.23-2.013 50.707 50.707 0 0 0-.288-1.95 51.658 51.658 0 0 0-.231-1.454l-.08-.577Zm13.166 8.026a26.189 26.189 0 0 1-.139-1.696c-.037-.692-.07-1.432-.097-2.218a118.64 118.64 0 0 1-.06-2.28c.001-.746.004-1.407.011-1.98.007-.575.019-.989.037-1.243.028-.321.133-.565.314-.731a1.55 1.55 0 0 1 .607-.382c.238-.075.437-.115.597-.12l.259-.03.241.032c.174.007.361.034.563.08.202.047.345.135.43.265.182.26.271.518.267.772.008.24.006.553-.008.94a44.803 44.803 0 0 0-.037 2.944c.02.96.051 1.832.092 2.618.04.786.076 1.411.105 1.877l.065.698-.013.221c.005.133-.03.288-.104.464-.073.176-.221.341-.443.496-.221.14-.552.22-.992.235-.44.015-.781-.02-1.024-.105-.23-.099-.395-.213-.492-.343a1.138 1.138 0 0 1-.153-.355l-.026-.159Zm11.079-7.351c-.453.016-.801-.025-1.045-.124-.244-.111-.422-.238-.534-.381a.978.978 0 0 1-.174-.394 3.776 3.776 0 0 1-.028-.24 1.082 1.082 0 0 0-.091-.317c-.046-.158-.182-.233-.408-.226a1.596 1.596 0 0 0-.988.375c-.272.236-.413.575-.424 1.016-.012.44.115.816.379 1.127.264.311.77.46 1.517.447.373-.013.768.027 1.184.12.417.091.81.251 1.178.478.381.214.685.517.912.91.24.378.37.86.391 1.446.028 1.173-.254 2.09-.845 2.752-.59.66-1.598 1.016-3.024 1.066-.946.033-1.71-.054-2.291-.26-.581-.22-1.011-.486-1.288-.796-.265-.311-.408-.593-.43-.846a3.45 3.45 0 0 1 .014-.74c.045-.242.178-.454.398-.635.234-.181.61-.301 1.128-.36.532-.058.913-.025 1.145.1.23.113.375.248.434.406.072.157.109.256.11.296.002.04.019.14.051.299.045.145.117.289.215.432.111.13.26.191.447.185a.929.929 0 0 0 .708-.365c.191-.234.305-.604.341-1.113.058-1.002-.459-1.485-1.552-1.446a5.904 5.904 0 0 1-1.043-.084 4.766 4.766 0 0 1-1.256-.436 3.086 3.086 0 0 1-1.074-.964c-.295-.416-.448-.971-.459-1.665-.011-.693.096-1.264.321-1.712.224-.461.525-.819.903-1.072a4.14 4.14 0 0 1 1.28-.585c.476-.123.947-.2 1.413-.23a6.176 6.176 0 0 1 1.807.158c.592.139 1.086.369 1.485.688.41.306.652.718.723 1.236.054.385.004.68-.149.885-.14.192-.322.332-.546.42-.211.074-.402.12-.575.14l-.26.009Zm8.772 6.598-.059-.558c-.026-.373-.07-.852-.13-1.437-.047-.585-.103-1.21-.166-1.875-.064-.678-.126-1.323-.187-1.935-.049-.625-.087-1.144-.115-1.557a33.908 33.908 0 0 1-.046-.758c.018-.228.032-.409.041-.542.021-.148.084-.25.189-.307.079-.043.097-.097.054-.162a.55.55 0 0 1-.029-.26c.023-.107.153-.225.388-.353.184-.1.472-.243.866-.43a6.48 6.48 0 0 1 1.464-.492c.569-.127 1.182-.134 1.84-.024.657.097 1.328.387 2.011.87.466.33.751.681.858 1.051a1.8 1.8 0 0 1 .037 1.06 3.31 3.31 0 0 1-.428.935c-.191.273-.37.493-.537.659l-.232.248.284.09c.188.06.419.16.69.296.285.137.572.327.861.57.288.23.532.523.731.876.212.353.333.769.363 1.248.056.812-.174 1.487-.689 2.025-.502.538-1.214.956-2.138 1.255-.91.286-1.965.45-3.165.491-.692.024-1.227-.01-1.604-.104-.377-.093-.648-.21-.813-.352-.165-.14-.263-.264-.293-.37a10.97 10.97 0 0 0-.046-.158Zm2.358-8.708.011.32c.02.2.035.44.045.719.023.28.046.539.067.778.035.226.067.365.095.417.029.052.121.036.278-.05.158-.085.32-.211.488-.377.18-.18.32-.378.419-.595a.997.997 0 0 0 .097-.664c-.108-.423-.31-.663-.605-.72-.296-.055-.594.002-.895.172Zm.602 4.622.255 3.313.28-.01c.187-.006.413-.034.678-.083a2.44 2.44 0 0 0 .77-.287 1.45 1.45 0 0 0 .6-.602c.15-.272.191-.633.122-1.085-.069-.45-.208-.78-.415-.986a1.26 1.26 0 0 0-.695-.416 2.095 2.095 0 0 0-.761-.033c-.24.022-.439.062-.597.12l-.237.07Zm6.155-5.298-.045-.159a.92.92 0 0 1 .005-.42c.048-.162.162-.313.344-.452.196-.14.506-.238.931-.293a33.61 33.61 0 0 1 1.435-.15c.546-.046 1.065-.09 1.557-.134.505-.045.917-.08 1.237-.104l.479-.036.26.01c.187-.006.401.013.643.058.254.031.484.11.688.236a.74.74 0 0 1 .379.527c.048.239.008.427-.12.565a1.274 1.274 0 0 1-.47.316 2.74 2.74 0 0 1-.496.118l-.219.028-3.192.291.069.258c.046.172.093.37.141.595.061.212.101.397.12.556.018.146.038.34.06.579.021.226.042.432.061.618l.03.259 1.479-.052.22.013c.147-.005.314.015.503.062.201.033.377.094.526.182.15.088.235.225.255.411a.549.549 0 0 1-.261.55 1.67 1.67 0 0 1-.591.26 4.713 4.713 0 0 0-.378.074c-.04.001-.146.012-.319.03l-.58.021-.539.019-.24.008.01.3c.02.186.041.406.063.658.022.253.03.473.023.66.006.173.007.387.003.64-.005.24-.011.454-.018.641l-.011.26 2.695-.193.26-.01a2.62 2.62 0 0 1 .621.019c.241.032.457.104.648.218.19.113.297.29.318.529.035.239-.024.434-.179.586a1.466 1.466 0 0 1-.549.34 3.992 3.992 0 0 1-.575.16l-.239.028-4.309.37-.32.012c-.2.02-.433.015-.701-.016a1.742 1.742 0 0 1-.71-.275c-.206-.153-.307-.39-.305-.71.012-.427.015-1.094.01-2.001a44.931 44.931 0 0 0-.152-3.217 31.441 31.441 0 0 0-.555-3.843Zm11.956.223a7.138 7.138 0 0 1-.738.086 8.197 8.197 0 0 1-.981-.026 2.99 2.99 0 0 1-.867-.19c-.244-.111-.384-.28-.418-.506-.021-.226.039-.408.181-.546.155-.14.338-.246.549-.32.211-.087.395-.14.555-.16l.258-.048 5.579-.715.28-.01c.186-.02.399-.02.64-.002.254.017.483.076.686.176a.511.511 0 0 1 .336.448.595.595 0 0 1-.181.547 1.969 1.969 0 0 1-.528.359 5.18 5.18 0 0 1-.553.199l-.238.048-1.273.245c.065.331.142.802.23 1.413.087.597.177 1.261.27 1.992.092.73.177 1.448.255 2.152.078.704.14 1.336.186 1.895.06.558.094.957.102 1.197.011.306-.068.543-.236.709a1.443 1.443 0 0 1-.568.34c-.211.06-.403.1-.576.12l-.24.008-.26.01a2.017 2.017 0 0 1-.605-.14c-.217-.086-.416-.252-.598-.5-.169-.247-.262-.624-.28-1.13a20.537 20.537 0 0 0-.137-1.656 58.584 58.584 0 0 0-.231-2.014 50.707 50.707 0 0 0-.288-1.95 51.658 51.658 0 0 0-.231-1.453l-.08-.578Zm9.857-.344a7.146 7.146 0 0 1-.737.085c-.32.012-.647.003-.982-.025a3.005 3.005 0 0 1-.867-.19c-.244-.112-.383-.28-.418-.506-.021-.226.039-.408.181-.546.155-.14.338-.246.549-.32.211-.087.396-.14.555-.16l.259-.048 5.578-.716.28-.01c.186-.02.399-.02.64-.002.254.018.483.077.687.177a.514.514 0 0 1 .336.448.597.597 0 0 1-.181.547 1.97 1.97 0 0 1-.528.358 5.29 5.29 0 0 1-.554.2l-.238.048-1.272.245c.065.331.141.802.229 1.413.088.597.178 1.26.27 1.991.092.73.177 1.448.255 2.153.078.704.14 1.336.186 1.894.06.559.094.958.102 1.198.011.306-.068.542-.235.708a1.454 1.454 0 0 1-.569.34c-.211.061-.403.101-.576.12l-.24.009-.26.009a2.026 2.026 0 0 1-.605-.139c-.216-.086-.416-.252-.598-.5-.168-.247-.262-.624-.279-1.13a21.069 21.069 0 0 0-.138-1.657 58.556 58.556 0 0 0-.231-2.013 50.707 50.707 0 0 0-.288-1.95 45.242 45.242 0 0 0-.231-1.454l-.08-.577Zm7.037-.886-.046-.159a.909.909 0 0 1 .006-.42c.047-.162.162-.313.344-.453.195-.14.505-.237.93-.292.425-.055.904-.105 1.436-.15.545-.046 1.064-.091 1.556-.135a118.34 118.34 0 0 1 1.716-.14l.261.011c.186-.007.401.013.642.058.255.03.484.11.689.236.204.113.33.288.379.527.048.238.008.427-.121.564a1.272 1.272 0 0 1-.469.317c-.185.06-.35.099-.496.117l-.219.028-3.192.292.069.257c.046.172.093.37.141.596.061.211.1.396.119.556.019.146.039.339.06.578.022.226.042.432.062.618l.029.26 1.479-.052.221.012c.146-.005.314.016.502.063.202.033.377.093.527.181.15.089.235.226.254.412a.55.55 0 0 1-.261.55 1.664 1.664 0 0 1-.591.26 4.529 4.529 0 0 0-.377.073c-.04.002-.147.012-.32.032l-.579.02-.54.018-.24.009.011.3c.02.186.041.405.063.658s.03.473.023.66c.006.173.007.386.002.64a56.609 56.609 0 0 1-.028.901l2.694-.194.26-.009c.173-.02.38-.013.621.018.242.032.458.105.648.218.191.113.297.29.319.53.035.238-.025.434-.18.586a1.455 1.455 0 0 1-.548.34 4.027 4.027 0 0 1-.575.16l-.239.028-4.31.37-.32.011a3.31 3.31 0 0 1-.701-.015 1.747 1.747 0 0 1-.71-.275c-.205-.153-.307-.39-.305-.71.012-.428.016-1.095.011-2.002a45.579 45.579 0 0 0-.153-3.216 31.622 31.622 0 0 0-.554-3.843Zm10.47 8.7-1.223-8.683-.064-.118a.79.79 0 0 1-.032-.32c.009-.133.077-.275.206-.427.141-.151.383-.293.725-.425a9.144 9.144 0 0 1 1.624-.477 7.766 7.766 0 0 1 2.016-.17 5.264 5.264 0 0 1 2.141.565c.42.199.738.495.951.888.214.392.349.815.405 1.266.056.452.071.885.045 1.3a5.894 5.894 0 0 1-.104 1.024l-.066.402-.13.305c-.086.203-.258.436-.516.698-.244.249-.611.455-1.099.619l2.945 2.959.146.155c.097.103.175.234.234.392.072.144.064.298-.024.461-.075.15-.29.284-.646.403-.37.12-.702.158-.997.115a1.968 1.968 0 0 1-.709-.236 2.201 2.201 0 0 1-.411-.325l-.146-.155-2.752-3.166.758 2.795.046.178a.65.65 0 0 1-.026.382c-.049.148-.177.286-.386.413-.21.114-.548.18-1.014.196-.466.016-.835-.024-1.105-.122-.257-.097-.441-.218-.553-.36a1.156 1.156 0 0 1-.213-.373l-.026-.16Zm1.594-8.801.62 4 .221.013c.16.007.346-.012.558-.06.225-.048.435-.148.63-.302.208-.168.372-.413.494-.738.122-.338.153-.792.093-1.364-.059-.545-.18-.94-.362-1.188-.182-.26-.401-.42-.657-.477a1.784 1.784 0 0 0-.801-.032 7.214 7.214 0 0 0-.796.148Z"/></svg>