<svg xmlns="http://www.w3.org/2000/svg" width="362" height="349" fill="none" viewBox="0 0 362 349"><path fill="#000" d="M0 20C0 8.954 8.954 0 20 0h322c11.046 0 20 8.954 20 20v189c0 77.32-62.68 140-140 140h-82C62.68 349 0 286.32 0 209z"/><path fill="#fff" d="M129.209 161.248q-1.03-3.23-2.77-5.788a17.7 17.7 0 0 0-4.084-4.403q-2.379-1.846-5.433-2.806-3.018-.958-6.641-.958-6.142 0-11.08 3.16-4.935 3.161-7.812 9.268-2.84 6.074-2.84 14.88 0 8.842 2.876 14.95t7.883 9.269q5.007 3.16 11.4 3.16 5.93 0 10.333-2.415 4.44-2.414 6.854-6.818 2.45-4.438 2.45-10.44l2.841.532h-20.809v-9.055h28.586v8.274q0 9.162-3.906 15.909-3.87 6.712-10.724 10.37-6.819 3.657-15.625 3.657-9.873 0-17.33-4.545-7.422-4.546-11.577-12.891-4.154-8.38-4.154-19.886 0-8.7 2.414-15.625t6.783-11.754q4.403-4.866 10.334-7.422 5.966-2.593 13.032-2.593 5.895 0 10.973 1.74 5.115 1.74 9.091 4.936a27.9 27.9 0 0 1 6.641 7.6q2.628 4.368 3.551 9.694zM147.04 211v-54.546h10.263v8.665h.568q1.492-4.403 5.256-6.924 3.8-2.557 8.594-2.557.995 0 2.343.071a27 27 0 0 1 2.167.177v10.157q-.64-.178-2.273-.391a22 22 0 0 0-3.267-.249q-3.765 0-6.712 1.598a11.9 11.9 0 0 0-4.616 4.368q-1.705 2.77-1.705 6.321V211zM193.805 212.207q-5.185 0-9.375-1.917-4.191-1.954-6.641-5.647-2.415-3.693-2.415-9.055 0-4.617 1.776-7.599a13.1 13.1 0 0 1 4.794-4.723q3.018-1.74 6.747-2.628a67 67 0 0 1 7.599-1.35l7.955-.923q3.054-.39 4.439-1.243 1.385-.852 1.385-2.77v-.248q0-4.653-2.628-7.209-2.592-2.557-7.742-2.557-5.362 0-8.451 2.379-3.054 2.345-4.226 5.22l-9.979-2.272q1.776-4.972 5.185-8.026a21 21 0 0 1 7.919-4.474q4.475-1.42 9.41-1.421 3.267 0 6.925.781a20.3 20.3 0 0 1 6.889 2.77q3.232 2.025 5.291 5.789 2.06 3.729 2.06 9.694V211h-10.369v-7.457h-.426q-1.03 2.06-3.09 4.048t-5.291 3.302q-3.232 1.314-7.741 1.314m2.308-8.522q4.403 0 7.528-1.74 3.16-1.741 4.794-4.546 1.67-2.841 1.669-6.072v-7.032q-.568.568-2.201 1.066-1.599.461-3.658.816-2.06.32-4.013.604a479 479 0 0 0-3.267.426q-3.09.392-5.646 1.314-2.522.924-4.049 2.664-1.491 1.704-1.491 4.545 0 3.942 2.912 5.966 2.911 1.989 7.422 1.989M232.623 231.454q-2.379 0-4.332-.39-1.953-.355-2.912-.781l2.557-8.701q2.912.781 5.184.675t4.013-1.705q1.775-1.597 3.125-5.22l1.314-3.622-19.957-55.256h11.363l13.814 42.33h.568l13.814-42.33h11.399l-22.478 61.826q-1.563 4.262-3.978 7.209-2.414 2.982-5.752 4.474-3.339 1.491-7.742 1.491"/></svg>