<svg width="750" height="750" viewBox="0 0 750 750" fill="none" xmlns="http://www.w3.org/2000/svg">
<rect width="750" height="750" fill="white"/>
<path d="M142 175.788C142 161.546 153.552 150 167.801 150H583.199C597.448 150 609 161.546 609 175.788V419.484C609 519.18 528.139 600 428.392 600H322.608C222.861 600 142 519.18 142 419.484V175.788Z" fill="black"/>
<path d="M308.687 357.914C307.801 355.136 306.61 352.648 305.113 350.45C303.647 348.222 301.891 346.329 299.845 344.772C297.799 343.185 295.462 341.979 292.836 341.155C290.24 340.331 287.384 339.919 284.269 339.919C278.986 339.919 274.221 341.277 269.976 343.994C265.731 346.711 262.371 350.694 259.897 355.945C257.454 361.164 256.232 367.56 256.232 375.13C256.232 382.731 257.469 389.156 259.943 394.407C262.417 399.657 265.807 403.641 270.113 406.358C274.42 409.074 279.321 410.433 284.819 410.433C289.919 410.433 294.363 409.395 298.15 407.319C301.968 405.243 304.915 402.313 306.992 398.528C309.099 394.712 310.153 390.225 310.153 385.066L313.818 385.753H286.972V374.077H323.85V384.745C323.85 392.621 322.171 399.459 318.811 405.259C315.482 411.028 310.87 415.485 304.976 418.629C299.112 421.773 292.393 423.345 284.819 423.345C276.328 423.345 268.876 421.391 262.463 417.484C256.08 413.577 251.102 408.036 247.528 400.863C243.955 393.659 242.168 385.112 242.168 375.221C242.168 367.743 243.207 361.027 245.283 355.075C247.36 349.122 250.277 344.07 254.033 339.919C257.821 335.737 262.264 332.547 267.365 330.349C272.496 328.121 278.1 327.006 284.178 327.006C289.247 327.006 293.966 327.754 298.333 329.25C302.731 330.746 306.64 332.867 310.061 335.615C313.512 338.362 316.368 341.628 318.628 345.413C320.888 349.168 322.415 353.335 323.209 357.914H308.687Z" fill="white"/>
<path d="M331.69 422.063V351.732H344.93V362.904H345.663C346.945 359.119 349.205 356.143 352.443 353.976C355.711 351.778 359.406 350.679 363.529 350.679C364.384 350.679 365.392 350.71 366.553 350.771C367.744 350.832 368.675 350.908 369.347 350.999V364.095C368.798 363.942 367.82 363.774 366.415 363.591C365.01 363.378 363.606 363.271 362.201 363.271C358.963 363.271 356.077 363.958 353.542 365.331C351.038 366.674 349.053 368.552 347.587 370.963C346.121 373.344 345.388 376.061 345.388 379.114V422.063H331.69Z" fill="white"/>
<path d="M392.019 423.62C387.56 423.62 383.528 422.796 379.924 421.147C376.32 419.468 373.465 417.041 371.357 413.867C369.281 410.692 368.242 406.8 368.242 402.191C368.242 398.223 369.006 394.956 370.533 392.392C372.06 389.828 374.121 387.798 376.717 386.302C379.313 384.807 382.215 383.677 385.422 382.914C388.628 382.151 391.896 381.571 395.225 381.174C399.44 380.686 402.861 380.289 405.487 379.984C408.114 379.648 410.023 379.114 411.214 378.381C412.405 377.648 413 376.458 413 374.809V374.489C413 370.49 411.87 367.392 409.61 365.194C407.381 362.996 404.052 361.897 399.623 361.897C395.012 361.897 391.377 362.92 388.72 364.965C386.094 366.98 384.276 369.223 383.269 371.696L370.395 368.765C371.923 364.492 374.152 361.042 377.084 358.417C380.046 355.761 383.452 353.838 387.3 352.648C391.148 351.427 395.195 350.816 399.44 350.816C402.25 350.816 405.228 351.152 408.373 351.824C411.55 352.465 414.512 353.655 417.261 355.395C420.04 357.135 422.315 359.623 424.087 362.859C425.858 366.064 426.744 370.231 426.744 375.359V422.063H413.367V412.447H412.817C411.931 414.218 410.603 415.958 408.831 417.667C407.06 419.377 404.785 420.796 402.005 421.926C399.226 423.055 395.897 423.62 392.019 423.62ZM394.996 412.631C398.783 412.631 402.021 411.883 404.708 410.387C407.427 408.891 409.488 406.938 410.893 404.526C412.328 402.084 413.046 399.474 413.046 396.696V387.63C412.557 388.119 411.611 388.576 410.206 389.004C408.831 389.401 407.259 389.752 405.487 390.057C403.716 390.332 401.99 390.591 400.31 390.835C398.631 391.049 397.226 391.232 396.096 391.385C393.439 391.721 391.011 392.285 388.812 393.079C386.643 393.873 384.902 395.017 383.589 396.513C382.306 397.978 381.665 399.932 381.665 402.374C381.665 405.762 382.917 408.326 385.422 410.066C387.926 411.776 391.118 412.631 394.996 412.631Z" fill="white"/>
<path d="M442.097 448.437C440.05 448.437 438.187 448.269 436.508 447.933C434.828 447.628 433.576 447.292 432.751 446.926L436.049 435.708C438.554 436.379 440.783 436.669 442.738 436.578C444.693 436.486 446.418 435.754 447.915 434.38C449.442 433.006 450.786 430.763 451.946 427.649L453.641 422.979L427.895 351.732H442.555L460.375 406.312H461.108L478.929 351.732H493.635L464.636 431.45C463.292 435.113 461.582 438.211 459.505 440.745C457.428 443.309 454.954 445.232 452.084 446.514C449.213 447.796 445.884 448.437 442.097 448.437Z" fill="white"/>
</svg>
