<svg width="861" height="145" viewBox="0 0 861 145" fill="none" xmlns="http://www.w3.org/2000/svg">
<path d="M402.455 105.418C383.279 32.988 288.482 21.9733 228.632 47.5344C241.116 65.4375 254.401 83.0637 274.619 93.2529C294.837 103.442 320.12 96.4298 340.68 105.223C361.235 114.002 381.842 99.1054 402.455 105.418ZM400.098 101.009C380.442 96.1686 361.823 108.506 342.503 99.8939C323.182 91.2818 302.124 96.9976 282.064 90.9647C262.008 84.9227 247.382 66.3624 234.554 51.399C253.738 47.9982 273.632 66.267 291.891 70.412C310.145 74.566 326.471 71.1672 344.39 76.1356C329.779 65.8246 311.72 71.7805 294.905 66.2898C278.09 60.799 257.841 49.3043 241.56 45.839C298.115 32.644 374.523 40.6449 400.098 101.009Z" stroke="#524545" stroke-width="0.3"/>
<path d="M400.098 101.009C374.523 40.6448 298.115 32.644 241.56 45.839C257.841 49.3043 278.09 60.799 294.905 66.2897C311.72 71.7804 329.779 65.8245 344.39 76.1356C326.471 71.1671 310.145 74.5659 291.891 70.4119C273.632 66.267 253.738 47.9982 234.554 51.399C247.382 66.3623 262.008 84.9227 282.064 90.9646C302.124 96.9975 323.182 91.2818 342.503 99.8939C361.823 108.506 380.442 96.1685 400.098 101.009Z" stroke="#FAFAFA" stroke-width="0.3"/>
<path d="M402.455 105.418C383.279 32.988 288.482 21.9733 228.632 47.5344C241.116 65.4375 254.401 83.0637 274.619 93.2529C294.837 103.442 320.12 96.4298 340.68 105.223C361.235 114.002 381.842 99.1054 402.455 105.418ZM400.098 101.009C380.442 96.1686 361.823 108.506 342.503 99.8939C323.182 91.2818 302.124 96.9976 282.064 90.9647C262.008 84.9227 247.382 66.3624 234.554 51.399C253.738 47.9982 273.632 66.267 291.891 70.412C310.145 74.566 326.471 71.1672 344.39 76.1356C329.779 65.8246 311.72 71.7805 294.905 66.2898C278.09 60.799 257.841 49.3043 241.56 45.839C298.115 32.644 374.523 40.6449 400.098 101.009Z" fill="#524545" stroke="black"/>
<path d="M400.098 101.009C374.523 40.6448 298.115 32.644 241.56 45.839C257.841 49.3043 278.09 60.799 294.905 66.2897C311.72 71.7804 329.779 65.8245 344.39 76.1356C326.471 71.1671 310.145 74.5659 291.891 70.4119C273.632 66.267 253.738 47.9982 234.554 51.399C247.382 66.3623 262.008 84.9227 282.064 90.9646C302.124 96.9975 323.182 91.2818 342.503 99.8939C361.823 108.506 380.442 96.1685 400.098 101.009Z" fill="#FAFAFA" stroke="black"/>
<path d="M97.3262 127.269C100.286 127.379 103.376 127.429 106.326 127.269C117.926 128.499 135.756 121.209 129.096 109.499C122.436 97.7786 118.996 92.4585 110.076 83.5185C101.166 74.5685 94.7062 69.6985 82.9962 65.5985C71.2862 61.4985 55.1662 61.1585 42.3462 63.2885C29.5362 65.4285 15.0162 67.0985 1.32617 66.2685C29.2462 93.0985 56.2862 125.699 97.3262 127.269ZM129.326 116.269C115.546 111.969 98.2662 112.219 85.6362 104.959C72.9962 97.7085 62.8462 91.1185 49.3262 86.2685C60.2562 93.8985 71.5862 99.8385 84.0262 107.579C96.4562 115.309 114.576 114.599 128.326 119.269C81.0962 139.589 41.5662 99.0785 9.32617 69.2685C32.3462 66.8085 65.1962 61.1985 86.5562 71.0385C107.916 80.8785 120.576 95.6385 129.326 116.269Z" stroke="#524545" stroke-width="0.3"/>
<path d="M129.326 116.27C120.576 95.6398 107.916 80.8798 86.5562 71.0398C65.1962 61.1998 32.3462 66.8098 9.32617 69.2698C41.5662 99.0798 81.0962 139.59 128.326 119.27C114.576 114.6 96.4562 115.31 84.0262 107.58C71.5862 99.8398 60.2562 93.8998 49.3262 86.2698C62.8462 91.1198 72.9962 97.7098 85.6362 104.96C98.2662 112.22 115.546 111.97 129.326 116.27Z" stroke="#FAFAFA" stroke-width="0.3"/>
<path d="M106.326 127.27C103.376 127.43 100.286 127.38 97.3262 127.27C100.376 127.71 103.196 127.78 106.326 127.27Z" stroke="#FAFAFA" stroke-width="0.3"/>
<path d="M97.3262 127.269C100.286 127.379 103.376 127.429 106.326 127.269C117.926 128.499 135.756 121.209 129.096 109.499C122.436 97.7786 118.996 92.4585 110.076 83.5185C101.166 74.5685 94.7062 69.6985 82.9962 65.5985C71.2862 61.4985 55.1662 61.1585 42.3462 63.2885C29.5362 65.4285 15.0162 67.0985 1.32617 66.2685C29.2462 93.0985 56.2862 125.699 97.3262 127.269ZM129.326 116.269C115.546 111.969 98.2662 112.219 85.6362 104.959C72.9962 97.7085 62.8462 91.1185 49.3262 86.2685C60.2562 93.8985 71.5862 99.8385 84.0262 107.579C96.4562 115.309 114.576 114.599 128.326 119.269C81.0962 139.589 41.5662 99.0785 9.32617 69.2685C32.3462 66.8085 65.1962 61.1985 86.5562 71.0385C107.916 80.8785 120.576 95.6385 129.326 116.269Z" fill="#524545" stroke="black"/>
<path d="M129.326 116.27C120.576 95.6398 107.916 80.8798 86.5562 71.0398C65.1962 61.1998 32.3462 66.8098 9.32617 69.2698C41.5662 99.0798 81.0962 139.59 128.326 119.27C114.576 114.6 96.4562 115.31 84.0262 107.58C71.5862 99.8398 60.2562 93.8998 49.3262 86.2698C62.8462 91.1198 72.9962 97.7098 85.6362 104.96C98.2662 112.22 115.546 111.97 129.326 116.27Z" fill="#FAFAFA" stroke="black"/>
<path d="M106.326 127.27C103.376 127.43 100.286 127.38 97.3262 127.27C100.376 127.71 103.196 127.78 106.326 127.27Z" fill="#FAFAFA" stroke="black"/>
<path d="M678.013 107.003C741.862 146.106 818.677 88.2981 843.26 27.8936C821.224 23.3293 800.853 21.3007 778.747 27.8974C756.64 34.494 743.538 56.6464 722.822 65.1331C702.11 73.6293 697.288 97.1294 678.013 107.003ZM741.068 87.4064C758.57 84.2674 767.053 69.099 782.635 60.4763C798.217 51.8537 821.962 48.8176 835.758 36.8224C819.819 63.0507 800.777 80.9133 775.371 98.63C749.961 116.337 712.232 120.963 683.097 109.483C699.916 99.0484 704.86 77.3781 724.45 69.8607C744.043 62.3528 756.321 44.4715 774.701 34.5784C793.082 24.6853 816.345 27.283 836.316 29.227C826.342 45.0142 799.278 46.5493 782.809 55.0542C766.341 63.5591 757.795 79.4998 741.068 87.4064Z" stroke="#524545" stroke-width="0.3"/>
<path d="M741.068 87.4052C757.796 79.4986 766.341 63.5579 782.81 55.053C799.278 46.5481 826.343 45.013 836.316 29.2258C816.345 27.2818 793.082 24.6841 774.702 34.5772C756.321 44.4703 744.044 62.3515 724.451 69.8595C704.861 77.3769 699.917 99.0472 683.097 109.481C712.232 120.962 749.962 116.336 775.371 98.6288C800.778 80.9121 819.819 63.0495 835.759 36.8212C821.962 48.8164 798.217 51.8525 782.635 60.4751C767.054 69.0978 758.57 84.2662 741.068 87.4052Z" stroke="#FAFAFA" stroke-width="0.3"/>
<path d="M678.013 107.003C741.862 146.106 818.677 88.2981 843.26 27.8936C821.224 23.3293 800.853 21.3007 778.747 27.8974C756.64 34.494 743.538 56.6464 722.822 65.1331C702.11 73.6293 697.288 97.1294 678.013 107.003ZM741.068 87.4064C758.57 84.2674 767.053 69.099 782.635 60.4763C798.217 51.8537 821.962 48.8176 835.758 36.8224C819.819 63.0507 800.777 80.9133 775.371 98.63C749.961 116.337 712.232 120.963 683.097 109.483C699.916 99.0484 704.86 77.3781 724.45 69.8607C744.043 62.3528 756.321 44.4715 774.701 34.5784C793.082 24.6853 816.345 27.283 836.316 29.227C826.342 45.0142 799.278 46.5493 782.809 55.0542C766.341 63.5591 757.795 79.4998 741.068 87.4064Z" fill="#524545" stroke="black"/>
<path d="M741.068 87.4052C757.796 79.4986 766.341 63.5579 782.81 55.053C799.278 46.5481 826.343 45.013 836.316 29.2258C816.345 27.2818 793.082 24.6841 774.702 34.5772C756.321 44.4703 744.044 62.3515 724.451 69.8595C704.861 77.3769 699.917 99.0472 683.097 109.481C712.232 120.962 749.962 116.336 775.371 98.6288C800.778 80.9121 819.819 63.0495 835.759 36.8212C821.962 48.8164 798.217 51.8525 782.635 60.4751C767.054 69.0978 758.57 84.2662 741.068 87.4052Z" fill="#FAFAFA" stroke="black"/>
<path d="M522.546 72.1332C519.576 72.0732 516.516 71.9732 513.546 72.1332C501.956 70.9132 484.106 78.1732 490.776 89.9032C497.436 101.633 500.866 106.913 509.796 115.883C518.716 124.853 525.146 129.653 536.876 133.803C548.596 137.963 564.676 138.073 577.536 136.123C590.406 134.173 604.816 132.153 618.546 133.133C590.656 106.833 563.586 72.9532 522.546 72.1332ZM610.546 130.133C587.546 132.703 554.686 138.213 533.316 128.363C511.956 118.513 499.296 103.763 490.546 83.1332C504.276 87.6432 521.596 87.2032 534.236 94.4432C546.886 101.673 556.996 108.433 570.546 113.133C559.096 105.153 548.726 100.083 536.466 92.2132C524.216 84.3332 506.176 84.9532 492.546 80.1332C539.356 59.8832 578.516 100.753 610.546 130.133Z" stroke="#524545" stroke-width="0.3"/>
<path d="M610.547 130.132C578.517 100.752 539.357 59.8822 492.547 80.1322C506.177 84.9522 524.217 84.3322 536.467 92.2122C548.727 100.082 559.097 105.152 570.547 113.132C556.997 108.432 546.887 101.672 534.237 94.4422C521.597 87.2022 504.277 87.6422 490.547 83.1322C499.297 103.762 511.957 118.512 533.317 128.362C554.687 138.212 587.547 132.702 610.547 130.132Z" stroke="#FAFAFA" stroke-width="0.3"/>
<path d="M522.546 72.1332C519.576 72.0732 516.516 71.9732 513.546 72.1332C501.956 70.9132 484.106 78.1732 490.776 89.9032C497.436 101.633 500.866 106.913 509.796 115.883C518.716 124.853 525.146 129.653 536.876 133.803C548.596 137.963 564.676 138.073 577.536 136.123C590.406 134.173 604.816 132.153 618.546 133.133C590.656 106.833 563.586 72.9532 522.546 72.1332ZM610.546 130.133C587.546 132.703 554.686 138.213 533.316 128.363C511.956 118.513 499.296 103.763 490.546 83.1332C504.276 87.6432 521.596 87.2032 534.236 94.4432C546.886 101.673 556.996 108.433 570.546 113.133C559.096 105.153 548.726 100.083 536.466 92.2132C524.216 84.3332 506.176 84.9532 492.546 80.1332C539.356 59.8832 578.516 100.753 610.546 130.133Z" fill="#524545" stroke="black"/>
<path d="M610.547 130.132C578.517 100.752 539.357 59.8822 492.547 80.1322C506.177 84.9522 524.217 84.3322 536.467 92.2122C548.727 100.082 559.097 105.152 570.547 113.132C556.997 108.432 546.887 101.672 534.237 94.4422C521.597 87.2022 504.277 87.6422 490.547 83.1322C499.297 103.762 511.957 118.512 533.317 128.362C554.687 138.212 587.547 132.702 610.547 130.132Z" fill="#FAFAFA" stroke="black"/>
</svg>
