<svg width="200" height="60" viewBox="0 0 200 60" fill="none" xmlns="http://www.w3.org/2000/svg">
<g clip-path="url(#clip0_7_16)">
<path d="M124.049 46.8738C112.44 55.3784 95.6145 59.9159 81.1278 59.9159C60.8152 59.9159 42.5286 52.4485 28.6941 40.0286C27.6072 39.0519 28.5811 37.7209 29.8854 38.4815C44.8155 47.1158 63.276 52.3102 82.3452 52.3102C95.2058 52.3102 109.353 49.6654 122.362 44.1772C124.327 43.3475 125.97 45.4563 124.049 46.8738Z" fill="#FF9900"/>
<path d="M128.875 41.3856C127.396 39.5015 119.066 40.4954 115.327 40.9362C114.188 41.0745 114.014 40.0892 115.04 39.3805C121.675 34.7392 132.562 36.0789 133.831 37.6346C135.101 39.199 133.501 50.0458 127.266 55.2229C126.31 56.0181 125.396 55.5946 125.823 54.5401C127.223 51.0657 130.362 43.2784 128.875 41.3856Z" fill="#FF9900"/>
<path d="M115.588 6.61511V2.10351C115.588 1.42072 116.11 0.962646 116.736 0.962646H137.057C137.709 0.962646 138.231 1.42936 138.231 2.10351V5.96689C138.222 6.61511 137.674 7.46212 136.7 8.80177L126.17 23.7454C130.083 23.6503 134.214 24.2294 137.761 26.2172C138.561 26.6667 138.779 27.3235 138.84 27.9718V32.7859C138.84 33.4427 138.109 34.2119 137.344 33.8144C131.092 30.556 122.788 30.2016 115.875 33.8489C115.171 34.2292 114.431 33.4687 114.431 32.8118V28.2397C114.431 27.505 114.44 26.2518 115.179 25.1369L127.379 7.74733H116.762C116.11 7.74733 115.588 7.28926 115.588 6.61511Z" fill="#221F1F"/>
<path d="M41.4589 34.7651H35.2764C34.6852 34.7219 34.2156 34.2811 34.1721 33.7193V2.18128C34.1721 1.55034 34.7025 1.04905 35.3634 1.04905H41.1285C41.7285 1.07496 42.2067 1.53305 42.2502 2.10348V6.22616H42.3633C43.8676 2.24177 46.6936 0.383545 50.5022 0.383545C54.3717 0.383545 56.789 2.24177 58.5281 6.22616C60.0238 2.24177 63.4237 0.383545 67.0671 0.383545C69.6583 0.383545 72.4931 1.44662 74.2235 3.83207C76.1799 6.48544 75.7799 10.3402 75.7799 13.7196L75.7713 33.6242C75.7713 34.2551 75.2408 34.7651 74.58 34.7651H68.4062C67.7888 34.7219 67.2932 34.2292 67.2932 33.6242V16.9088C67.2932 15.5778 67.4149 12.2589 67.1193 10.997C66.6584 8.87954 65.2758 8.28317 63.4846 8.28317C61.9889 8.28317 60.4237 9.2771 59.789 10.8674C59.1542 12.4577 59.2151 15.1197 59.2151 16.9088V33.6242C59.2151 34.2551 58.6847 34.7651 58.0238 34.7651H51.85C51.2239 34.7219 50.737 34.2292 50.737 33.6242L50.7283 16.9088C50.7283 13.3911 51.3109 8.21403 46.9197 8.21403C42.4763 8.21403 42.6502 13.2615 42.6502 16.9088V33.6242C42.6502 34.2551 42.1198 34.7651 41.4589 34.7651Z" fill="#221F1F"/>
<path d="M155.726 0.383545C164.9 0.383545 169.865 8.21403 169.865 18.1707C169.865 27.7902 164.378 35.4219 155.726 35.4219C146.718 35.4219 141.813 27.5914 141.813 17.8336C141.813 8.01524 146.779 0.383545 155.726 0.383545ZM155.778 6.82252C151.222 6.82252 150.935 12.9936 150.935 16.8397C150.935 20.6944 150.874 28.9225 155.726 28.9225C160.517 28.9225 160.744 22.2847 160.744 18.2398C160.744 15.5778 160.63 12.3972 159.822 9.87347C159.126 7.67817 157.744 6.82252 155.778 6.82252Z" fill="#221F1F"/>
<path d="M181.761 34.7651H175.604C174.987 34.7219 174.491 34.2292 174.491 33.6242L174.482 2.07756C174.535 1.49848 175.048 1.04905 175.674 1.04905H181.404C181.943 1.07496 182.387 1.43798 182.508 1.93063V6.75337H182.621C184.352 2.44056 186.778 0.383545 191.047 0.383545C193.821 0.383545 196.525 1.37748 198.265 4.1C199.882 6.62373 199.882 10.8674 199.882 13.9183V33.7711C199.812 34.3243 199.299 34.7651 198.691 34.7651H192.491C191.926 34.7219 191.456 34.307 191.395 33.7711V16.6409C191.395 13.1923 191.795 8.14488 187.526 8.14488C186.021 8.14488 184.639 9.14746 183.952 10.6686C183.082 12.596 182.969 14.5147 182.969 16.6409V33.6242C182.961 34.2551 182.421 34.7651 181.761 34.7651Z" fill="#221F1F"/>
<path d="M99.3882 19.7005V18.3695C94.9187 18.3695 90.197 19.3202 90.197 24.5578C90.197 27.2112 91.5796 29.0089 93.9535 29.0089C95.6926 29.0089 97.2491 27.9458 98.2317 26.2172C99.449 24.0911 99.3882 22.0946 99.3882 19.7005ZM105.623 34.6786C105.214 35.0416 104.623 35.0676 104.162 34.8256C102.11 33.1316 101.745 32.3451 100.614 30.7288C97.223 34.1687 94.823 35.1972 90.4231 35.1972C85.2232 35.1972 81.1711 32.008 81.1711 25.6209C81.1711 20.6339 83.8928 17.2372 87.7623 15.5778C91.1188 14.1085 95.8056 13.8492 99.3882 13.443V12.6479C99.3882 11.1872 99.5012 9.45862 98.6403 8.19676C97.8838 7.06453 96.4404 6.59781 95.1708 6.59781C92.8144 6.59781 90.7101 7.79918 90.197 10.2883C90.0927 10.8415 89.684 11.386 89.1275 11.4119L83.1276 10.7723C82.6233 10.66 82.0668 10.2538 82.2059 9.48455C83.5885 2.25907 90.1536 0.0810547 96.0317 0.0810547C99.0403 0.0810547 102.971 0.876203 105.345 3.14065C108.353 5.93231 108.066 9.6574 108.066 13.7109V23.2873C108.066 26.1654 109.266 27.4272 110.397 28.983C110.797 29.5361 110.884 30.2016 110.379 30.6165C109.118 31.6623 106.875 33.6069 105.64 34.6959L105.623 34.6786Z" fill="#221F1F"/>
<path d="M18.3376 19.7005V18.3695C13.8681 18.3695 9.1465 19.3202 9.1465 24.5578C9.1465 27.2112 10.5291 29.0089 12.9029 29.0089C14.642 29.0089 16.1985 27.9458 17.1811 26.2172C18.3985 24.0911 18.3376 22.0946 18.3376 19.7005ZM24.5723 34.6786C24.1636 35.0416 23.5723 35.0676 23.1114 34.8256C21.0593 33.1316 20.6941 32.3451 19.5637 30.7288C16.1724 34.1687 13.7725 35.1972 9.37258 35.1972C4.17269 35.1972 0.120605 32.008 0.120605 25.6209C0.120605 20.6339 2.84229 17.2372 6.71177 15.5778C10.0682 14.1085 14.7551 13.8492 18.3376 13.443V12.6479C18.3376 11.1872 18.4507 9.45862 17.5898 8.19676C16.8333 7.06453 15.3899 6.59781 14.1203 6.59781C11.7638 6.59781 9.65953 7.79918 9.1465 10.2883C9.04215 10.8415 8.63347 11.386 8.07696 11.4119L2.07709 10.7723C1.57275 10.66 1.01624 10.2538 1.15536 9.48455C2.53795 2.25907 9.10302 0.0810547 14.9812 0.0810547C17.9898 0.0810547 21.9201 0.876203 24.294 3.14065C27.3026 5.93231 27.0157 9.6574 27.0157 13.7109V23.2873C27.0157 26.1654 28.2157 27.4272 29.3461 28.983C29.7461 29.5361 29.833 30.2016 29.3287 30.6165C28.0678 31.6623 25.8244 33.6069 24.5897 34.6959L24.5723 34.6786Z" fill="#221F1F"/>
</g>
<defs>
<clipPath id="clip0_7_16">
<rect width="200" height="60" fill="white"/>
</clipPath>
</defs>
</svg>
