<svg width="200" height="80" viewBox="0 0 200 80" fill="none" xmlns="http://www.w3.org/2000/svg">
<g clip-path="url(#clip0_7_9)">
<path d="M126.616 42.4269C117.528 42.7242 111.881 44.3611 111.881 50.3359C111.881 54.2038 114.971 58.3971 122.814 58.3971C133.329 58.3971 138.942 52.676 138.942 43.2928L138.943 42.2607C135.256 42.2607 130.71 42.2928 126.616 42.4269ZM148.966 54.8242C148.966 57.7353 149.05 60.6089 149.305 63.1966H139.982C139.733 61.0659 139.642 58.9487 139.642 56.8951C134.602 63.0794 128.607 64.8573 120.29 64.8573C107.955 64.8573 101.35 58.3495 101.35 50.8222C101.35 39.9203 110.333 36.0764 125.928 35.7198C130.193 35.6226 134.983 35.6082 138.943 35.6082L138.942 34.543C138.942 27.2445 134.254 24.2437 126.129 24.2437C120.097 24.2437 115.652 26.7351 115.194 31.0403H104.663C105.778 20.3061 117.076 17.5913 127.011 17.5913C138.913 17.5913 148.966 21.818 148.966 34.3827L148.966 54.8242Z" fill="#FFBC13"/>
<path d="M39.9273 37.1035C39.5384 27.7456 32.7714 24.2437 25.539 24.2437C17.7401 24.2437 11.5137 28.1828 10.4229 37.1035H39.9273ZM10.2069 43.756C10.7477 52.8357 17.0208 58.2057 25.6464 58.2057C31.6225 58.2057 36.9383 55.7753 38.7183 50.4881H49.0551C47.0447 61.2159 35.6244 64.8573 25.7945 64.8573C7.92128 64.8573 0 55.0324 0 41.7828C0 27.1973 8.19313 17.5913 25.9576 17.5913C40.0974 17.5913 50.4576 24.9773 50.4576 41.0983V43.756H10.2069Z" fill="#F12C2D"/>
<path d="M76.1664 58.0158C85.4809 58.0158 91.8546 51.324 91.8546 41.2256C91.8546 31.1281 85.4809 24.4354 76.1664 24.4354C66.9043 24.4354 60.4776 31.1281 60.4776 41.2256C60.4776 51.324 66.9043 58.0158 76.1664 58.0158ZM50.4571 0H60.4776L60.4766 25.1282C65.388 19.2873 72.1544 17.5914 78.8146 17.5914C89.9816 17.5914 102.385 25.1127 102.385 41.3525C102.385 54.9514 92.5205 64.8573 78.6286 64.8573C71.3572 64.8573 64.5125 62.2537 60.2913 57.0953C60.2913 59.1557 60.1761 61.2323 59.9503 63.1967H50.116C50.287 60.0208 50.4571 56.0664 50.4571 52.8667L50.4571 0Z" fill="#0968F6"/>
<path d="M200 19.2554L169.011 80H157.79L166.699 63.1327L143.378 19.2554H155.103L172.264 53.5371L189.377 19.2554H200Z" fill="#93C822"/>
</g>
<defs>
<clipPath id="clip0_7_9">
<rect width="200" height="80" fill="white"/>
</clipPath>
</defs>
</svg>
