<svg width="200" height="100" viewBox="0 0 200 100" fill="none" xmlns="http://www.w3.org/2000/svg">
<path d="M27.2791 13.0208V38.0542C27.2791 38.0542 36.0999 38.0542 40.8208 37.6958C44.5333 37.0458 45.2166 36.6875 45.8999 32.975L47.2666 27.5375H51.3041L50.6208 39.4208L50.9791 51.5958H46.9083L45.8999 46.8417C44.8916 43.4583 43.5249 42.7708 40.8208 42.4458C37.4374 42.0875 27.2791 42.0875 27.2791 42.0875V63.0833C27.2791 67.1208 29.3291 68.8458 34.05 68.8458H48.2749C52.6708 68.8458 57.0624 68.4875 59.7999 62.075L63.4791 53.9375H66.8958C66.5374 55.6292 64.8458 70.5375 64.5208 73.8917C64.5208 73.8917 51.6624 73.5667 46.2583 73.5667H21.875L7.32495 73.8917V70.2125L12.0458 69.1708C15.4625 68.4875 16.4708 67.4792 16.4708 64.775C16.4708 64.775 16.8291 55.6292 16.8291 40.3917C16.8291 25.1917 16.4708 16.0417 16.4708 16.0417C16.4708 13.0125 15.4625 12.3292 12.0458 11.6458L7.32495 10.6458V6.93333L21.55 7.225H48.6333C54.0374 7.225 63.1499 6.25 63.1499 6.25C63.1499 6.25 62.8249 11.9792 62.4666 25.5208H58.7541L57.3874 20.7667C56.0541 14.6792 54.0333 11.65 50.2916 11.65H29.0041C27.2791 11.6542 27.2791 11.9792 27.2791 13.0208ZM82.0958 15.6917H86.1666V29.9167L100.067 29.2333L99.3833 35.6792L85.8416 34.6375V59.7042C85.8416 66.8 88.2166 69.5333 92.2875 69.5333C95.9666 69.5333 98.7 67.4833 99.7083 65.7917L101.725 68.1667C99.7083 72.8875 93.9791 75.2625 88.5416 75.2625C81.8041 75.2625 76.3333 71.225 76.3333 63.4458V34.9917H68.2583V31.6083C75.0333 30.925 80.0791 26.8542 82.0958 15.6917ZM111.229 59.3417L113.929 65.7875C114.937 68.4875 117.312 71.225 122.717 71.225C128.479 71.225 130.854 68.1667 130.854 64.4542C130.854 52.9292 108.167 56.3167 108.167 40.7542C108.167 31.9667 115.262 27.8625 124.408 27.8625C128.479 27.8625 134.567 28.5458 137.625 29.9125C136.942 33.2958 136.583 37.6917 136.583 41.0792L133.229 41.4042L130.854 34.6333C130.171 32.975 127.437 31.6042 124.083 31.6042C120.012 31.6042 115.946 33.2958 115.946 37.6917C115.946 48.175 139.317 45.8292 139.317 61.3917C139.317 70.2125 131.537 74.9333 122.033 74.9333C114.937 74.9333 107.808 72.2 107.808 72.2C108.492 68.1625 108.167 63.7708 107.808 59.3417H111.229ZM137.629 91.8292C138.637 88.1167 139.321 83.4 140.004 78.9708L143.717 78.6458L145.083 85.7417C145.408 87.4333 146.417 88.8 149.121 88.8C153.517 88.8 159.279 86.1 164.712 76.625C162.304 70.8625 155.208 52.275 148.762 38.05C147.071 34.3083 146.746 33.9792 144.4 33.2958L142.675 32.6458V29.2292L152.862 29.5875L165.362 28.9042V32.2917L162.304 32.975C159.929 33.3 158.95 34.6333 158.95 36.0042C158.95 36.3625 158.95 36.6875 159.275 37.3708C159.925 39.4208 165.362 54.625 169.433 64.7792C172.787 57.6833 179.233 41.7667 180.242 39.0625C180.6 37.6958 180.925 37.3708 180.925 36.3625C180.925 34.6375 179.917 33.6292 177.571 32.9792L175.162 32.2917V28.9083L184.667 29.2333L193.454 28.9083V32.2917L191.762 33.625C188.379 34.9917 188.021 35.3167 186.683 38.05L171.808 72.8792C162.987 92.8667 153.842 94.5583 147.425 94.5583C143.358 94.5625 140.3 93.5208 137.629 91.8292Z" fill="#F45800"/>
</svg>
