<svg width="994" height="300" viewBox="0 0 994 300" fill="none" xmlns="http://www.w3.org/2000/svg">
<g clip-path="url(#clip0_198_2)">
<path d="M616.521 234.368C558.827 276.891 475.203 299.579 403.204 299.579C302.251 299.579 211.366 262.242 142.609 200.142C137.207 195.259 142.047 188.604 148.53 192.407C222.732 235.578 314.481 261.55 409.255 261.55C473.172 261.55 543.485 248.327 608.137 220.885C617.904 216.737 626.072 227.281 616.521 234.368Z" fill="#FF9900"/>
<path d="M640.506 206.929C633.159 197.508 591.758 202.478 573.175 204.681C567.513 205.373 566.649 200.446 571.749 196.903C604.723 173.697 658.83 180.395 665.139 188.174C671.449 195.995 663.497 250.23 632.511 276.115C627.757 280.091 623.219 277.973 625.337 272.701C632.295 255.329 647.896 216.393 640.506 206.929Z" fill="#FF9900"/>
<path d="M574.471 33.0748V10.5168C574.471 7.10287 577.064 4.8125 580.176 4.8125H681.173C684.414 4.8125 687.007 7.14609 687.007 10.5168V29.8337C686.964 33.0748 684.241 37.3099 679.401 44.0081L627.066 118.726C646.513 118.251 667.041 121.146 684.674 131.085C688.649 133.333 689.73 136.617 690.032 139.858V163.929C690.032 167.213 686.402 171.059 682.599 169.071C651.526 152.779 610.255 151.007 575.898 169.244C572.397 171.145 568.724 167.343 568.724 164.058V141.198C568.724 137.524 568.767 131.258 572.44 125.684L633.073 38.7359H580.306C577.064 38.7359 574.471 36.4456 574.471 33.0748Z" fill="#221F1F"/>
<path d="M206.051 173.826H175.324C172.386 173.609 170.052 171.406 169.836 168.597V10.9066C169.836 7.75196 172.472 5.2455 175.757 5.2455H204.409C207.391 5.37506 209.768 7.66551 209.984 10.5177V31.131H210.546C218.022 11.2091 232.068 1.91797 250.997 1.91797C270.228 1.91797 282.242 11.2091 290.885 31.131C298.319 11.2091 315.216 1.91797 333.324 1.91797C346.202 1.91797 360.291 7.23336 368.891 19.1606C378.615 32.4275 376.627 51.7012 376.627 68.5981L376.584 168.121C376.584 171.276 373.947 173.826 370.663 173.826H339.979C336.911 173.609 334.448 171.146 334.448 168.121V84.5442C334.448 77.8892 335.053 61.2948 333.583 54.9855C331.293 44.3979 324.421 41.4161 315.519 41.4161C308.085 41.4161 300.307 46.3858 297.152 54.3373C293.997 62.2888 294.299 75.5988 294.299 84.5442V168.121C294.299 171.276 291.663 173.826 288.379 173.826H257.695C254.583 173.609 252.163 171.146 252.163 168.121L252.12 84.5442C252.12 66.9559 255.016 41.0704 233.191 41.0704C211.108 41.0704 211.972 66.3077 211.972 84.5442V168.121C211.972 171.276 209.336 173.826 206.051 173.826Z" fill="#221F1F"/>
<path d="M773.959 1.91797C819.552 1.91797 844.229 41.0704 844.229 90.8536C844.229 138.951 816.959 177.11 773.959 177.11C729.187 177.11 704.812 137.957 704.812 89.1682C704.812 40.0764 729.489 1.91797 773.959 1.91797ZM774.218 34.1128C751.573 34.1128 750.147 64.968 750.147 84.1985C750.147 103.472 749.844 144.613 773.959 144.613C797.771 144.613 798.895 111.424 798.895 91.1993C798.895 77.8892 798.333 61.9862 794.314 49.3676C790.857 38.3911 783.985 34.1128 774.218 34.1128Z" fill="#221F1F"/>
<path d="M903.349 173.826H872.752C869.683 173.609 867.22 171.146 867.22 168.121L867.177 10.388C867.436 7.49264 869.986 5.2455 873.097 5.2455H901.577C904.256 5.37506 906.46 7.19016 907.066 9.65339V33.7671H907.627C916.227 12.203 928.285 1.91797 949.504 1.91797C963.29 1.91797 976.731 6.88765 985.374 20.5002C993.412 33.1189 993.412 54.3373 993.412 69.592V168.856C993.066 171.622 990.517 173.826 987.491 173.826H956.678C953.869 173.609 951.535 171.535 951.233 168.856V83.2046C951.233 65.962 953.221 40.7247 932.001 40.7247C924.525 40.7247 917.654 45.7376 914.239 53.3433C909.918 62.9802 909.356 72.5738 909.356 83.2046V168.121C909.313 171.276 906.633 173.826 903.349 173.826Z" fill="#221F1F"/>
<path d="M493.959 98.5033V91.8483C471.746 91.8483 448.28 96.6019 448.28 122.79C448.28 136.057 455.151 145.045 466.949 145.045C475.592 145.045 483.328 139.73 488.212 131.087C494.262 120.456 493.959 110.474 493.959 98.5033ZM524.946 173.394C522.914 175.209 519.976 175.339 517.685 174.129C507.486 165.659 505.671 161.726 500.053 153.645C483.199 170.845 471.271 175.987 449.403 175.987C423.56 175.987 403.421 160.041 403.421 128.105C403.421 103.171 416.948 86.1872 436.179 77.89C452.861 70.5435 476.154 69.2471 493.959 67.216V63.2403C493.959 55.937 494.521 47.2941 490.243 40.9848C486.483 35.3236 479.309 32.99 472.999 32.99C461.288 32.99 450.829 38.9969 448.28 51.4427C447.761 54.2084 445.73 56.9309 442.964 57.0606L413.145 53.8627C410.638 53.3009 407.872 51.2698 408.564 47.4237C415.435 11.2964 448.064 0.40625 477.278 0.40625C492.231 0.40625 511.765 4.38199 523.563 15.7042C538.516 29.6625 537.089 48.288 537.089 68.5556V116.437C537.089 130.828 543.053 137.137 548.672 144.916C550.659 147.682 551.092 151.009 548.585 153.083C542.319 158.312 531.169 168.036 525.032 173.481L524.946 173.394Z" fill="#221F1F"/>
<path d="M91.1382 98.5033V91.8483C68.9249 91.8483 45.4583 96.6019 45.4583 122.79C45.4583 136.057 52.3297 145.045 64.1278 145.045C72.7711 145.045 80.5069 139.73 85.3904 131.087C91.4406 120.456 91.1382 110.474 91.1382 98.5033ZM122.124 173.394C120.093 175.209 117.154 175.339 114.864 174.129C104.665 165.659 102.85 161.726 97.2317 153.645C80.3772 170.845 68.4495 175.987 46.5819 175.987C20.7385 175.987 0.599609 160.041 0.599609 128.105C0.599609 103.171 14.1264 86.1872 33.3577 77.89C50.0393 70.5435 73.3329 69.2471 91.1382 67.216V63.2403C91.1382 55.937 91.7 47.2941 87.4215 40.9848C83.6617 35.3236 76.4878 32.99 70.1781 32.99C58.4665 32.99 48.0081 38.9969 45.4583 51.4427C44.9397 54.2084 42.9085 56.9309 40.1427 57.0606L10.3233 53.8627C7.81676 53.3009 5.0509 51.2698 5.74236 47.4237C12.6138 11.2964 45.2422 0.40625 74.4566 0.40625C89.4095 0.40625 108.943 4.38199 120.741 15.7042C135.694 29.6625 134.268 48.288 134.268 68.5556V116.437C134.268 130.828 140.232 137.137 145.85 144.916C147.838 147.682 148.27 151.009 145.764 153.083C139.497 158.312 128.348 168.036 122.211 173.481L122.124 173.394Z" fill="#221F1F"/>
</g>
<defs>
<clipPath id="clip0_198_2">
<rect width="994" height="300" fill="white"/>
</clipPath>
</defs>
</svg>
