<svg width="600" height="138" viewBox="0 0 600 138" fill="none" xmlns="http://www.w3.org/2000/svg">
<path d="M48.3 9C58.8 9 68.4 9.99999 77.1 11.9C85.7 13.8 93.2 17 99.4 21.5C105.7 26 110.5 32.1 113.9 39.8C117.3 47.5 119 57.1 119 68.7C119 78.9 117.3 88.1 114 96.3C110.6 104.5 106 111.5 100.2 117.3C94.4 123.1 87.6 127.6 80 130.6C72.3 133.7 64.2 135.2 55.5 135.2C46.3 135.2 38.5 135.1 32 135C25.5 134.9 19.9 134.8 15.1 134.8H6.8C4.3 134.8 2.1 134.9 0 135.2C0.5 127.6 0.9 119.9 1.1 112C1.3 104.1 1.5 95.1 1.5 84.9V59.9C1.5 49.7 1.4 40.7 1.1 32.8C0.9 24.9 0.5 17 0 9H48.3ZM28.7 98.3V109.3C28.7 112.9 28.7 116.1 28.8 119C28.9 121.9 28.9 123.8 28.9 124.7C30.7 124.8 32.9 124.9 35.5 125.1C38.1 125.2 41.3 125.3 45.1 125.3C58.9 125.3 69.9 120.6 78 111.1C86.1 101.7 90.1 87.4 90.1 68.3C90.1 60.7 89.1 53.9 87.1 47.9C85.1 41.9 82.2 36.8 78.6 32.6C74.9 28.4 70.5 25.1 65.4 22.9C60.3 20.6 54.5 19.5 48.1 19.5C43.7 19.5 40.1 19.6 37.4 19.8C34.6 20 31.9 20.2 29 20.5C29 21.4 29 23.3 28.9 26.2C28.8 29.1 28.8 32.4 28.8 36.1V47.1V56.3V89V98.3H28.7Z" fill="#038654"/>
<path d="M362.399 9C363.599 19.5 364.899 30.9 366.399 43C367.799 55.1 369.199 67 370.499 78.6C371.799 90.2 373.199 101 374.499 111C375.799 121 377.099 129.1 378.199 135.3H348.099C347.499 122.7 346.499 109 345.099 94.3C343.699 79.6 342.299 65 340.799 50.6H340.399C333.399 65.1 326.599 79.3 319.799 93.2C313.099 107.2 306.399 121.2 299.799 135.3H292.799C286.199 121.6 279.599 107.9 272.999 94.1C266.399 80.4 259.699 66.5 252.699 52.4H252.299C250.299 66.5 248.899 80.4 247.899 94.1C246.899 107.8 245.899 121.5 244.999 135.3H227.699C231.599 114.2 235.099 93.3 238.199 72.5C241.299 51.7 244.099 30.5 246.699 9.10001H261.599C264.899 16.4 268.399 23.9 271.999 31.5C275.599 39.1 279.199 46.7 282.799 54.2C286.399 61.7 289.999 69.1 293.599 76.3C297.199 83.5 300.699 90.4 303.999 96.9C311.399 83.2 318.699 68.8 325.999 53.8C333.299 38.8 340.199 23.9 346.899 9.10001H362.399V9Z" fill="#038654"/>
<path d="M391.601 57.4C396.701 53.2 402.301 50 408.201 47.8C414.101 45.6 420.101 44.5 425.901 44.5C430.801 44.5 435.301 45.1 439.401 46.2C443.501 47.3 447.101 49.1 450.101 51.4C453.101 53.8 455.401 56.9 457.101 60.7C458.801 64.5 459.601 69.1 459.601 74.5C459.601 82.3 459.501 89.6 459.301 96.3C459.101 103 459.001 109.6 459.001 116.2C459.001 119.1 459.201 121.4 459.601 123.1C460.001 124.8 460.701 126 461.501 126.9C462.401 127.8 463.501 128.3 464.901 128.6C465.701 128.7 466.601 128.8 467.501 128.9C468.801 129 469.801 130 469.801 131.3C469.801 132.6 469.001 133.7 467.801 134.2C465.101 135.3 462.801 136.1 460.801 136.7C458.301 137.4 455.701 137.8 452.901 137.8C448.401 137.8 444.701 136.7 441.901 134.5C439.101 132.3 436.901 129.1 435.501 124.9C432.701 128.8 429.401 131.9 425.701 134.3C422.001 136.6 417.301 137.8 411.601 137.8C406.901 137.8 403.001 137.2 399.701 136C396.401 134.8 393.701 133 391.501 130.8C389.401 128.5 387.801 126 386.801 123.1C385.801 120.2 385.301 117.3 385.301 114.4C385.301 110.4 385.901 106.9 387.201 103.9C388.501 101 390.301 98.5 392.701 96.4C395.101 94.3 397.901 92.6 401.201 91.2C404.501 89.8 408.201 88.6 412.401 87.6C417.501 86.4 421.601 85.3 424.601 84.4C427.601 83.5 429.801 82.6 431.301 81.6C432.801 80.7 433.701 79.7 434.101 78.6C434.501 77.5 434.701 76.1 434.701 74.5C434.701 71.7 433.901 68.8 432.501 66.4C429.401 61.2 424.201 58.5 417.101 58.5C415.001 58.5 412.901 58.8 410.701 59.3C408.501 59.9 406.401 60.6 404.401 61.6C402.401 62.6 400.501 63.6 398.901 64.8C397.201 66 396.001 67.2 395.101 68.6H393.801L391.601 57.4ZM435.101 107.3C435.101 102 435.101 98 435.201 95.3C435.301 92.5 435.301 90.1 435.301 88C432.701 89.5 430.001 90.7 427.101 91.6C424.201 92.5 421.601 93.7 419.201 95.1C416.801 96.5 414.801 98.4 413.301 100.9C411.801 103.4 411.001 106.9 411.001 111.6C411.001 116.1 411.901 119.6 413.801 122C415.701 124.4 418.201 125.6 421.401 125.6C425.401 125.6 428.701 124.1 431.201 121C433.901 117.9 435.101 113.3 435.101 107.3Z" fill="#038654"/>
<path d="M535.3 72.0996C534.1 71.3996 532.7 70.7996 531.2 70.2996C529.7 69.7996 527.9 69.5996 526 69.5996C520.5 69.5996 516.1 71.3996 512.9 74.9996C509.7 78.5996 508.1 82.8996 508.1 87.7996V95.1996C508.1 102.7 508.2 109.7 508.4 116.3C508.6 122.9 509 129.3 509.6 135.4C508 135.2 506 135 503.6 135H495.8H488.1C485.8 135 483.7 135.1 482 135.4C482.6 129.3 483 122.9 483.2 116.3C483.4 109.7 483.5 102.6 483.5 95.1996V87.7996C483.5 80.2996 483.4 73.2996 483.2 66.7996C483 60.1996 482.6 53.6996 482 46.9996C484.1 47.2996 486.2 47.4996 488.3 47.5996C490.4 47.7996 492.6 47.8996 494.6 47.8996C496.6 47.8996 498.8 47.7996 500.9 47.5996C503 47.3996 505.2 47.1996 507.2 46.9996L506.6 69.3996L507 69.7996C510.2 61.2996 514 55.0996 518.6 51.0996C523.1 47.0996 528.5 45.0996 534.8 45.0996C535.4 45.0996 535.9 45.0996 536.4 45.1996C536.8 45.2996 537.3 45.2996 537.8 45.2996C537.4 47.0996 537.2 49.0996 537 51.1996C536.8 53.2996 536.7 55.6996 536.7 58.5996V64.4996V67.5996C536.7 68.6996 536.8 69.6996 536.9 70.6996C537.3 73.0996 535.3 72.0996 535.3 72.0996Z" fill="#038654"/>
<path d="M598.199 52.7996C598.199 54.3996 598.399 55.8996 598.799 57.3996L582.599 56.9996C582.299 59.7996 582.099 63.0996 581.999 66.6996C581.799 70.3996 581.699 74.0996 581.599 77.8996C581.499 81.6996 581.499 85.3996 581.399 88.8996C581.299 92.4996 581.299 95.4996 581.299 97.8996C581.299 104.3 581.399 109.4 581.799 113.3C582.099 117.2 582.599 120.2 583.399 122.3C584.099 124.4 585.199 125.8 586.499 126.5C587.799 127.2 589.599 127.6 591.599 127.6C593.899 127.6 595.599 127.4 596.699 127.1C597.799 126.8 598.899 126.3 599.999 125.7V133.2C597.499 134.3 594.499 135.3 590.799 136.1C587.099 137 583.499 137.4 579.999 137.4C564.399 137.4 556.699 128.1 556.699 109.5C556.699 105.9 556.799 101.9 556.899 97.4996C556.999 93.0996 557.199 88.3996 557.399 83.6996C557.599 78.9996 557.699 74.2996 557.899 69.6996C558.099 65.0996 558.099 60.7996 558.099 56.8996L545.199 57.0996C545.599 55.5996 545.799 54.0996 545.799 52.4996C545.799 50.9996 545.599 49.3996 545.199 47.4996L558.099 48.0996C558.099 44.2996 557.999 40.6996 557.899 37.3996C557.799 34.0996 557.599 30.0996 557.299 25.4996C561.599 23.7996 565.799 21.9996 569.999 20.0996C574.199 18.1996 578.299 16.1996 582.499 14.0996L584.299 15.3996C583.999 17.3996 583.799 19.6996 583.699 22.2996C583.499 24.8996 583.299 27.6996 583.199 30.5996C582.999 33.4996 582.899 36.3996 582.799 39.3996C582.699 42.3996 582.699 45.2996 582.699 47.8996L598.899 47.4996C598.399 49.5996 598.199 51.2996 598.199 52.7996Z" fill="#038654"/>
<path d="M177.7 11.5004C177.7 13.5004 176.1 15.1004 174.1 15.1004C172.1 15.1004 170.5 13.5004 170.5 11.5004C170.5 9.5004 172.1 7.90039 174.1 7.90039C176.1 7.90039 177.7 9.5004 177.7 11.5004Z" fill="#038654"/>
<path d="M111 135.6H219.6L216.4 128H114.2L111 135.6Z" fill="#038654"/>
<path d="M116.4 122.9H214.2L211 115.4H119.6L116.4 122.9Z" fill="#038654"/>
<path d="M121.9 110.1H208.7L206.1 103.9H124.6L121.9 110.1Z" fill="#038654"/>
<path d="M127 98.3992H203.7L201.3 92.6992H129.4L127 98.3992Z" fill="#038654"/>
<path d="M132.301 85.8996H198.401L196.801 82.0996H133.901L132.301 85.8996Z" fill="#038654"/>
<path d="M137.199 74.3996H193.499L191.899 70.5996H138.799L137.199 74.3996Z" fill="#038654"/>
<path d="M141.301 64.7008H189.401L187.701 60.8008H143.001L141.301 64.7008Z" fill="#038654"/>
<path d="M146.301 53.1996H184.501L183.101 50.0996H147.601L146.301 53.1996Z" fill="#038654"/>
<path d="M158.8 11.5004C158.8 13.5004 157.2 15.1004 155.2 15.1004C153.2 15.1004 151.6 13.5004 151.6 11.5004C151.6 9.5004 153.2 7.90039 155.2 7.90039C157.2 7.90039 158.8 9.5004 158.8 11.5004Z" fill="#038654"/>
<path d="M164.9 0L161.4 15.4C161.1 16.9 159.7 17.9 158.2 17.8L141.9 17L155.2 23.8C156.6 24.5 157.2 26.1 156.7 27.6L151 43.9C151 43.9 163 38.5 164.7 25.8C164.7 25.8 166.1 37.9 177.9 43.9L172.8 27.6C172.3 26.1 173 24.6 174.3 23.9L187.7 17L171.7 17.8C170.2 17.9 168.8 16.9 168.5 15.4L164.9 0Z" fill="#038654"/>
</svg>
