<svg width="900" height="237" viewBox="0 0 900 237" fill="none" xmlns="http://www.w3.org/2000/svg">
<g clip-path="url(#clip0_191_202)">
<path d="M899.824 41.0715C899.724 40.7365 899.623 40.4014 899.489 40.0664C820.031 40.0999 740.606 40.0664 661.181 40.0999C660.979 40.3344 660.845 40.569 660.812 40.8705C660.812 102.416 660.812 163.927 660.777 225.472C661.28 228.755 663.092 231.737 665.507 233.982C665.608 234.016 665.843 234.048 665.943 234.082C667.184 235.388 668.962 236.026 670.639 236.629C671.88 236.562 673.088 237.098 674.329 236.964H772.939C773.878 236.93 774.85 237.098 775.756 236.729C775.79 236.596 775.823 236.361 775.856 236.227C775.891 236.059 775.923 235.691 775.957 235.49C778.071 223.697 780.116 211.87 782.364 200.078L782.565 198.57C773.442 198.536 764.285 198.57 755.163 198.536C752.949 198.469 750.668 198.536 748.454 198.268C744.665 198.1 740.841 198.234 737.051 197.866C732.355 197.866 727.693 197.43 722.997 197.43C719.308 197.061 715.585 197.196 711.862 197.028C709.447 196.727 706.965 196.861 704.517 196.76C700.525 196.325 696.467 196.627 692.476 196.191C688.249 196.225 684.023 195.856 679.797 195.755C679.831 195.721 679.864 195.587 679.864 195.554C681.273 195.587 682.648 195.487 684.057 195.454C687.176 195.051 690.329 195.32 693.448 194.884C696.702 194.884 699.922 194.449 703.175 194.449C706.06 194.046 708.978 194.281 711.862 193.879C715.25 193.879 718.57 193.443 721.958 193.41C724.742 193.041 727.559 193.242 730.343 192.874C733.597 192.907 736.817 192.405 740.07 192.438C743.257 192.069 746.509 192.169 749.696 191.834C749.395 190.596 749.159 189.356 748.891 188.115C748.657 187.345 747.718 187.513 747.114 187.412C739.835 186.373 732.591 185.335 725.346 184.33C725.815 183.961 726.453 184.128 726.989 184.062C732.624 183.626 738.225 183.123 743.86 182.721C745.135 182.655 746.376 182.42 747.65 182.386C747.08 180.645 746.745 178.735 745.973 177.127C733.933 175.284 721.891 173.642 709.883 171.665C713.003 171.163 716.155 170.929 719.275 170.594L719.543 170.493C729.505 169.454 739.5 168.281 749.462 167.31C762.106 167.243 774.718 167.276 787.363 167.31C787.765 167.243 788.47 167.443 788.537 166.874C789.577 161.447 790.583 156.02 791.622 150.592C793.064 143.054 795.345 135.616 798.867 128.748C804.401 117.692 813.155 108.311 823.821 102.08C833.782 96.2504 845.321 93.4361 856.792 92.9001C860.515 92.565 864.272 92.6655 867.961 93.1346C870.376 93.7041 872.858 94.3742 874.77 96.0159C876.346 97.289 877.286 99.1651 877.99 101.041C879.534 105.497 880.405 110.121 881.143 114.778C881.176 116.654 881.512 118.764 880.506 120.473C879.566 122.148 877.689 122.952 875.911 123.455C869.437 125.13 862.662 123.555 856.188 125.13C850.856 126.269 845.892 129.217 842.504 133.472C838.513 138.43 836.399 144.594 835.225 150.76C834.32 156.254 833.179 161.749 832.274 167.277C838.646 167.311 845.053 167.243 851.459 167.311C854.008 167.311 856.624 168.717 857.664 171.129C859.006 174.212 858.704 177.697 858.268 180.946C857.731 184.598 856.859 188.216 855.216 191.566C853.84 194.414 851.56 197.028 848.44 198.033C846.83 198.669 845.086 198.535 843.376 198.535C837.74 198.535 832.105 198.602 826.471 198.535C825.565 202.656 824.962 206.877 824.157 211.065C822.682 219.206 821.239 227.381 819.763 235.556C819.729 235.824 819.696 236.394 819.696 236.695C822.346 236.829 824.995 236.695 827.645 236.762C847.3 236.762 866.989 236.728 886.677 236.762C888.79 236.829 890.937 236.327 892.782 235.288C893.888 234.886 894.559 233.914 895.532 233.378C896.471 232.842 896.739 231.737 897.544 231.033C898.416 229.492 899.322 227.885 899.389 226.074C899.49 226.074 899.758 226.041 899.892 226.008C899.79 164.363 899.892 102.717 899.824 41.0715Z" fill="url(#paint0_linear_191_202)" stroke="#FCD109" stroke-width="0.094"/>
<path d="M692.073 0.531991C694.924 -0.372592 697.91 0.230463 700.828 0.0294446C755.601 0.0629476 810.373 0.0294446 865.145 0.0294446C868.398 -0.104568 871.249 1.7381 874.268 2.67619C876.683 3.64778 879.199 4.41835 881.613 5.45694C882.117 5.65796 882.486 6.0935 882.854 6.46203C882.82 10.8844 882.854 15.3403 882.854 19.7963C882.888 20.9689 882.686 22.175 883.089 23.3141C883.794 23.4146 884.162 23.9506 884.632 24.3862C886.846 25.3913 888.723 27.0329 890.736 28.373C893.755 30.5172 896.975 32.3934 899.926 34.6046C900.06 35.4757 899.96 36.3803 899.691 37.1843C899.39 38.1224 899.591 39.1275 899.49 40.0656C820.032 40.0991 740.607 40.0656 661.182 40.0991C661.014 38.9935 661.316 37.8879 660.846 36.8493C660.779 35.9782 660.477 34.8391 661.316 34.2361C664.67 31.8909 668.225 29.7802 671.512 27.3009C673.558 25.9943 675.536 24.6542 677.515 23.3141C677.918 22.644 677.784 21.8064 677.784 21.0694C677.784 16.2114 677.784 11.3535 677.817 6.49554C678.958 5.0214 680.937 4.85389 682.513 4.11682C685.701 2.91071 688.921 1.7381 692.073 0.531991ZM692.275 1.10154C687.981 2.74319 683.655 4.31784 679.361 5.95949C678.791 6.06 678.489 6.56254 678.188 6.99808C678.221 7.26611 678.255 7.73515 678.255 8.00317C678.22 12.0235 678.255 16.0439 678.22 20.0643C678.255 21.0694 678.12 22.0745 678.489 22.979C678.053 23.4146 677.584 23.8501 677.046 24.1852C672.183 27.3344 667.487 30.7518 662.624 33.8675C661.785 34.3701 660.846 35.0401 661.114 36.1457C660.947 36.7488 661.249 37.2514 661.886 37.0838C672.418 37.0168 682.916 37.1508 693.449 36.9833C709.112 36.9833 724.742 37.0168 740.406 36.9833L740.641 36.8828C741.345 37.0503 742.049 36.9833 742.787 36.9833C771.162 36.9833 799.538 37.0168 827.947 36.9833C836.869 37.0168 845.825 36.9833 854.78 36.9833C869.538 36.9833 884.33 37.1173 899.088 37.0503C899.524 36.9498 899.658 36.6483 899.49 36.1122C899.456 35.5762 899.658 34.8391 899.088 34.5041C896.74 33.3985 894.727 31.6898 892.48 30.3497C891.676 29.6797 890.635 29.3111 890.032 28.4065C887.717 27.0999 885.571 25.4918 883.29 24.0511C882.853 23.7831 882.518 23.3476 882.149 22.979C882.351 22.2755 882.418 21.5049 882.418 20.7678C882.384 16.513 882.418 12.2581 882.384 8.00317C882.485 7.33311 882.451 6.56254 881.847 6.127C877.822 4.68637 873.831 3.14523 869.839 1.6711C868.598 1.06804 867.223 0.733009 865.881 0.531991H694.454C693.717 0.565494 693.013 0.934028 692.275 1.10154Z" fill="#F8F3B5" stroke="#F8F3B5" stroke-width="0.094"/>
<path d="M678.253 8.00391C681.205 9.24352 684.357 9.94708 687.343 11.1532C688.953 11.7898 689.456 13.5319 690.16 14.939C689.455 15.6426 688.616 16.2122 687.778 16.7482C684.692 18.8254 681.539 20.8356 678.487 22.9798C678.118 22.0752 678.253 21.0701 678.219 20.065C678.253 16.0446 678.219 12.0243 678.253 8.00391ZM873.293 11.1532C876.278 9.98059 879.397 9.17651 882.383 8.00391C882.417 12.2588 882.383 16.5137 882.417 20.7686C882.417 21.5056 882.35 22.2762 882.148 22.9798C879.532 21.1706 876.883 19.462 874.266 17.6863C872.992 16.7482 871.583 16.0446 870.443 14.9055C871.147 13.4984 871.684 11.7898 873.293 11.1532Z" fill="#F7B402" stroke="#F7B402" stroke-width="0.094"/>
<path d="M729.438 12.527C733.127 11.6559 737.253 14.9392 736.951 18.792C736.984 22.5779 732.992 25.6602 729.337 24.7891C727.861 24.2865 726.452 23.516 725.547 22.2093C724.373 20.4337 724.104 18.055 725.044 16.1118C725.715 14.2356 727.526 12.9625 729.438 12.527ZM825.13 14.6376C826.673 12.929 829.121 11.9574 831.402 12.5605C833.113 13.063 834.79 14.1686 835.528 15.8438C837.004 18.725 835.863 22.6114 832.979 24.119C830.429 25.5261 827.21 24.8561 825.264 22.8124C823.285 20.5677 823.151 16.8824 825.13 14.6376Z" fill="#BDA727" stroke="#BDA727" stroke-width="0.094"/>
<path d="M687.78 16.747C688.619 16.2109 689.457 15.6414 690.162 14.9378L690.396 15.1723C690.631 16.9145 690.463 18.6901 690.53 20.4323C690.43 25.6588 690.631 30.9188 690.396 36.1452C680.636 36.1452 670.876 36.0782 661.115 36.1452C660.847 35.0396 661.786 34.3696 662.624 33.867C667.488 30.7512 672.184 27.3339 677.047 24.1846C677.584 23.8496 678.053 23.4141 678.489 22.9785C681.542 20.8343 684.694 18.8242 687.78 16.747ZM870.108 16.0769C870.108 15.6414 870.209 15.2728 870.444 14.9043C871.584 16.0434 872.993 16.747 874.267 17.6851C876.883 19.4607 879.533 21.1694 882.149 22.9785C882.518 23.3471 882.854 23.7826 883.289 24.0506C885.571 25.4913 887.716 27.0994 890.031 28.406C890.635 29.3106 891.675 29.6792 892.48 30.3492C894.727 31.6893 896.74 33.398 899.088 34.5036C899.658 34.8386 899.456 35.5757 899.49 36.1117C889.729 36.1452 880.002 36.0782 870.242 36.1452C870.075 34.8051 870.175 33.465 870.142 32.1584C870.142 26.7979 870.075 21.4374 870.108 16.0769Z" fill="#F7E62D" stroke="#F7E62D" stroke-width="0.094"/>
<path d="M899.489 36.1115C889.728 36.145 880.001 36.078 870.241 36.145C870.074 34.8049 870.174 33.4648 870.141 32.1581C870.141 26.7977 870.074 21.4372 870.107 16.0767C870.107 15.6411 870.208 15.2726 870.442 14.9041C871.147 13.4969 871.683 11.7883 873.293 11.1517C876.278 9.97911 879.397 9.17504 882.383 8.00243C882.484 7.33237 882.45 6.5618 881.846 6.12626C877.821 4.68563 873.83 3.14449 869.838 1.67035C868.597 1.0673 867.222 0.732268 865.88 0.53125H694.453C693.715 0.564753 693.01 0.933287 692.272 1.1008C687.979 2.74245 683.652 4.3171 679.359 5.95875C678.789 6.05926 678.486 6.5618 678.185 6.99734C678.219 7.26537 678.252 7.73441 678.252 8.00243C681.204 9.24205 684.356 9.94561 687.342 11.1517C688.952 11.7883 689.455 13.5304 690.159 14.9376L690.393 15.1721C690.628 16.9142 690.46 18.6899 690.528 20.4321C690.427 25.6585 690.628 30.9185 690.393 36.145C680.633 36.145 670.873 36.078 661.112 36.145C660.944 36.7481 661.246 37.2506 661.884 37.0831C672.415 37.0161 682.914 37.1501 693.446 36.9826C709.11 36.9826 724.74 37.0161 740.404 36.9826L740.638 36.8821C741.343 37.0496 742.046 36.9826 742.784 36.9826C771.16 36.9826 799.536 37.0161 827.945 36.9826C836.867 37.0161 845.822 36.9826 854.777 36.9826C869.535 36.9826 884.327 37.1166 899.085 37.0496C899.523 36.9491 899.657 36.6476 899.489 36.1115ZM725.043 16.1102C725.713 14.234 727.524 12.9609 729.436 12.5253C733.126 11.6543 737.251 14.9376 736.95 18.7904C736.983 22.5763 732.991 25.6585 729.336 24.7875C727.86 24.2849 726.451 23.5144 725.546 22.2077C724.372 20.4321 724.103 18.0534 725.043 16.1102ZM825.129 14.636C826.672 12.9274 829.12 11.9558 831.401 12.5588C833.112 13.0614 834.789 14.167 835.526 15.8422C837.002 18.7234 835.862 22.6098 832.977 24.1174C830.428 25.5245 827.208 24.8545 825.263 22.8108C823.284 20.5661 823.149 16.8807 825.129 14.636Z" fill="url(#paint1_radial_191_202)" stroke="#FCD109" stroke-width="0.094"/>
<path d="M833.679 50.8365C834.148 50.937 831.235 48.0403 831.805 47.9063C832.341 47.9733 834.376 46.3956 836.836 47.6828C839.295 48.97 838.685 51.9823 838.406 53.0993C838.074 54.4287 837.227 55.277 836.556 55.947C836.187 56.2486 835.36 56.7176 834.857 56.6841C835.159 55.0424 834.186 54.7744 834.119 53.0993L833.679 50.8365Z" fill="url(#paint2_linear_191_202)" stroke="#FCD109" stroke-width="0.094"/>
<path d="M726.458 52.6522C726.391 54.3274 725.417 54.5954 725.72 56.237C725.217 56.2705 724.389 55.8015 724.02 55.5C723.35 54.8299 722.503 53.9816 722.171 52.6522C721.892 51.5356 721.281 48.5233 723.741 47.2358C726.201 45.9482 728.236 47.5259 728.772 47.4592C729.342 47.5932 726.429 50.4899 726.898 50.3894L726.458 52.6522Z" fill="url(#paint3_linear_191_202)" stroke="#FCD109" stroke-width="0.094"/>
<path d="M829.287 72.2969C829.791 71.8594 830.126 71.8594 830.797 71.8594C826.772 80.5702 822.077 89.281 815.017 96.063C814.261 96.7363 813.464 97.3605 812.629 97.9318C811.82 98.5225 811.028 99.0766 810.24 99.6411C809.469 100.176 808.702 100.714 807.955 101.275C806.044 102.314 804.367 103.755 802.254 104.391C798.396 106.234 794.238 107.473 790.045 108.345C788.402 108.613 786.725 109.015 785.048 109.048C782.968 109.652 780.754 109.216 778.641 109.35C777.467 109.551 776.427 108.881 775.287 109.015C774.298 108.875 773.311 108.707 772.33 108.512C771.334 108.309 770.345 108.074 769.364 107.808C753.988 103.017 738.895 91.2912 734.498 75.4325C734.3 74.3645 734.2 73.2806 734.199 72.1944C734.668 73.1325 735.155 74.0639 735.659 74.9866C741.914 88.6109 754.324 99.3319 768.985 102.565C770.175 103.107 771.463 102.917 772.604 103.386C773.644 103.386 774.65 103.352 775.656 103.687C779.111 103.754 782.566 103.721 786.02 103.721C786.489 103.754 786.925 103.52 787.396 103.419C793.153 103.224 798.795 101.656 804.048 99.2769C805.099 98.8012 806.134 98.293 807.151 97.7569C808.042 97.2887 808.911 96.7814 809.757 96.2365C810.587 95.7017 811.395 95.1321 812.177 94.5292C818.387 89.616 823.754 83.2504 827.398 75.9303C828.091 74.613 828.726 73.3931 829.287 72.2969Z" fill="#BDA727" stroke="#BDA727" stroke-width="0.094"/>
<path d="M823.82 102.08C833.782 96.2507 845.32 93.4365 856.791 92.9004C860.514 92.5654 864.271 92.6659 867.961 93.1349C870.375 93.7045 872.858 94.3745 874.769 96.0162C873.797 96.0832 872.858 95.6477 871.885 95.5136C869.134 94.9776 866.283 95.1786 863.5 95.1116C855.416 95.1116 847.266 95.7482 839.451 97.9594C835.359 99.199 831.267 100.64 827.544 102.784C821.104 106.335 815.301 111.026 810.605 116.654C802.22 126.27 797.29 138.465 794.908 150.895C793.768 157.561 792.459 164.194 791.42 170.895C789.743 171.062 788.032 170.962 786.355 170.962C778.976 170.929 771.597 170.895 764.218 170.829C762.642 170.895 761.098 170.527 759.523 170.627C746.106 170.694 732.69 170.594 719.273 170.594L719.542 170.493C729.503 169.454 739.499 168.281 749.46 167.31C762.105 167.243 774.717 167.276 787.362 167.31C787.763 167.243 788.468 167.443 788.536 166.874C789.575 161.447 790.582 156.02 791.621 150.592C793.064 143.054 795.344 135.616 798.866 128.748C804.4 117.692 813.155 108.311 823.82 102.08Z" fill="#0D69B3" stroke="#0D69B3" stroke-width="0.094"/>
<path d="M839.452 97.9591C847.267 95.7479 855.417 95.1113 863.501 95.1113C866.285 95.1783 869.136 94.9773 871.886 95.5134C872.858 95.6474 873.797 96.0829 874.77 96.0159C876.347 97.289 877.286 99.1652 877.99 101.041C879.534 105.497 880.405 110.121 881.143 114.778C881.177 116.654 881.512 118.764 880.506 120.473C879.567 122.148 877.689 122.952 875.911 123.455C869.437 125.13 862.663 123.555 856.189 125.13C850.856 126.269 845.892 129.217 842.504 133.472C838.513 138.43 836.4 144.594 835.226 150.76C834.32 156.254 833.18 161.749 832.274 167.277C831.872 168.517 831.637 169.857 831.402 171.164C837.741 171.264 844.08 171.164 850.42 171.23C852.834 171.164 855.249 171.297 857.665 171.129C859.006 174.212 858.704 177.697 858.268 180.946C857.732 184.598 856.86 188.216 855.216 191.566C853.84 194.414 851.56 197.028 848.441 198.033C846.831 198.669 845.087 198.535 843.376 198.535C837.741 198.535 832.106 198.602 826.471 198.535C825.566 202.656 824.962 206.878 824.157 211.065C822.682 219.206 821.239 227.381 819.763 235.556C819.73 235.825 819.696 236.394 819.696 236.695V236.729C805.039 236.729 790.415 236.763 775.758 236.729C775.791 236.595 775.825 236.36 775.858 236.226C775.892 236.059 775.925 235.69 775.959 235.49C775.993 235.758 776.026 236.26 776.06 236.495C776.965 236.595 778.609 237.064 778.844 235.758C781.125 223.428 783.238 211.032 785.586 198.703C784.68 198.502 783.741 198.502 782.802 198.669C782.668 199.138 782.533 199.607 782.366 200.076L782.567 198.568C773.445 198.534 764.287 198.568 755.165 198.534C752.95 198.468 750.67 198.534 748.457 198.267C744.666 198.099 740.843 198.233 737.053 197.864C732.357 197.864 727.695 197.429 722.999 197.429C719.309 197.06 715.586 197.194 711.863 197.027C709.449 196.726 706.966 196.859 704.519 196.759C700.527 196.323 696.469 196.626 692.477 196.189C688.251 196.223 684.025 195.854 679.799 195.754C679.832 195.72 679.866 195.586 679.866 195.553C681.275 195.586 682.65 195.485 684.059 195.452C687.178 195.05 690.331 195.318 693.45 194.883C696.703 194.883 699.923 194.447 703.177 194.447C706.061 194.045 708.979 194.279 711.863 193.878C715.252 193.878 718.572 193.442 721.96 193.409C724.744 193.04 727.561 193.241 730.345 192.873C733.599 192.906 736.818 192.404 740.072 192.437C743.258 192.068 746.511 192.168 749.698 191.833C749.396 190.594 749.161 189.355 748.893 188.114C748.658 187.344 747.719 187.511 747.116 187.411C739.837 186.372 732.592 185.333 725.347 184.328C725.817 183.959 726.454 184.127 726.991 184.061C732.626 183.624 738.227 183.122 743.862 182.721C745.137 182.653 746.378 182.419 747.652 182.385C747.082 180.643 746.747 178.734 745.975 177.125C733.935 175.282 721.893 173.641 709.885 171.664C713.004 171.162 716.157 170.927 719.277 170.592C732.693 170.592 746.109 170.693 759.526 170.626C761.101 170.525 762.645 170.894 764.221 170.827C771.6 170.894 778.979 170.928 786.358 170.961C788.036 170.961 789.746 171.061 791.423 170.894C792.463 164.193 793.771 157.559 794.911 150.893C797.293 138.463 802.223 126.268 810.609 116.653C815.304 111.024 821.107 106.334 827.547 102.783C831.268 100.639 835.36 99.1987 839.452 97.9591Z" fill="#107BD4" stroke="#107BD4" stroke-width="0.094"/>
<path d="M832.274 167.277C838.647 167.312 845.054 167.244 851.46 167.312C854.009 167.312 856.625 168.718 857.665 171.13C855.25 171.298 852.835 171.164 850.42 171.231C844.081 171.164 837.741 171.265 831.402 171.164C831.637 169.857 831.871 168.517 832.274 167.277ZM782.801 198.67C783.74 198.503 784.68 198.503 785.585 198.704C783.237 211.033 781.124 223.429 778.844 235.759C778.609 237.065 776.965 236.596 776.06 236.495C776.025 236.261 775.993 235.759 775.959 235.49C778.072 223.698 780.117 211.871 782.365 200.078C782.533 199.608 782.667 199.139 782.801 198.67Z" fill="#0D69B3" stroke="#0D69B3" stroke-width="0.094"/>
<path d="M835.206 51.773C834.938 51.2705 834.905 50.6674 834.905 50.0979L834.636 50.1314C834.234 48.6572 832.993 47.2501 831.383 47.1831C830.175 47.0826 828.666 47.1161 827.962 48.2552C826.621 50.0643 827.257 52.3761 827.19 54.4197C827.19 54.5538 827.224 54.7883 827.224 54.9223C827.224 56.2959 827.057 57.636 826.822 58.9762C826.621 59.3782 826.52 59.8137 826.52 60.2828C825.95 63.4321 824.809 66.5479 823.267 69.3956C822.965 69.7976 822.73 70.2332 822.63 70.7022C821.624 72.4444 820.416 74.0525 819.175 75.6607C818.974 75.8282 818.806 76.0292 818.638 76.2302C817.766 77.3023 816.827 78.2069 815.854 79.145C815.62 79.279 815.452 79.4465 815.25 79.5805C814.11 80.6861 812.835 81.7247 811.46 82.5623C811.292 82.6628 811.125 82.7968 810.923 82.9308C802.336 88.5929 791.906 90.9381 781.742 91.0386C773.123 91.3066 764.435 89.464 756.654 85.7451C756.52 85.6781 756.185 85.5441 756.05 85.4771C754.742 84.7735 753.4 84.1705 752.193 83.2994C751.924 83.1654 751.656 82.9979 751.354 82.8638C750.113 82.1268 748.939 81.3227 747.832 80.3846C747.463 80.0496 747.061 79.7816 746.658 79.48C745.451 78.5084 744.21 77.4699 743.171 76.2972C742.902 75.9957 742.633 75.7277 742.366 75.4597C738.71 71.6738 735.859 67.0504 734.35 62.0249C732.907 58.0381 733.109 53.6827 732.941 49.4948C731.733 47.6521 729.185 46.6135 727.172 47.7526C726.334 48.3557 726.233 49.4613 725.596 50.2319C724.556 61.2879 729.285 72.3104 736.832 80.2841C736.832 80.5521 736.966 80.7197 737.202 80.8202C738.543 82.0598 739.851 83.3329 741.192 84.539C741.427 84.7735 741.696 85.008 741.997 85.2091C743.339 86.3147 744.781 87.3198 746.19 88.3583C746.458 88.5594 746.727 88.7269 747.029 88.8944C748.873 89.9665 750.617 91.2396 752.596 91.9767C752.731 92.0772 752.965 92.2447 753.1 92.3117C759.472 95.3605 766.348 97.4377 773.392 98.1077C774.163 98.1077 774.935 98.1747 775.706 98.3423C779.06 98.5433 782.414 98.4428 785.768 98.3758C796.132 97.4712 806.832 94.9585 815.486 88.8609L815.586 88.9949C815.855 88.7604 816.089 88.5594 816.358 88.3583C817.734 87.3533 819.075 86.2812 820.417 85.1756C820.718 84.941 821.053 84.673 821.356 84.3715C822.831 82.7633 824.542 81.2892 825.783 79.4465L825.985 79.547C826.085 79.3795 826.253 79.0445 826.354 78.877C827.494 77.3358 828.534 75.7277 829.541 74.1195C829.607 74.019 829.775 73.8515 829.842 73.751L829.708 73.617C829.809 73.483 830.044 73.215 830.144 73.0809C831.989 69.3286 833.632 65.4087 834.203 61.2544C834.438 61.1539 834.572 60.9528 834.572 60.7183C834.606 59.3782 835.075 58.1051 834.941 56.765C835.24 55.1233 835.274 53.4482 835.206 51.773Z" fill="white" stroke="white" stroke-width="0.094"/>
<mask id="mask0_191_202" style="mask-type:luminance" maskUnits="userSpaceOnUse" x="725" y="47" width="111" height="52">
<path d="M835.206 51.773C834.938 51.2705 834.905 50.6674 834.905 50.0979L834.636 50.1314C834.234 48.6572 832.993 47.2501 831.383 47.1831C830.175 47.0826 828.666 47.1161 827.962 48.2552C826.621 50.0643 827.257 52.3761 827.19 54.4197C827.19 54.5538 827.224 54.7883 827.224 54.9223C827.224 56.2959 827.057 57.636 826.822 58.9762C826.621 59.3782 826.52 59.8137 826.52 60.2828C825.95 63.4321 824.809 66.5479 823.267 69.3956C822.965 69.7976 822.73 70.2332 822.63 70.7022C821.624 72.4444 820.416 74.0525 819.175 75.6607C818.974 75.8282 818.806 76.0292 818.638 76.2302C817.766 77.3023 816.827 78.2069 815.854 79.145C815.62 79.279 815.452 79.4465 815.25 79.5805C814.11 80.6861 812.835 81.7247 811.46 82.5623C811.292 82.6628 811.125 82.7968 810.923 82.9308C802.336 88.5929 791.906 90.9381 781.742 91.0386C773.123 91.3066 764.435 89.464 756.654 85.7451C756.52 85.6781 756.185 85.5441 756.05 85.4771C754.742 84.7735 753.4 84.1705 752.193 83.2994C751.924 83.1654 751.656 82.9979 751.354 82.8638C750.113 82.1268 748.939 81.3227 747.832 80.3846C747.463 80.0496 747.061 79.7816 746.658 79.48C745.451 78.5084 744.21 77.4699 743.171 76.2972C742.902 75.9957 742.633 75.7277 742.366 75.4597C738.71 71.6738 735.859 67.0504 734.35 62.0249C732.907 58.0381 733.109 53.6827 732.941 49.4948C731.733 47.6521 729.185 46.6135 727.172 47.7526C726.334 48.3557 726.233 49.4613 725.596 50.2319C724.556 61.2879 729.285 72.3104 736.832 80.2841C736.832 80.5521 736.966 80.7197 737.202 80.8202C738.543 82.0598 739.851 83.3329 741.192 84.539C741.427 84.7735 741.696 85.008 741.997 85.2091C743.339 86.3147 744.781 87.3198 746.19 88.3583C746.458 88.5594 746.727 88.7269 747.029 88.8944C748.873 89.9665 750.617 91.2396 752.596 91.9767C752.731 92.0772 752.965 92.2447 753.1 92.3117C759.472 95.3605 766.348 97.4377 773.392 98.1077C774.163 98.1077 774.935 98.1747 775.706 98.3423C779.06 98.5433 782.414 98.4428 785.768 98.3758C796.132 97.4712 806.832 94.9585 815.486 88.8609L815.586 88.9949C815.855 88.7604 816.089 88.5594 816.358 88.3583C817.734 87.3533 819.075 86.2812 820.417 85.1756C820.718 84.941 821.053 84.673 821.356 84.3715C822.831 82.7633 824.542 81.2892 825.783 79.4465L825.985 79.547C826.085 79.3795 826.253 79.0445 826.354 78.877C827.494 77.3358 828.534 75.7277 829.541 74.1195C829.607 74.019 829.775 73.8515 829.842 73.751L829.708 73.617C829.809 73.483 830.044 73.215 830.144 73.0809C831.989 69.3286 833.632 65.4087 834.203 61.2544C834.438 61.1539 834.572 60.9528 834.572 60.7183C834.606 59.3782 835.075 58.1051 834.941 56.765C835.24 55.1233 835.274 53.4482 835.206 51.773Z" fill="white"/>
</mask>
<g mask="url(#mask0_191_202)">
<path d="M723.02 50.6406C725.738 51.4926 731.985 49.3491 733.753 51.3107M724.585 58.9045C727.19 57.9989 732.777 55.8547 735.094 57.1178M727.268 67.1687C728.528 67.5761 731.01 65.3659 732.244 64.7183C734.078 63.7544 735.961 63.0157 738.001 62.7018M731.293 75.8795C732.592 74.0355 734.147 72.5041 736.024 71.1941C737.884 69.8962 742.973 66.4283 745.157 67.6153M735.094 82.1335C736.569 80.9626 737.169 78.8914 738.717 77.6612C740.59 76.173 743.46 75.906 745.38 74.986M741.411 86.7677C741.852 83.5286 745.145 79.6198 748.287 79.8995M746.274 91.2909C747.935 91.1248 749.339 87.4126 750.462 86.1546C752.144 84.27 753.887 83.6904 756.113 83.0267M755.889 95.3113C755.782 92.9674 758.207 86.247 761.033 86.6005M763.045 97.5449C762.927 94.7749 764.361 86.443 767.741 86.1539M770.424 102.012C769.783 98.1383 769.825 92.5346 772.883 89.7273M779.592 102.905C779.251 99.6764 776.039 93.149 779.592 90.6209M789.43 100.672C787.897 98.8958 787.005 91.8903 787.641 89.9508M798.822 99.1082C797.639 96.963 796.173 94.9484 795.725 92.4582C795.458 90.97 795.927 88.8499 795.691 87.7172M806.648 95.7579C804.083 94.0817 803.371 87.9212 804.188 85.2604M814.251 92.4076C812.426 88.4974 810.48 85.4658 810.449 81.0165M821.63 85.2604C818.794 83.3551 815.176 79.8915 815.592 76.103M829.456 79.2298C825.148 78.2763 819.977 74.4258 817.381 70.9656M833.034 71.8591C829.926 71.1934 819.656 67.1915 820.288 63.1484M836.388 64.0419C832.058 62.4562 825.758 61.0306 822.3 58.0113M838.623 56.8943C835.896 57.1275 831.988 55.8085 829.216 55.3307C826.138 54.8004 823.284 53.7641 820.288 53.0971M835.94 49.9706C830.679 50.2852 825.743 48.4871 820.959 46.8438" stroke="#D1D1D1" stroke-width="2"/>
</g>
<path d="M162.789 66.0813C167.65 65.3486 173.244 64.8906 177.37 67.9132C179.938 69.8363 180.855 73.3169 180.671 76.432C180.855 81.5614 178.471 87.0575 173.886 89.7143C169.851 91.9128 164.991 92.0951 160.497 91.6374C157.471 91.2716 154.445 89.6232 152.886 86.8749C149.4 78.9056 153.71 67.6385 162.789 66.0813ZM17.3456 71.8522C17.6203 69.1039 20.0967 66.6307 22.9393 66.7229C44.1237 66.7229 65.2157 66.814 86.3079 66.7229C88.6004 66.5396 91.0767 67.5467 92.1765 69.5619C93.7352 72.3102 92.36 75.3328 92.1765 78.1729C91.5352 82.0193 91.718 87.1497 87.2252 88.6148C71.8185 89.0727 56.4118 88.6148 41.0051 88.798C39.538 98.5072 38.1625 108.125 36.6948 117.743C36.6948 118.11 36.787 118.935 36.787 119.3C48.0665 119.209 59.346 119.3 70.6255 119.209C73.7438 119.026 77.0446 121.683 76.7695 124.98C76.4948 128.369 75.7609 131.667 75.3028 135.056C74.9352 137.346 73.1015 139.453 70.717 139.911C58.1533 140.186 45.406 139.636 32.8436 140.186C30.8254 154.017 28.441 167.848 26.3316 181.681C26.0572 184.429 23.8556 186.811 21.1046 186.901C15.878 186.993 10.6501 186.993 5.42352 186.901C2.03052 186.993 -0.720869 183.237 0.195805 180.031C5.79145 143.942 11.5685 107.943 17.3456 71.8522ZM110.517 66.9051C115.286 66.5393 120.146 66.814 124.915 66.7229C127.85 66.5396 130.785 68.8292 131.059 71.8522C131.059 74.2332 130.417 76.6153 130.142 78.9967C126.29 103.546 122.347 128.095 118.495 152.644C117.945 156.583 116.936 160.796 118.129 164.827C119.504 168.857 125.648 167.117 127.115 171.33C128.033 174.72 127.023 178.292 126.748 181.773C126.474 186.353 121.246 187.36 117.67 188.369C109.876 189.834 100.429 188.735 94.8353 182.322C90.8004 177.651 90.525 171.055 91.3511 165.194C96.2112 134.05 101.071 102.905 106.024 71.6689C106.299 69.3786 108.133 67.272 110.517 66.9051ZM292.551 71.8522C292.825 69.1039 295.302 66.7229 298.053 66.7229H311.992C315.477 66.6307 318.32 70.3867 317.495 73.6838C314.285 94.0195 310.984 114.355 307.775 134.69C312.635 133.957 318.137 133.041 321.53 129.103C327.215 122.69 331.893 115.271 335.377 107.485C336.569 104.462 337.211 100.065 341.155 99.5157C346.382 99.3324 351.7 99.4239 356.928 99.5157C360.505 99.4239 363.164 103.454 361.972 106.752C360.596 111.608 358.304 116.095 355.92 120.401C350.6 129.011 344.732 137.53 337.028 144.308C340.421 154.476 344.732 164.369 348.491 174.354C349.591 177.651 352.252 181.498 349.775 184.705C346.932 188.552 341.613 186.627 337.67 187.085C333.543 186.627 327.582 188.734 325.29 184.063C320.979 174.078 317.403 163.82 313.001 153.835C310.433 153.926 307.774 154.018 305.206 153.743C305.023 154.11 304.656 154.842 304.472 155.209C303.097 164.369 301.63 173.529 300.162 182.689C299.612 184.887 297.869 186.811 295.485 186.994C290.625 187.178 285.673 187.085 280.721 187.085C278.611 187.085 276.686 185.712 275.769 183.88C274.852 182.047 275.401 179.941 275.678 177.926C281.363 142.568 286.957 107.21 292.551 71.8522ZM547.398 81.8368C548.04 79.2711 550.516 77.5313 553.084 77.6224C556.752 77.7145 560.512 77.5313 564.271 77.7145C567.298 77.8057 569.682 80.8286 569.315 83.7598C568.765 88.9813 567.481 94.2027 567.114 99.4232C570.69 99.4232 574.358 99.3321 577.935 99.4232C581.145 99.4232 583.805 102.721 583.254 105.835C582.795 108.676 582.153 111.424 581.695 114.262C581.236 116.645 579.22 118.568 576.927 118.934C572.525 119.209 568.215 118.751 563.905 119.209C562.071 131.483 560.053 143.757 558.127 156.033C557.852 158.872 557.669 162.078 559.319 164.551C561.796 167.574 566.105 166.475 569.591 166.842C572.342 167.666 574.084 170.689 573.625 173.438C573.166 176.551 573.075 179.666 572.342 182.688C571.241 186.077 567.298 186.719 564.271 187.543C555.926 189.742 546.297 189.742 538.87 184.887C531.992 180.215 530.891 171.147 531.625 163.452C533.55 148.612 536.577 133.865 538.227 118.934C535.66 119.025 532.542 119.392 530.616 117.102C528.415 114.812 529.516 111.423 529.883 108.582C530.433 105.56 530.341 101.621 533.643 99.972C536.302 98.9639 539.329 99.6976 542.171 99.3307C543.913 93.4694 545.564 87.6073 547.398 81.8368ZM495.585 111.515C501.362 105.744 508.331 100.981 516.31 98.5997C519.794 97.0421 524.288 99.9736 524.197 103.821C523.555 108.859 522.363 113.805 521.537 118.751C521.17 121.225 519.061 123.332 516.584 123.606C507.598 125.163 499.803 130.567 493.567 136.979C492.008 138.904 489.716 140.735 489.44 143.392C487.515 156.216 485.497 169.04 483.48 181.864C483.205 184.611 480.82 187.269 477.978 187.086H464.038C460.829 187.269 457.986 184.063 458.353 180.857C462.388 155.483 466.423 130.202 470.366 104.828C470.55 102.263 472.384 99.79 475.043 99.515C478.436 99.3317 481.829 99.4232 485.314 99.4232C488.065 99.4232 490.632 101.896 490.632 104.736C490.632 108.675 490.266 112.705 490.174 116.736C492.375 115.363 493.751 113.164 495.585 111.515ZM152.793 99.8815C157.745 98.8744 162.881 99.6989 167.833 99.4235C170.676 99.0577 173.702 100.889 174.16 103.729C174.528 106.294 173.793 108.767 173.518 111.241C169.758 134.783 165.998 158.324 162.33 181.865C162.055 184.522 159.855 187.178 157.011 187.086C152.06 187.086 147.107 187.178 142.064 186.995C138.946 186.628 136.653 183.057 137.479 180.033C141.422 155.576 145.182 131.21 149.125 106.752C149.309 104.096 150.042 100.981 152.793 99.8815ZM449.549 101.073C435.885 98.5075 421.946 96.6756 408.098 98.0496C395.718 99.6071 383.246 105.195 375.636 115.363C365.089 128.736 361.513 146.69 363.896 163.362C365.181 171.331 368.665 179.392 375.177 184.338C381.229 189.01 389.391 189.651 396.728 188.46C406.997 186.444 415.709 179.851 422.863 172.522C423.229 175.636 422.496 178.751 422.68 181.774C422.863 184.612 425.431 187.269 428.273 187.086H437.628C440.379 187.086 442.672 184.522 442.855 181.865C446.798 157.041 450.741 132.308 454.593 107.576C455.142 104.462 452.667 101.439 449.549 101.073ZM423.781 144.217C420.112 151.087 414.976 157.316 409.199 162.628C405.898 165.376 401.679 168.216 397.186 167.3C392.784 166.384 390.675 161.805 389.666 157.865C387.374 147.606 389.483 136.43 395.26 127.546C397.828 123.423 401.954 120.309 406.723 119.026C413.417 117.377 420.479 118.202 426.991 120.034L427.357 120.401C426.532 128.369 424.972 136.247 423.781 144.217ZM269.533 130.477C269.441 121.316 266.966 111.699 260.547 104.828C256.145 99.9736 249.542 97.5004 243.123 97.5912C232.484 97.2257 222.489 102.447 214.694 109.408C212.951 110.783 211.759 112.798 209.834 113.897C209.834 110.873 210.109 107.851 210.017 104.737C210.109 101.896 207.449 99.4235 204.698 99.4235H195.344C192.41 99.4235 190.025 101.989 189.842 104.828C184.064 141.469 178.196 178.109 172.418 214.749C171.594 218.138 174.528 221.62 178.013 221.528C183.148 221.436 188.375 221.894 193.419 221.161C197.454 220.061 197.362 215.39 198.004 212.001C199.471 203.94 200.481 195.879 201.397 187.726C219.463 191.207 240.464 188.826 253.944 175.177C264.948 163.178 270.083 146.598 269.533 130.477ZM243.856 139.728C243.306 148.155 240.28 156.675 234.411 162.811C226.8 170.048 215.244 169.04 205.89 166.568C205.708 166.292 205.432 165.742 205.34 165.468C206.807 157.499 207.541 149.438 209.376 141.56C214.511 133.134 220.746 124.614 229.642 119.943C232.943 118.386 237.437 118.752 239.821 121.775C243.856 126.813 244.223 133.591 243.856 139.728Z" fill="#107BD4" stroke="#107BD4" stroke-width="0.101"/>
</g>
<defs>
<linearGradient id="paint0_linear_191_202" x1="780.335" y1="40.0661" x2="780.335" y2="236.985" gradientUnits="userSpaceOnUse">
<stop stop-color="#F7E830"/>
<stop offset="1" stop-color="#FDCB06"/>
</linearGradient>
<radialGradient id="paint1_radial_191_202" cx="0" cy="0" r="1" gradientUnits="userSpaceOnUse" gradientTransform="translate(779.307 129.879) scale(160.353 160.171)">
<stop offset="0.596" stop-color="#F29405"/>
<stop offset="0.736" stop-color="#F7D01E"/>
<stop offset="1" stop-color="#FDCB06"/>
</radialGradient>
<linearGradient id="paint2_linear_191_202" x1="835.192" y1="47.1732" x2="835.248" y2="56.4982" gradientUnits="userSpaceOnUse">
<stop stop-color="#FADA1C"/>
<stop offset="1" stop-color="#FDCB06"/>
</linearGradient>
<linearGradient id="paint3_linear_191_202" x1="725.384" y1="46.7262" x2="725.328" y2="56.0511" gradientUnits="userSpaceOnUse">
<stop stop-color="#FADA1C"/>
<stop offset="1" stop-color="#FDCB06"/>
</linearGradient>
<clipPath id="clip0_191_202">
<rect width="900" height="237" fill="white"/>
</clipPath>
</defs>
</svg>
