<svg width="994" height="132" viewBox="0 0 994 132" fill="none" xmlns="http://www.w3.org/2000/svg">
<path d="M20.166 5.12695V101.445H0V5.12695H20.166Z" fill="#222222"/>
<path d="M58.584 61.7969V101.445H39.375V44.0234C39.375 40.0586 39.3066 36.8229 39.1699 34.3164C39.0788 31.7643 38.9648 29.4857 38.8281 27.4805H57.1484C57.2396 28.0273 57.3535 29.3262 57.4902 31.377C57.627 33.3822 57.7409 35.4557 57.832 37.5977C57.9688 39.694 58.0371 41.2207 58.0371 42.1777H58.3105C60.9082 36.5267 64.1667 32.4251 68.0859 29.873C72.0052 27.321 76.6764 26.0449 82.0996 26.0449C89.9382 26.0449 95.9538 28.4603 100.146 33.291C104.339 38.1217 106.436 45.1855 106.436 54.4824V101.445H87.2949V59.9512C87.2949 53.4342 86.2012 48.5579 84.0137 45.3223C81.8262 42.0866 78.5221 40.4688 74.1016 40.4688C69.4531 40.4688 65.6934 42.474 62.8223 46.4844C59.9967 50.4492 58.584 55.5534 58.584 61.7969Z" fill="#222222"/>
<path d="M172.881 101.445C172.79 100.99 172.653 100.033 172.471 98.5742C172.288 97.1159 172.129 95.5208 171.992 93.7891C171.901 92.0573 171.855 90.599 171.855 89.4141H171.582C169.486 93.8802 166.478 97.2298 162.559 99.4629C158.639 101.696 153.763 102.812 147.93 102.812C139.316 102.812 132.663 99.4629 127.969 92.7637C123.275 86.0189 120.928 76.6081 120.928 64.5312C120.928 52.2721 123.389 42.8158 128.311 36.1621C133.278 29.4629 140.296 26.1133 149.365 26.1133C154.606 26.1133 159.118 27.207 162.9 29.3945C166.729 31.582 169.668 34.8405 171.719 39.1699H171.855L171.719 27.002V0H190.928V85.3125C190.928 87.5911 190.973 90.0749 191.064 92.7637C191.156 95.4525 191.292 98.3464 191.475 101.445H172.881ZM140.957 64.5312C140.957 72.9167 142.21 79.2057 144.717 83.3984C147.269 87.5911 151.051 89.6875 156.064 89.6875C161.123 89.6875 165.042 87.4772 167.822 83.0566C170.602 78.5905 171.992 72.2559 171.992 64.0527C171.992 56.0775 170.648 49.9479 167.959 45.6641C165.316 41.3346 161.396 39.1699 156.201 39.1699C151.051 39.1699 147.223 41.2663 144.717 45.459C142.21 49.6061 140.957 55.9635 140.957 64.5312Z" fill="#222222"/>
<path d="M257.578 86.748C255.026 92.3535 251.768 96.4323 247.803 98.9844C243.883 101.536 239.212 102.812 233.789 102.812C225.951 102.812 219.935 100.42 215.742 95.6348C211.549 90.804 209.453 83.7402 209.453 74.4434V27.4805H228.662V68.9746C228.662 75.446 229.756 80.3223 231.943 83.6035C234.131 86.8392 237.412 88.457 241.787 88.457C246.436 88.457 250.173 86.4746 252.998 82.5098C255.869 78.4993 257.305 73.3724 257.305 67.1289V27.4805H276.514V84.9023C276.514 88.0469 276.559 91.0091 276.65 93.7891C276.742 96.5234 276.878 99.0755 277.061 101.445H258.74C258.467 98.1641 258.262 95.293 258.125 92.832C257.988 90.3711 257.92 88.3431 257.92 86.748H257.578Z" fill="#222222"/>
<path d="M358.477 79.8438C358.477 86.9987 355.537 92.627 349.658 96.7285C343.825 100.785 335.736 102.812 325.391 102.812C315.228 102.812 307.435 101.217 302.012 98.0273C296.634 94.7917 293.057 89.7786 291.279 82.9883L308.164 80.459C309.121 83.9681 310.762 86.4518 313.086 87.9102C315.456 89.3685 319.557 90.0977 325.391 90.0977C330.768 90.0977 334.688 89.4141 337.148 88.0469C339.609 86.6797 340.84 84.5378 340.84 81.6211C340.84 79.2513 339.837 77.3828 337.832 76.0156C335.872 74.6029 332.523 73.418 327.783 72.4609C324.183 71.7318 320.947 71.0254 318.076 70.3418C315.251 69.6582 312.812 68.9974 310.762 68.3594C308.757 67.6758 307.116 67.0378 305.84 66.4453C302.057 64.5768 299.163 62.1842 297.158 59.2676C295.199 56.3509 294.219 52.7507 294.219 48.4668C294.219 41.403 296.93 35.9115 302.354 31.9922C307.822 28.0273 315.547 26.0449 325.527 26.0449C334.323 26.0449 341.387 27.7539 346.719 31.1719C352.096 34.5898 355.446 39.5345 356.768 46.0059L339.746 47.7832C339.199 44.7754 337.855 42.5423 335.713 41.084C333.571 39.5801 330.176 38.8281 325.527 38.8281C320.97 38.8281 317.552 39.4206 315.273 40.6055C312.995 41.7448 311.855 43.6816 311.855 46.416C311.855 48.5579 312.721 50.2669 314.453 51.543C316.23 52.7734 319.193 53.7988 323.34 54.6191C329.128 55.804 334.255 57.0345 338.721 58.3105C343.232 59.541 346.855 61.0221 349.59 62.7539C352.279 64.4857 354.421 66.7188 356.016 69.4531C357.656 72.1419 358.477 75.6055 358.477 79.8438Z" fill="#222222"/>
<path d="M409.199 100.352C404.551 101.901 399.15 102.676 392.998 102.676C387.347 102.676 382.995 101.149 379.941 98.0957C376.888 94.9967 375.361 90.3255 375.361 84.082V40.4688H365.996V27.4805H376.318L382.334 10.1172H394.365V27.4805H408.379V40.4688H394.365V78.8867C394.365 82.487 395.049 85.153 396.416 86.8848C397.783 88.571 399.902 89.4141 402.773 89.4141C404.141 89.4141 406.283 89.0951 409.199 88.457V100.352Z" fill="#222222"/>
<path d="M439.893 65.1465V101.445H420.684V44.8438C420.684 40.7878 420.615 37.4154 420.479 34.7266C420.387 31.9922 420.273 29.5768 420.137 27.4805H438.457C438.548 27.8906 438.639 28.8021 438.73 30.2148C438.822 31.6276 438.913 33.2227 439.004 35C439.095 36.7318 439.163 38.3724 439.209 39.9219C439.3 41.4714 439.346 42.5879 439.346 43.2715H439.619C441.442 38.1673 443.105 34.4987 444.609 32.2656C446.068 30.1237 447.799 28.5514 449.805 27.5488C451.81 26.5462 454.316 26.0449 457.324 26.0449C459.785 26.0449 461.768 26.3867 463.271 27.0703V43.1348C460.218 42.4512 457.484 42.1094 455.068 42.1094C450.283 42.1094 446.546 44.0462 443.857 47.9199C441.214 51.7936 439.893 57.5358 439.893 65.1465Z" fill="#222222"/>
<path d="M484.805 130.498C480.111 130.498 476.077 130.202 472.705 129.609V115.938C475.257 116.302 477.467 116.484 479.336 116.484C483.802 116.484 487.129 115.277 489.316 112.861C491.549 110.446 493.714 106.39 495.811 100.693L466.553 27.4805H486.855L498.477 62.1387C499.388 64.6452 500.413 67.7897 501.553 71.5723C502.692 75.3548 503.968 79.821 505.381 84.9707C506.429 80.778 507.432 76.9043 508.389 73.3496C509.346 69.7949 510.394 66.1491 511.533 62.4121L522.471 27.4805H542.568L513.311 105.342C512.126 108.486 510.872 111.266 509.551 113.682C508.229 116.097 506.885 118.239 505.518 120.107C502.738 123.89 499.707 126.556 496.426 128.105C493.145 129.701 489.271 130.498 484.805 130.498Z" fill="#222222"/>
<path d="M623.164 64.1895C623.164 76.403 620.703 85.9049 615.781 92.6953C610.905 99.4401 603.91 102.812 594.795 102.812C589.554 102.812 585.02 101.673 581.191 99.3945C577.363 97.1159 574.424 93.8346 572.373 89.5508H572.236C572.236 90.599 572.191 91.9661 572.1 93.6523C572.008 95.3385 571.895 96.9336 571.758 98.4375C571.621 99.8958 571.462 100.898 571.279 101.445H552.617C552.799 99.3034 552.936 96.8424 553.027 94.0625C553.118 91.237 553.164 88.0697 553.164 84.5605V0H572.373V28.3008C572.373 30.306 572.327 32.3112 572.236 34.3164C572.191 36.3216 572.145 38.3268 572.1 40.332H572.373C574.515 35.5924 577.568 32.0378 581.533 29.668C585.498 27.2982 590.329 26.1133 596.025 26.1133C604.775 26.1133 611.475 29.4401 616.123 36.0938C620.817 42.7018 623.164 52.0671 623.164 64.1895ZM603.135 64.1895C603.135 55.804 601.904 49.5833 599.443 45.5273C596.982 41.4714 593.177 39.4434 588.027 39.4434C582.832 39.4434 578.867 41.6309 576.133 46.0059C573.444 50.3353 572.1 56.6016 572.1 64.8047C572.1 72.6432 573.421 78.75 576.064 83.125C578.753 87.5 582.695 89.6875 587.891 89.6875C592.995 89.6875 596.8 87.5684 599.307 83.3301C601.859 79.0918 603.135 72.7116 603.135 64.1895Z" fill="#E45301"/>
<path d="M685.781 86.748C683.229 92.3535 679.971 96.4323 676.006 98.9844C672.087 101.536 667.415 102.812 661.992 102.812C654.154 102.812 648.138 100.42 643.945 95.6348C639.753 90.804 637.656 83.7402 637.656 74.4434V27.4805H656.865V68.9746C656.865 75.446 657.959 80.3223 660.146 83.6035C662.334 86.8392 665.615 88.457 669.99 88.457C674.639 88.457 678.376 86.4746 681.201 82.5098C684.072 78.4993 685.508 73.3724 685.508 67.1289V27.4805H704.717V84.9023C704.717 88.0469 704.762 91.0091 704.854 93.7891C704.945 96.5234 705.081 99.0755 705.264 101.445H686.943C686.67 98.1641 686.465 95.293 686.328 92.832C686.191 90.3711 686.123 88.3431 686.123 86.748H685.781Z" fill="#E45301"/>
<path d="M733.906 130.498C729.212 130.498 725.179 130.202 721.807 129.609V115.938C724.359 116.302 726.569 116.484 728.438 116.484C732.904 116.484 736.23 115.277 738.418 112.861C740.651 110.446 742.816 106.39 744.912 100.693L715.654 27.4805H735.957L747.578 62.1387C748.49 64.6452 749.515 67.7897 750.654 71.5723C751.794 75.3548 753.07 79.821 754.482 84.9707C755.531 80.778 756.533 76.9043 757.49 73.3496C758.447 69.7949 759.495 66.1491 760.635 62.4121L771.572 27.4805H791.67L762.412 105.342C761.227 108.486 759.974 111.266 758.652 113.682C757.331 116.097 755.986 118.239 754.619 120.107C751.839 123.89 748.809 126.556 745.527 128.105C742.246 129.701 738.372 130.498 733.906 130.498Z" fill="#E45301"/>
<path d="M821.475 0V14.1504H802.266V0H821.475ZM821.475 27.4805V101.445H802.266V27.4805H821.475Z" fill="#E45301"/>
<path d="M860.439 61.7969V101.445H841.23V44.0234C841.23 40.0586 841.162 36.8229 841.025 34.3164C840.934 31.7643 840.82 29.4857 840.684 27.4805H859.004C859.095 28.0273 859.209 29.3262 859.346 31.377C859.482 33.3822 859.596 35.4557 859.688 37.5977C859.824 39.694 859.893 41.2207 859.893 42.1777H860.166C862.764 36.5267 866.022 32.4251 869.941 29.873C873.861 27.321 878.532 26.0449 883.955 26.0449C891.794 26.0449 897.809 28.4603 902.002 33.291C906.195 38.1217 908.291 45.1855 908.291 54.4824V101.445H889.15V59.9512C889.15 53.4342 888.057 48.5579 885.869 45.3223C883.682 42.0866 880.378 40.4688 875.957 40.4688C871.309 40.4688 867.549 42.474 864.678 46.4844C861.852 50.4492 860.439 55.5534 860.439 61.7969Z" fill="#E45301"/>
<path d="M957.783 131.113C948.76 131.113 941.491 129.382 935.977 125.918C930.508 122.5 927.135 117.601 925.859 111.221L945.068 108.965C945.752 111.927 947.21 114.251 949.443 115.938C951.722 117.624 954.684 118.467 958.33 118.467C963.662 118.467 967.559 116.826 970.02 113.545C972.48 110.264 973.711 105.387 973.711 98.916L973.848 87.7051H973.711C971.615 92.2624 968.584 95.6803 964.619 97.959C960.654 100.192 955.755 101.309 949.922 101.309C941.309 101.309 934.632 98.0729 929.893 91.6016C925.153 85.1302 922.783 75.8789 922.783 63.8477C922.783 51.7708 925.221 42.4512 930.098 35.8887C934.974 29.3262 942.061 26.0449 951.357 26.0449C956.735 26.0449 961.27 27.1615 964.961 29.3945C968.698 31.582 971.615 34.9089 973.711 39.375H974.053C974.053 38.2812 974.098 36.9141 974.189 35.2734C974.281 33.6328 974.395 32.0605 974.531 30.5566C974.714 29.0527 974.873 28.0273 975.01 27.4805H993.193C992.92 32.4023 992.783 38.099 992.783 44.5703V99.1895C992.783 109.717 989.798 117.669 983.828 123.047C977.858 128.424 969.176 131.113 957.783 131.113ZM973.848 63.4375C973.848 55.8268 972.48 49.9023 969.746 45.6641C967.057 41.3802 963.206 39.2383 958.193 39.2383C953.089 39.2383 949.238 41.2891 946.641 45.3906C944.089 49.4922 942.812 55.6445 942.812 63.8477C942.812 71.8685 944.066 77.9069 946.572 81.9629C949.124 85.9733 952.952 87.9785 958.057 87.9785C963.161 87.9785 967.057 85.8594 969.746 81.6211C972.48 77.3372 973.848 71.276 973.848 63.4375Z" fill="#E45301"/>
</svg>
