<svg width="316" height="316" viewBox="0 0 316 316" fill="none" xmlns="http://www.w3.org/2000/svg">
<g clip-path="url(#clip0_194_4841)">
<path d="M158.184 315.984C137.372 316.026 116.757 311.951 97.5246 303.996C78.2925 296.04 60.8233 284.361 46.1219 269.629C31.4205 254.897 19.7771 237.403 11.8616 218.155C3.94612 198.906 -0.0852795 178.282 -0.000647758 157.47C-0.000647758 70.3198 70.9766 -0.0157233 158.834 0.0254087C245.837 0.0254087 316.073 71.1754 315.999 159.148C315.892 245.353 244.866 315.984 158.184 315.984ZM123.066 108.729C112.684 108.729 102.558 108.647 92.431 108.729C85.3727 108.803 81.3747 113.451 82.0246 120.484C82.3783 124.31 82.6992 128.127 83.0282 131.952C85.7703 163.212 88.5125 194.472 91.2546 225.733C91.7729 231.639 95.5488 235.234 101.546 235.251C139.118 235.311 176.686 235.311 214.247 235.251C220.335 235.251 224.119 231.359 224.629 225.28C225.007 220.641 225.345 215.993 225.748 211.353C228.38 181.466 231.087 151.588 233.637 121.685C234.418 112.636 230.642 108.737 221.56 108.729H195.359C191.246 85.0862 177.903 72.7055 157.378 73.232C143.426 73.5857 124.711 84.2635 123.066 108.729Z" fill="#DF1F25"/>
<path d="M123.066 108.728C124.712 84.2625 143.427 73.5847 157.379 73.231C177.904 72.7045 191.28 85.0852 195.36 108.728H221.536C230.585 108.728 234.394 112.602 233.613 121.684C231.062 151.579 228.356 181.457 225.723 211.352C225.32 215.992 224.983 220.639 224.605 225.279C224.119 231.358 220.311 235.241 214.223 235.25C176.65 235.321 139.083 235.321 101.522 235.25C95.5245 235.25 91.7486 231.638 91.2303 225.732C88.4882 194.471 85.7461 163.211 83.004 131.951C82.6749 128.126 82.3541 124.309 82.0003 120.483C81.3505 113.45 85.3485 108.802 92.4067 108.728C102.558 108.678 112.701 108.728 123.066 108.728ZM185.826 195.878C197.729 195.919 205.651 188.4 205.635 177.081C205.635 165.926 197.746 158.316 186.204 158.284C174.44 158.284 166.321 165.992 166.387 177.163C166.452 188.334 174.136 195.796 185.826 195.878ZM113.919 179.582C111.097 180.857 109.304 183.629 109.986 186.615C110.587 189.223 112.454 192.81 114.626 193.517C119.369 195.121 124.379 195.783 129.376 195.467C137.66 194.809 142.497 190.161 143.229 181.827C144.052 172.326 143.871 162.709 143.674 153.158C143.674 151.513 141.633 148.757 140.087 148.387C133.868 146.882 129.063 147.704 129.253 155.906C129.409 162.874 129.36 169.891 129.253 176.834C129.146 182.387 125.847 184.846 120.566 183.168C118.27 182.411 116.28 180.857 113.919 179.54V179.582ZM178.858 108.547C178.224 96.6103 169.241 87.8163 158.53 88.2523C153.321 88.4845 148.405 90.7301 144.818 94.516C141.232 98.3019 139.255 103.332 139.305 108.547H178.858ZM148.897 176.875C148.897 180.988 148.782 185.102 148.897 189.215C149.012 193.328 150.855 194.973 155.084 195.154C160.019 195.327 162.405 193.937 162.553 189.684C162.844 181.216 162.844 172.745 162.553 164.272C162.413 159.937 160.266 158.637 155.149 158.777C150.905 158.884 149.037 160.496 148.873 164.618C148.708 168.739 148.897 172.77 148.897 176.875ZM156.005 154.927C160.579 154.878 163.145 152.5 163.104 148.346C163.063 144.192 160.365 141.946 155.791 141.913C151.398 141.913 148.387 144.471 148.346 148.346C148.28 152.402 151.275 154.977 155.997 154.927H156.005Z" fill="#FEFEFE"/>
<path d="M185.826 195.878C174.136 195.837 166.453 188.474 166.387 177.163C166.321 165.852 174.441 158.242 186.204 158.283C197.721 158.283 205.619 165.926 205.635 177.081C205.66 188.359 197.73 195.878 185.826 195.878ZM193.674 177.072C193.674 172.318 190.383 168.846 185.917 168.846C181.598 168.895 178.431 172.235 178.356 176.801C178.282 181.696 181.334 185.093 185.867 185.159C190.4 185.225 193.666 181.778 193.674 177.031V177.072Z" fill="#DF1F25"/>
<path d="M113.918 179.541C116.279 180.857 118.27 182.412 120.499 183.128C125.781 184.773 129.08 182.346 129.187 176.793C129.326 169.817 129.376 162.809 129.187 155.865C128.997 147.639 133.802 146.816 140.021 148.347C141.567 148.717 143.574 151.44 143.607 153.118C143.805 162.669 143.994 172.285 143.163 181.787C142.431 190.12 137.594 194.768 129.31 195.426C124.313 195.743 119.303 195.08 114.56 193.476C112.421 192.769 110.521 189.182 109.92 186.575C109.303 183.588 111.097 180.816 113.918 179.541Z" fill="#DF1F25"/>
<path d="M178.858 108.505H139.306C139.256 103.291 141.232 98.2604 144.819 94.4745C148.405 90.6886 153.321 88.443 158.531 88.2108C169.241 87.7748 178.225 96.5688 178.858 108.505Z" fill="#DF1F25"/>
<path d="M148.897 176.876C148.897 172.763 148.773 168.649 148.897 164.577C149.02 160.505 150.929 158.819 155.173 158.737C160.274 158.597 162.421 159.896 162.577 164.232C162.851 172.699 162.851 181.17 162.577 189.643C162.429 193.896 160.109 195.286 155.108 195.114C150.879 194.966 149.069 193.353 148.921 189.174C148.773 184.995 148.897 180.972 148.897 176.876Z" fill="#DF1F25"/>
<path d="M155.997 154.927C151.276 154.976 148.281 152.401 148.339 148.345C148.396 144.471 151.391 141.88 155.784 141.912C160.357 141.912 163.056 144.315 163.097 148.345C163.138 152.376 160.571 154.877 155.997 154.927Z" fill="#DF1F25"/>
<path d="M193.674 177.032C193.674 181.779 190.384 185.209 185.867 185.151C181.351 185.094 178.283 181.688 178.357 176.793C178.431 172.228 181.598 168.888 185.917 168.839C190.367 168.781 193.674 172.277 193.674 177.032Z" fill="#FEFEFE"/>
</g>
<defs>
<clipPath id="clip0_194_4841">
<rect width="316" height="316" fill="white"/>
</clipPath>
</defs>
</svg>
