<svg width="1040" height="240" viewBox="0 0 1040 240" fill="none" xmlns="http://www.w3.org/2000/svg">
<mask id="mask0_198_163" style="mask-type:luminance" maskUnits="userSpaceOnUse" x="0" y="0" width="1040" height="240">
<path d="M1039.92 0H0V240H1039.92V0Z" fill="white"/>
</mask>
<g mask="url(#mask0_198_163)">
<path d="M153.448 81.2489C170.891 81.4708 185.464 87.4307 197.606 99.3528C209.748 111.275 215.71 125.406 215.71 142.408L215.268 221.451C215.268 230.944 207.321 238.453 197.384 238.453C187.669 238.453 179.722 230.725 179.941 221.232L180.382 142.188C180.604 135.124 177.734 128.279 172.435 123.421C167.358 118.344 160.954 115.693 153.227 115.693C145.721 115.472 138.434 118.564 133.355 123.863C128.278 128.94 125.849 135.785 125.849 142.852L125.408 220.79C125.408 230.284 117.238 238.011 107.304 238.011C97.369 238.011 89.4194 230.062 89.4194 220.568L89.8607 142.188C90.0826 135.343 87.432 128.498 82.5744 123.643C77.2754 118.122 70.6522 115.474 62.7026 115.252C55.4162 115.03 48.5712 117.681 43.4941 122.758C38.1951 127.835 35.5468 134.019 35.5468 141.303L35.1054 220.125C35.1054 229.618 27.1581 237.346 17.2211 237.126C7.5059 237.126 -0.441406 229.398 -0.441406 219.905L-1.73776e-05 141.306C-1.73776e-05 126.513 5.52081 112.382 15.4555 101.564C28.4823 87.6548 44.3792 80.5903 62.9245 80.8099C80.587 81.0317 95.823 87.2134 107.965 99.577C120.772 87.2111 135.786 81.2489 153.448 81.2489ZM376.888 168.903L275.545 168.24C276.427 180.383 280.402 190.099 287.689 197.383C294.975 204.447 304.249 208.203 315.288 208.203C324.12 208.203 331.407 206.215 337.147 202.24C340.459 199.812 344.212 196.278 348.187 191.201C353.264 184.797 362.318 183.032 369.604 186.785L370.709 187.448C379.761 192.306 381.748 204.008 375.125 211.736C374.02 213.06 372.918 214.387 371.592 215.489C366.734 220.566 361.216 225.204 355.031 228.735C349.069 232.269 342.668 234.697 336.043 236.241C329.198 237.787 321.911 238.67 313.742 238.67C291 238.448 272.674 231.384 258.765 217.033C245.075 202.682 238.232 183.693 238.452 160.068C238.674 136.665 245.516 117.676 258.984 103.325C272.674 89.1939 290.556 82.1294 312.857 82.3512C335.377 82.5731 353.261 89.6376 366.066 103.547C378.871 117.457 385.275 136.665 385.275 160.953C385.279 165.372 381.305 168.903 376.888 168.903ZM349.069 140.642C344.212 122.317 332.509 113.265 313.522 113.043C309.328 113.043 305.353 113.484 301.378 114.808C297.626 115.913 294.092 117.9 291.002 120.329C287.913 122.758 285.262 125.628 283.055 128.94C280.626 132.473 279.08 136.226 277.978 140.42L349.069 140.642ZM545.573 168.903L444.231 168.24C445.114 180.383 449.089 190.099 456.375 197.383C463.662 204.447 472.935 208.203 483.975 208.203C492.807 208.203 500.094 206.215 505.834 202.24C509.367 199.812 512.899 196.278 516.873 191.201C521.95 184.797 531.005 183.032 538.291 186.785L539.396 187.448C548.448 192.306 550.435 204.008 543.812 211.736C542.707 213.06 541.605 214.387 540.278 215.489C535.421 220.566 529.902 225.204 523.718 228.735C517.756 232.269 511.355 234.697 504.729 236.241C497.884 237.787 490.598 238.67 482.429 238.67C459.687 238.448 441.142 231.384 427.452 217.033C413.762 202.682 406.919 183.693 407.138 160.068C407.36 136.665 414.203 117.676 427.671 103.325C441.361 89.1939 459.243 82.1294 481.544 82.3512C504.064 82.5731 521.948 89.6376 534.753 103.547C547.558 117.457 553.962 136.665 553.962 160.953C553.962 165.372 550.209 168.903 545.573 168.903ZM517.754 140.642C512.896 122.317 501.194 113.265 482.207 113.043C478.013 113.043 474.038 113.484 470.063 114.808C462.557 117.237 456.153 122.095 451.737 128.718C449.308 132.251 447.762 136.004 446.66 140.199L517.754 140.642ZM740.75 -0.00129686C750.685 -0.00129686 758.634 7.94603 758.634 17.6612L757.971 95.1585C770.998 84.1191 785.129 81.4685 800.804 81.6903C816.26 81.6903 832.598 88.5353 843.196 99.5747C852.248 109.29 856.445 124.745 856.445 145.941L856.003 221.232C856.003 230.947 847.834 238.675 837.899 238.675C827.965 238.675 819.796 230.727 820.015 221.012L820.457 149.036C820.457 136.892 818.469 128.062 814.053 122.763C809.637 117.242 802.572 114.593 792.635 114.593C780.05 114.593 770.998 118.346 765.918 125.633C760.841 133.361 758.191 146.387 757.971 165.154L757.53 221.014C757.53 230.73 749.361 238.457 739.204 238.235C729.269 238.235 721.32 230.286 721.32 220.573L722.866 17.8877C722.646 7.50693 730.815 -0.220836 740.75 -0.00129686ZM877.862 160.734C878.084 139.76 885.81 122.095 901.487 107.524C916.943 92.9515 935.929 85.6651 958.23 85.887C980.53 86.1088 999.517 93.6147 1014.97 108.407C1030.21 123.199 1037.71 141.525 1037.71 162.943C1037.49 184.802 1029.77 202.684 1014.09 217.479C998.415 232.051 979.204 239.116 956.684 238.896C934.164 238.675 915.397 231.169 900.383 216.154C885.147 201.582 877.641 183.034 877.862 160.734ZM913.187 161.619C913.187 176.191 916.94 187.45 924.89 196.061C933.059 204.671 943.879 209.088 957.347 209.088C970.815 209.088 981.635 205.113 989.804 196.724C997.973 188.333 1002.17 177.074 1002.17 163.165C1002.17 149.033 998.415 137.774 990.246 129.383C982.076 120.773 971.257 116.357 957.789 116.357C944.542 116.357 933.944 120.551 925.553 128.942C917.604 137.109 913.409 148.151 913.187 161.619ZM681.359 158.527C692.179 166.476 697.697 176.852 697.919 189.438V189.879C697.919 205.335 691.957 217.92 680.476 226.531C670.1 234.478 655.747 238.675 638.967 238.675C621.083 238.675 602.316 233.597 585.977 224.543C577.367 219.907 574.716 209.088 580.237 200.918C583.548 196.283 588.847 193.413 594.588 193.413C597.68 193.413 600.55 194.076 602.979 195.619C615.342 202.464 628.15 206.217 639.85 206.217C658.176 206.217 660.163 197.385 660.163 193.413V192.971C660.163 185.243 649.565 181.49 632.344 176.411C631.239 175.97 629.915 175.748 628.81 175.306C617.33 172.214 605.408 168.242 596.134 161.616C585.095 153.667 579.795 143.291 579.795 129.601V129.159C579.795 101.34 603.198 81.9099 636.319 81.9099C650.228 81.9099 665.684 85.2214 679.593 91.625C683.788 93.6124 687.321 97.1458 688.867 101.56C690.413 105.974 689.75 110.834 687.543 114.806C684.451 120.105 678.711 123.417 672.529 123.417C670.1 123.417 667.452 122.975 665.242 121.871C654.423 117.013 644.268 114.365 635.655 114.365C624.836 114.365 617.771 118.781 617.771 125.626V126.067C617.771 134.015 631.681 138.431 646.695 143.069L649.565 143.952C660.163 147.487 671.863 151.682 681.359 158.527Z" fill="#F43397"/>
</g>
</svg>
