<svg width="622" height="250" viewBox="0 0 622 250" fill="none" xmlns="http://www.w3.org/2000/svg">
<path d="M33.8036 236.048C33.3769 237.014 32.8052 237.862 32.0628 238.585C31.329 239.307 30.4671 239.878 29.4858 240.298C28.5045 240.71 27.4463 240.919 26.3284 240.919H23.9818C22.864 240.919 21.8059 240.71 20.816 240.298C19.8261 239.886 18.9643 239.307 18.2219 238.585C17.488 237.862 16.9078 237.014 16.4811 236.048C16.0544 235.082 15.8496 234.041 15.8496 232.941V215.48C15.8496 214.38 16.0629 213.339 16.4811 212.373C16.8992 211.407 17.4795 210.559 18.2219 209.837C18.9557 209.115 19.8261 208.543 20.816 208.123C21.8059 207.712 22.864 207.502 23.9818 207.502H26.3284C27.4463 207.502 28.5045 207.712 29.4858 208.123C30.4671 208.543 31.329 209.115 32.0628 209.837C32.7967 210.559 33.3769 211.407 33.8036 212.373C34.2217 213.339 34.4351 214.38 34.4351 215.48V232.941C34.4351 234.041 34.2217 235.082 33.8036 236.048ZM31.4655 215.48C31.4655 214.758 31.329 214.078 31.0473 213.448C30.7657 212.818 30.3903 212.272 29.921 211.802C29.4431 211.332 28.8885 210.962 28.2485 210.693C27.6084 210.425 26.9258 210.282 26.1834 210.282H24.1098C23.376 210.282 22.6847 210.416 22.0448 210.693C21.4048 210.962 20.8501 211.332 20.3637 211.802C19.8773 212.272 19.5019 212.818 19.2203 213.448C18.9387 214.078 18.8021 214.75 18.8021 215.48V232.941C18.8021 233.663 18.9387 234.343 19.2203 234.973C19.5019 235.603 19.8773 236.149 20.3637 236.628C20.8501 237.107 21.4048 237.476 22.0448 237.753C22.6847 238.022 23.3674 238.165 24.1098 238.165H26.1834C26.9173 238.165 27.6084 238.03 28.2485 237.753C28.8885 237.485 29.4431 237.107 29.921 236.628C30.3988 236.149 30.7743 235.603 31.0473 234.973C31.3204 234.343 31.4655 233.671 31.4655 232.941V215.48Z" fill="#606161"/>
<path d="M54.8483 236.751C54.4899 237.582 53.995 238.305 53.3635 238.927C52.732 239.548 51.9982 240.035 51.1534 240.388C50.3086 240.74 49.4126 240.917 48.4569 240.917H47.7401C46.682 240.917 45.7007 240.707 44.7876 240.278C43.8745 239.85 43.1066 239.263 42.458 238.515V249.76H39.625V217.242H40.5722L42.1167 219.602C42.7652 218.736 43.5673 218.056 44.5487 217.553C45.5214 217.049 46.5881 216.797 47.7401 216.797H48.4569C49.4126 216.797 50.3086 216.973 51.1534 217.326C51.9982 217.678 52.732 218.165 53.3635 218.787C53.995 219.409 54.4899 220.131 54.8483 220.962C55.2067 221.794 55.3859 222.675 55.3859 223.616V234.089C55.3859 235.029 55.2067 235.911 54.8483 236.743V236.751ZM52.5529 223.465C52.5529 222.902 52.4419 222.382 52.2286 221.886C52.0153 221.399 51.7252 220.971 51.3497 220.601C50.9827 220.24 50.5476 219.954 50.0441 219.736C49.5406 219.526 49.0116 219.417 48.4398 219.417H46.554C45.9822 219.417 45.4532 219.526 44.9497 219.736C44.4463 219.946 44.0196 220.232 43.6442 220.601C43.2772 220.962 42.9871 221.39 42.7652 221.886C42.5519 222.373 42.441 222.902 42.441 223.465V234.257C42.441 234.82 42.5519 235.34 42.7652 235.836C42.9786 236.331 43.2687 236.751 43.6442 237.121C44.0111 237.482 44.4463 237.767 44.9497 237.986C45.4532 238.204 45.9822 238.305 46.554 238.305H48.4398C49.0116 238.305 49.5406 238.196 50.0441 237.986C50.539 237.776 50.9742 237.49 51.3497 237.121C51.7252 236.751 52.0068 236.331 52.2286 235.836C52.4419 235.349 52.5529 234.82 52.5529 234.257V223.465Z" fill="#606161"/>
<path d="M75.3348 236.755C74.9767 237.587 74.4814 238.309 73.8501 238.93C73.2188 239.552 72.4846 240.039 71.64 240.391C70.7953 240.744 69.899 240.92 68.9433 240.92H67.0575C66.1019 240.92 65.2061 240.744 64.3608 240.391C63.5162 240.039 62.7826 239.552 62.1513 238.93C61.5194 238.309 61.0247 237.587 60.666 236.755C60.308 235.923 60.1289 235.042 60.1289 234.101V223.628C60.1289 222.688 60.308 221.806 60.666 220.974C61.0247 220.143 61.5194 219.421 62.1513 218.799C62.7826 218.178 63.5162 217.691 64.3608 217.338C65.2061 216.985 66.1019 216.809 67.0575 216.809H68.9433C69.899 216.809 70.7953 216.985 71.64 217.338C72.4846 217.691 73.2188 218.178 73.8501 218.799C74.4814 219.421 74.9767 220.143 75.3348 220.974C75.6934 221.806 75.8725 222.688 75.8725 223.628V229.096H62.9448V234.269C62.9448 234.832 63.0558 235.352 63.2691 235.848C63.4825 236.343 63.7725 236.763 64.1475 237.133C64.5149 237.494 64.9497 237.78 65.4531 237.998C65.9571 238.216 66.4861 238.317 67.0575 238.317H68.9433C69.5153 238.317 70.0443 238.207 70.5477 237.998C71.0424 237.788 71.4778 237.502 71.8533 237.133C72.2288 236.763 72.5102 236.343 72.7323 235.848C72.9456 235.361 73.0566 234.832 73.0566 234.269V232.724L75.8893 233.177V234.109C75.8893 235.05 75.7103 235.932 75.3522 236.763L75.3348 236.755ZM73.0392 223.468C73.0392 222.906 72.9287 222.385 72.7154 221.89C72.5021 221.403 72.212 220.974 71.8365 220.605C71.4691 220.243 71.0343 219.958 70.5308 219.74C70.0274 219.53 69.4979 219.421 68.9264 219.421H67.0407C66.4687 219.421 65.9397 219.53 65.4363 219.74C64.9328 219.95 64.5062 220.235 64.1306 220.605C63.7638 220.966 63.4738 221.394 63.2517 221.89C63.0384 222.377 62.9273 222.906 62.9273 223.468V226.912H73.0136V223.468H73.0392Z" fill="#606161"/>
<path d="M93.511 240.475V223.468C93.511 222.906 93.4005 222.385 93.1872 221.89C92.9739 221.403 92.6832 220.974 92.3083 220.605C91.9409 220.243 91.5061 219.958 91.0026 219.74C90.4992 219.53 89.9697 219.421 89.3982 219.421H87.5125C86.9405 219.421 86.4115 219.53 85.9081 219.74C85.4046 219.95 84.978 220.235 84.6024 220.605C84.2356 220.966 83.9456 221.394 83.7235 221.89C83.5102 222.377 83.3991 222.906 83.3991 223.468V240.475H80.5664V217.254H81.5134L83.0579 219.614C83.7066 218.749 84.5088 218.068 85.4901 217.564C86.4626 217.061 87.5293 216.809 88.6815 216.809H89.3982C90.3539 216.809 91.2497 216.985 92.0949 217.338C92.9396 217.691 93.6732 218.178 94.305 218.799C94.9363 219.421 95.4311 220.143 95.7897 220.974C96.1478 221.806 96.3274 222.688 96.3274 223.628V240.475H93.4941H93.511Z" fill="#606161"/>
<path d="M128.963 240.473L115.19 216.798L114.917 215.395V240.473H111.947V207.963H113.492L127.265 231.655L127.563 233.041V207.963H130.533V240.473H128.963Z" fill="#606161"/>
<path d="M150.95 236.755C150.592 237.587 150.097 238.309 149.465 238.93C148.834 239.552 148.1 240.039 147.255 240.391C146.411 240.744 145.515 240.92 144.559 240.92H142.673C141.717 240.92 140.821 240.744 139.977 240.391C139.131 240.039 138.398 239.552 137.767 238.93C137.135 238.309 136.64 237.587 136.281 236.755C135.923 235.923 135.744 235.042 135.744 234.101V223.628C135.744 222.688 135.923 221.806 136.281 220.974C136.64 220.143 137.135 219.421 137.767 218.799C138.398 218.178 139.131 217.691 139.977 217.338C140.821 216.985 141.717 216.809 142.673 216.809H144.559C145.515 216.809 146.411 216.985 147.255 217.338C148.1 217.691 148.834 218.178 149.465 218.799C150.097 219.421 150.592 220.143 150.95 220.974C151.309 221.806 151.488 222.688 151.488 223.628V229.096H138.56V234.269C138.56 234.832 138.671 235.352 138.884 235.848C139.098 236.343 139.388 236.763 139.763 237.133C140.13 237.494 140.565 237.78 141.069 237.998C141.572 238.216 142.101 238.317 142.673 238.317H144.559C145.131 238.317 145.66 238.207 146.163 237.998C146.658 237.788 147.093 237.502 147.469 237.133C147.844 236.763 148.125 236.343 148.347 235.848C148.561 235.361 148.672 234.832 148.672 234.269V232.724L151.505 233.177V234.109C151.505 235.05 151.326 235.932 150.967 236.763L150.95 236.755ZM148.655 223.468C148.655 222.906 148.544 222.385 148.331 221.89C148.117 221.403 147.827 220.974 147.452 220.605C147.085 220.243 146.649 219.958 146.146 219.74C145.643 219.53 145.114 219.421 144.542 219.421H142.656C142.084 219.421 141.555 219.53 141.051 219.74C140.548 219.95 140.121 220.235 139.746 220.605C139.379 220.966 139.089 221.394 138.867 221.89C138.654 222.377 138.543 222.906 138.543 223.468V226.912H148.629V223.468H148.655Z" fill="#606161"/>
<path d="M164.808 240.472C163.946 240.472 163.135 240.313 162.376 239.993C161.616 239.674 160.959 239.238 160.396 238.675C159.833 238.112 159.389 237.465 159.056 236.727C158.723 235.988 158.561 235.189 158.561 234.35V219.904H154.32V217.25H158.561V211.674L161.394 211.221V217.25H167.385V219.904H161.394V234.484C161.394 234.954 161.48 235.391 161.659 235.786C161.838 236.189 162.077 236.542 162.384 236.836C162.691 237.138 163.05 237.373 163.468 237.549C163.886 237.726 164.33 237.81 164.808 237.81H167.385V240.464H164.808V240.472Z" fill="#606161"/>
<path d="M191.521 240.473H189.976L184.447 222.971L184.353 221.77L184.259 222.971L178.729 240.473H177.159L169.283 217.252H172.159L177.783 234.804L177.876 236.005L177.97 234.804L183.5 217.252H185.206L190.71 234.804L190.804 236.005L190.898 234.804L196.522 217.252H199.397L191.521 240.473Z" fill="#606161"/>
<path d="M216.984 236.755C216.626 237.587 216.13 238.309 215.499 238.93C214.868 239.552 214.134 240.039 213.289 240.391C212.444 240.744 211.548 240.92 210.592 240.92H208.707C207.751 240.92 206.855 240.744 206.01 240.391C205.165 240.039 204.432 239.552 203.8 238.93C203.168 238.309 202.674 237.587 202.315 236.755C201.957 235.923 201.777 235.042 201.777 234.101V223.628C201.777 222.688 201.957 221.806 202.315 220.974C202.674 220.143 203.168 219.421 203.8 218.799C204.432 218.178 205.165 217.691 206.01 217.338C206.855 216.985 207.751 216.809 208.707 216.809H210.592C211.548 216.809 212.444 216.985 213.289 217.338C214.134 217.691 214.868 218.178 215.499 218.799C216.13 219.421 216.626 220.143 216.984 220.974C217.342 221.806 217.522 222.688 217.522 223.628V234.101C217.522 235.042 217.342 235.923 216.984 236.755ZM214.688 223.468C214.688 222.906 214.577 222.385 214.364 221.89C214.151 221.403 213.86 220.974 213.485 220.605C213.118 220.243 212.683 219.958 212.18 219.74C211.676 219.53 211.147 219.421 210.575 219.421H208.69C208.118 219.421 207.589 219.53 207.085 219.74C206.582 219.95 206.155 220.235 205.78 220.605C205.413 220.966 205.123 221.394 204.901 221.89C204.687 222.377 204.576 222.906 204.576 223.468V234.26C204.576 234.823 204.687 235.344 204.901 235.839C205.114 236.335 205.404 236.755 205.78 237.124C206.146 237.485 206.582 237.771 207.085 237.989C207.589 238.208 208.118 238.309 208.69 238.309H210.575C211.147 238.309 211.676 238.199 212.18 237.989C212.675 237.78 213.11 237.494 213.485 237.124C213.86 236.755 214.142 236.335 214.364 235.839C214.577 235.352 214.688 234.823 214.688 234.26V223.468Z" fill="#606161"/>
<path d="M229.182 219.905C228.61 219.905 228.081 220.014 227.578 220.224C227.075 220.434 226.648 220.72 226.272 221.089C225.906 221.451 225.615 221.878 225.393 222.374C225.18 222.861 225.069 223.39 225.069 223.953V240.481H222.236V217.26H223.183L224.728 219.62C225.377 218.755 226.179 218.074 227.16 217.57C228.133 217.066 229.199 216.814 230.351 216.814H232.007V219.922H229.174L229.182 219.905Z" fill="#606161"/>
<path d="M235.793 240.473V207.963H238.626V240.473H235.793ZM248.806 240.473L239.181 228.866L248.806 217.26H252.493L242.637 228.866L252.493 240.473H248.806Z" fill="#606161"/>
<path d="M273.34 210.608C272.862 210.608 272.418 210.692 272.018 210.868C271.608 211.044 271.249 211.28 270.942 211.582C270.635 211.884 270.396 212.237 270.217 212.648C270.038 213.06 269.952 213.496 269.952 213.967V217.251H275.456V219.905H269.952V240.472H267.119V219.905H262.861V217.251H267.119V214.101C267.119 213.253 267.281 212.455 267.605 211.708C267.93 210.96 268.373 210.305 268.945 209.742C269.517 209.18 270.174 208.743 270.925 208.424C271.676 208.105 272.487 207.945 273.34 207.945H275.943V210.599H273.34V210.608Z" fill="#606161"/>
<path d="M293.054 236.755C292.695 237.587 292.201 238.309 291.569 238.93C290.938 239.552 290.204 240.039 289.359 240.391C288.514 240.744 287.618 240.92 286.663 240.92H284.776C283.821 240.92 282.925 240.744 282.08 240.391C281.235 240.039 280.501 239.552 279.87 238.93C279.238 238.309 278.743 237.587 278.385 236.755C278.027 235.923 277.848 235.042 277.848 234.101V223.628C277.848 222.688 278.027 221.806 278.385 220.974C278.743 220.143 279.238 219.421 279.87 218.799C280.501 218.178 281.235 217.691 282.08 217.338C282.925 216.985 283.821 216.809 284.776 216.809H286.663C287.618 216.809 288.514 216.985 289.359 217.338C290.204 217.691 290.938 218.178 291.569 218.799C292.201 219.421 292.695 220.143 293.054 220.974C293.412 221.806 293.591 222.688 293.591 223.628V234.101C293.591 235.042 293.412 235.923 293.054 236.755ZM290.758 223.468C290.758 222.906 290.647 222.385 290.434 221.89C290.221 221.403 289.931 220.974 289.555 220.605C289.188 220.243 288.753 219.958 288.25 219.74C287.746 219.53 287.217 219.421 286.645 219.421H284.759C284.188 219.421 283.658 219.53 283.155 219.74C282.652 219.95 282.225 220.235 281.849 220.605C281.483 220.966 281.192 221.394 280.97 221.89C280.757 222.377 280.647 222.906 280.647 223.468V234.26C280.647 234.823 280.757 235.344 280.97 235.839C281.184 236.335 281.474 236.755 281.849 237.124C282.217 237.485 282.652 237.771 283.155 237.989C283.658 238.208 284.188 238.309 284.759 238.309H286.645C287.217 238.309 287.746 238.199 288.25 237.989C288.744 237.78 289.18 237.494 289.555 237.124C289.931 236.755 290.212 236.335 290.434 235.839C290.647 235.352 290.758 234.823 290.758 234.26V223.468Z" fill="#606161"/>
<path d="M305.253 219.905C304.681 219.905 304.152 220.014 303.648 220.224C303.145 220.434 302.718 220.72 302.343 221.089C301.976 221.451 301.686 221.878 301.464 222.374C301.25 222.861 301.14 223.39 301.14 223.953V240.481H298.307V217.26H299.254L300.798 219.62C301.447 218.755 302.249 218.074 303.23 217.57C304.203 217.066 305.27 216.814 306.422 216.814H308.077V219.922H305.244L305.253 219.905Z" fill="#606161"/>
<path d="M339.75 235.596C339.332 236.562 338.751 237.41 338.009 238.132C337.266 238.854 336.405 239.426 335.415 239.845C334.425 240.265 333.367 240.467 332.249 240.467H321.787V207.957H332.249C333.367 207.957 334.425 208.167 335.415 208.578C336.405 208.99 337.266 209.561 338.009 210.291C338.743 211.014 339.323 211.87 339.75 212.845C340.176 213.819 340.381 214.86 340.381 215.961V232.488C340.381 233.588 340.168 234.63 339.75 235.596ZM337.412 215.961C337.412 215.238 337.275 214.558 336.993 213.928C336.72 213.298 336.336 212.752 335.85 212.273C335.364 211.795 334.808 211.425 334.169 211.148C333.529 210.871 332.846 210.737 332.104 210.737H324.756V237.67H332.104C332.838 237.67 333.529 237.536 334.169 237.259C334.808 236.981 335.364 236.62 335.85 236.15C336.336 235.68 336.712 235.134 336.993 234.504C337.266 233.874 337.412 233.202 337.412 232.472V215.944V215.961Z" fill="#606161"/>
<path d="M345.334 211.677V207.957H348.628V211.677H345.334ZM345.565 240.475V217.254H348.397V240.475H345.565Z" fill="#606161"/>
<path d="M369.498 245.981C369.14 246.771 368.645 247.442 368.013 247.996C367.382 248.551 366.648 248.988 365.803 249.299C364.959 249.609 364.062 249.76 363.107 249.76H361.929C360.973 249.76 360.077 249.601 359.233 249.299C358.388 248.988 357.654 248.551 357.023 247.996C356.391 247.442 355.896 246.762 355.538 245.981C355.179 245.192 355 244.335 355 243.395V243.302C355 242.395 355.171 241.563 355.504 240.807C355.845 240.052 356.306 239.397 356.886 238.834C356.152 238.397 355.564 237.801 355.128 237.053C354.693 236.306 354.471 235.475 354.471 234.568C354.471 233.753 354.65 232.989 355 232.292C355.35 231.595 355.836 231.015 356.451 230.578C355.717 229.94 355.128 229.184 354.701 228.286C354.275 227.395 354.053 226.421 354.053 225.363V223.616C354.053 222.675 354.232 221.794 354.59 220.962C354.949 220.131 355.444 219.409 356.076 218.787C356.707 218.165 357.441 217.678 358.285 217.326C359.13 216.973 360.026 216.797 360.982 216.797H362.16C363.312 216.797 364.379 217.049 365.351 217.553C366.324 218.056 367.134 218.745 367.783 219.602L369.328 217.242H370.275V225.363C370.275 226.304 370.096 227.185 369.737 228.017C369.379 228.848 368.884 229.571 368.252 230.192C367.621 230.814 366.887 231.3 366.042 231.653C365.198 232.006 364.301 232.182 363.346 232.182H359.241C358.917 232.182 358.61 232.25 358.32 232.375C358.029 232.502 357.774 232.678 357.552 232.888C357.33 233.098 357.159 233.35 357.031 233.644C356.912 233.938 356.844 234.24 356.844 234.559C356.844 234.878 356.903 235.181 357.031 235.466C357.151 235.752 357.33 236.004 357.552 236.222C357.774 236.44 358.029 236.608 358.32 236.734C358.61 236.86 358.917 236.919 359.241 236.919H363.115C364.071 236.919 364.967 237.079 365.812 237.381C366.657 237.692 367.39 238.128 368.022 238.683C368.653 239.237 369.148 239.917 369.507 240.699C369.865 241.488 370.045 242.345 370.045 243.285V243.378C370.045 244.318 369.865 245.175 369.507 245.964L369.498 245.981ZM367.459 223.465C367.459 222.902 367.348 222.382 367.135 221.886C366.921 221.399 366.622 220.971 366.247 220.601C365.871 220.24 365.436 219.954 364.933 219.736C364.43 219.518 363.901 219.417 363.329 219.417H360.982C360.411 219.417 359.882 219.526 359.378 219.736C358.874 219.946 358.447 220.232 358.081 220.601C357.714 220.971 357.424 221.39 357.202 221.886C356.98 222.382 356.877 222.902 356.877 223.465V225.531C356.877 226.093 356.988 226.614 357.202 227.11C357.415 227.606 357.705 228.025 358.081 228.395C358.456 228.764 358.883 229.042 359.378 229.26C359.873 229.47 360.411 229.579 360.982 229.579H363.329C363.901 229.579 364.43 229.47 364.933 229.26C365.428 229.05 365.871 228.764 366.247 228.395C366.622 228.034 366.921 227.606 367.135 227.11C367.348 226.622 367.459 226.093 367.459 225.531V223.465ZM367.339 243.168C367.339 242.605 367.228 242.109 367.015 241.656C366.801 241.211 366.511 240.833 366.136 240.531C365.769 240.228 365.334 239.993 364.839 239.825C364.335 239.657 363.807 239.573 363.235 239.573H361.784C361.213 239.573 360.683 239.657 360.18 239.825C359.685 239.993 359.25 240.228 358.874 240.531C358.499 240.833 358.217 241.211 357.995 241.656C357.782 242.101 357.671 242.605 357.671 243.168V243.529C357.671 244.091 357.782 244.587 357.995 245.024C358.209 245.46 358.499 245.838 358.874 246.149C359.241 246.46 359.676 246.695 360.18 246.863C360.675 247.031 361.213 247.115 361.784 247.115H363.235C363.807 247.115 364.335 247.031 364.839 246.863C365.334 246.695 365.769 246.46 366.136 246.149C366.503 245.838 366.793 245.469 367.015 245.024C367.228 244.587 367.339 244.083 367.339 243.529V243.168Z" fill="#606161"/>
<path d="M375.262 211.677V207.957H378.555V211.677H375.262ZM375.492 240.475V217.254H378.325V240.475H375.492Z" fill="#606161"/>
<path d="M392.585 240.472C391.723 240.472 390.913 240.313 390.153 239.993C389.394 239.674 388.736 239.238 388.173 238.675C387.61 238.112 387.166 237.465 386.834 236.727C386.5 235.988 386.338 235.189 386.338 234.35V219.904H382.098V217.25H386.338V211.674L389.172 211.221V217.25H395.162V219.904H389.172V234.484C389.172 234.954 389.257 235.391 389.436 235.786C389.615 236.189 389.854 236.542 390.162 236.836C390.468 237.129 390.827 237.373 391.245 237.549C391.663 237.726 392.107 237.81 392.585 237.81H395.162V240.464H392.585V240.472Z" fill="#606161"/>
<path d="M414.244 240.473L412.674 238.163C412.026 238.995 411.224 239.666 410.251 240.17C409.287 240.674 408.22 240.926 407.068 240.926H406.351C405.395 240.926 404.5 240.75 403.654 240.397C402.81 240.044 402.076 239.557 401.444 238.936C400.813 238.314 400.318 237.592 399.96 236.76C399.601 235.929 399.422 235.047 399.422 234.107V233.88C399.422 232.939 399.601 232.057 399.96 231.226C400.318 230.395 400.813 229.672 401.444 229.051C402.076 228.43 402.81 227.942 403.654 227.589C404.5 227.237 405.395 227.06 406.351 227.06H412.341V223.474C412.341 222.912 412.23 222.391 412.017 221.895C411.804 221.408 411.514 220.98 411.138 220.61C410.771 220.249 410.336 219.964 409.833 219.745C409.329 219.527 408.8 219.426 408.229 219.426H406.573C406.001 219.426 405.472 219.535 404.969 219.745C404.465 219.955 404.039 220.241 403.663 220.61C403.296 220.971 403.006 221.4 402.784 221.895C402.562 222.391 402.46 222.912 402.46 223.474V224.314L399.627 223.86V223.634C399.627 222.694 399.806 221.812 400.164 220.98C400.523 220.149 401.018 219.426 401.649 218.805C402.281 218.184 403.014 217.696 403.86 217.344C404.704 216.991 405.6 216.814 406.556 216.814H408.211C409.167 216.814 410.063 216.991 410.908 217.344C411.753 217.696 412.487 218.184 413.118 218.805C413.749 219.426 414.244 220.149 414.603 220.98C414.961 221.812 415.14 222.694 415.14 223.634V240.481H414.193L414.244 240.473ZM412.358 229.227H406.368C405.797 229.227 405.268 229.337 404.764 229.546C404.261 229.756 403.834 230.05 403.467 230.42C403.1 230.789 402.81 231.217 402.588 231.713C402.366 232.209 402.264 232.73 402.264 233.292V234.266C402.264 234.829 402.374 235.349 402.588 235.845C402.801 236.341 403.092 236.76 403.467 237.13C403.834 237.491 404.269 237.777 404.764 237.995C405.259 238.213 405.797 238.314 406.368 238.314H408.254C408.826 238.314 409.355 238.205 409.858 237.995C410.362 237.785 410.788 237.499 411.164 237.13C411.539 236.76 411.821 236.341 412.043 235.845C412.256 235.358 412.367 234.829 412.367 234.266V229.235L412.358 229.227Z" fill="#606161"/>
<path d="M420.857 240.473V207.963H423.691V240.473H420.857Z" fill="#606161"/>
<path d="M457.683 236.048C457.264 237.014 456.684 237.862 455.942 238.585C455.199 239.307 454.346 239.878 453.365 240.298C452.384 240.71 451.334 240.919 450.208 240.919H447.861C446.743 240.919 445.685 240.71 444.695 240.298C443.705 239.886 442.843 239.307 442.101 238.585C441.367 237.862 440.787 237.014 440.36 236.048C439.934 235.082 439.729 234.041 439.729 232.941V215.48C439.729 214.38 439.942 213.339 440.36 212.373C440.778 211.407 441.367 210.559 442.101 209.837C442.835 209.115 443.705 208.543 444.695 208.123C445.685 207.712 446.743 207.502 447.861 207.502H450.208C451.326 207.502 452.384 207.712 453.365 208.123C454.346 208.543 455.208 209.115 455.942 209.837C456.676 210.559 457.256 211.407 457.683 212.373C458.101 213.339 458.314 214.38 458.314 215.48V216.799L455.345 217.253V215.489C455.345 214.767 455.208 214.086 454.935 213.457C454.662 212.827 454.278 212.281 453.808 211.811C453.339 211.34 452.776 210.971 452.136 210.702C451.496 210.433 450.813 210.29 450.071 210.29H447.998C447.263 210.29 446.572 210.425 445.932 210.702C445.292 210.979 444.738 211.34 444.251 211.811C443.765 212.281 443.39 212.827 443.108 213.457C442.826 214.086 442.69 214.758 442.69 215.489V232.949C442.69 233.672 442.826 234.352 443.108 234.982C443.39 235.611 443.765 236.157 444.251 236.636C444.738 237.115 445.292 237.485 445.932 237.761C446.572 238.039 447.255 238.173 447.998 238.173H450.071C450.805 238.173 451.496 238.039 452.136 237.761C452.776 237.485 453.331 237.115 453.808 236.636C454.286 236.157 454.662 235.611 454.935 234.982C455.208 234.352 455.345 233.68 455.345 232.949V231.177L458.314 231.656V232.949C458.314 234.05 458.101 235.091 457.683 236.057V236.048Z" fill="#606161"/>
<path d="M478.255 236.755C477.897 237.587 477.402 238.309 476.771 238.93C476.139 239.552 475.405 240.039 474.56 240.391C473.716 240.744 472.819 240.92 471.864 240.92H469.978C469.022 240.92 468.127 240.744 467.281 240.391C466.437 240.039 465.703 239.552 465.072 238.93C464.44 238.309 463.945 237.587 463.587 236.755C463.228 235.923 463.049 235.042 463.049 234.101V223.628C463.049 222.688 463.228 221.806 463.587 220.974C463.945 220.143 464.44 219.421 465.072 218.799C465.703 218.178 466.437 217.691 467.281 217.338C468.127 216.985 469.022 216.809 469.978 216.809H471.864C472.819 216.809 473.716 216.985 474.56 217.338C475.405 217.691 476.139 218.178 476.771 218.799C477.402 219.421 477.897 220.143 478.255 220.974C478.614 221.806 478.793 222.688 478.793 223.628V234.101C478.793 235.042 478.614 235.923 478.255 236.755ZM475.96 223.468C475.96 222.906 475.849 222.385 475.636 221.89C475.423 221.403 475.132 220.974 474.757 220.605C474.39 220.243 473.955 219.958 473.451 219.74C472.948 219.521 472.418 219.421 471.847 219.421H469.961C469.389 219.421 468.86 219.53 468.357 219.74C467.853 219.95 467.427 220.235 467.06 220.605C466.693 220.974 466.402 221.394 466.181 221.89C465.959 222.385 465.857 222.906 465.857 223.468V234.26C465.857 234.823 465.968 235.344 466.181 235.839C466.394 236.335 466.684 236.755 467.06 237.124C467.427 237.485 467.862 237.771 468.357 237.989C468.851 238.208 469.389 238.309 469.961 238.309H471.847C472.418 238.309 472.948 238.199 473.451 237.989C473.955 237.78 474.381 237.494 474.757 237.124C475.132 236.755 475.414 236.335 475.636 235.839C475.849 235.352 475.96 234.823 475.96 234.26V223.468Z" fill="#606161"/>
<path d="M508.418 240.475V223.468C508.418 222.906 508.307 222.385 508.094 221.89C507.881 221.403 507.591 220.974 507.215 220.605C506.848 220.243 506.413 219.958 505.91 219.74C505.406 219.521 504.877 219.421 504.305 219.421H502.897C502.326 219.421 501.797 219.53 501.293 219.74C500.79 219.95 500.355 220.235 499.979 220.605C499.603 220.966 499.305 221.394 499.091 221.89C498.878 222.377 498.768 222.906 498.768 223.468V240.475H495.96V223.468C495.96 222.906 495.849 222.385 495.635 221.89C495.422 221.394 495.123 220.974 494.748 220.605C494.373 220.243 493.937 219.958 493.434 219.74C492.931 219.521 492.402 219.421 491.83 219.421H490.422C489.85 219.421 489.321 219.53 488.817 219.74C488.314 219.95 487.887 220.235 487.52 220.605C487.154 220.974 486.864 221.394 486.641 221.89C486.419 222.385 486.317 222.906 486.317 223.468V240.475H483.484V217.254H484.431L485.976 219.614C486.625 218.749 487.435 218.068 488.408 217.564C489.381 217.061 490.447 216.809 491.599 216.809H491.83C493.17 216.809 494.373 217.136 495.448 217.783C496.523 218.43 497.351 219.295 497.94 220.37C498.23 219.841 498.588 219.353 499.023 218.917C499.45 218.48 499.928 218.102 500.448 217.791C500.969 217.481 501.54 217.237 502.155 217.069C502.769 216.893 503.409 216.809 504.066 216.809H504.297C505.253 216.809 506.148 216.985 506.993 217.338C507.838 217.691 508.572 218.178 509.203 218.799C509.835 219.421 510.33 220.143 510.688 220.974C511.047 221.806 511.226 222.688 511.226 223.628V240.475H508.393H508.418Z" fill="#606161"/>
<path d="M540.868 240.475V223.468C540.868 222.906 540.757 222.385 540.543 221.89C540.33 221.403 540.04 220.974 539.664 220.605C539.298 220.243 538.863 219.958 538.359 219.74C537.855 219.521 537.326 219.421 536.755 219.421H535.347C534.775 219.421 534.246 219.53 533.743 219.74C533.239 219.95 532.804 220.235 532.428 220.605C532.053 220.966 531.754 221.394 531.541 221.89C531.328 222.377 531.217 222.906 531.217 223.468V240.475H528.409V223.468C528.409 222.906 528.299 222.385 528.085 221.89C527.872 221.394 527.573 220.974 527.198 220.605C526.822 220.243 526.387 219.958 525.883 219.74C525.38 219.521 524.851 219.421 524.279 219.421H522.871C522.3 219.421 521.771 219.53 521.267 219.74C520.764 219.95 520.337 220.235 519.97 220.605C519.603 220.974 519.313 221.394 519.091 221.89C518.869 222.385 518.767 222.906 518.767 223.468V240.475H515.934V217.254H516.881L518.425 219.614C519.074 218.749 519.885 218.068 520.857 217.564C521.83 217.061 522.897 216.809 524.049 216.809H524.279C525.619 216.809 526.822 217.136 527.897 217.783C528.972 218.43 529.8 219.295 530.389 220.37C530.679 219.841 531.038 219.353 531.473 218.917C531.899 218.48 532.377 218.102 532.898 217.791C533.418 217.481 533.99 217.237 534.605 217.069C535.219 216.893 535.859 216.809 536.516 216.809H536.746C537.702 216.809 538.598 216.985 539.443 217.338C540.288 217.691 541.022 218.178 541.653 218.799C542.284 219.421 542.779 220.143 543.138 220.974C543.496 221.806 543.675 222.688 543.675 223.628V240.475H540.842H540.868Z" fill="#606161"/>
<path d="M563.634 236.755C563.276 237.587 562.78 238.309 562.149 238.93C561.518 239.552 560.783 240.039 559.939 240.391C559.094 240.744 558.198 240.92 557.242 240.92H555.356C554.401 240.92 553.505 240.744 552.66 240.391C551.815 240.039 551.081 239.552 550.45 238.93C549.818 238.309 549.324 237.587 548.965 236.755C548.607 235.923 548.428 235.042 548.428 234.101V223.628C548.428 222.688 548.607 221.806 548.965 220.974C549.324 220.143 549.818 219.421 550.45 218.799C551.081 218.178 551.815 217.691 552.66 217.338C553.505 216.985 554.401 216.809 555.356 216.809H557.242C558.198 216.809 559.094 216.985 559.939 217.338C560.783 217.691 561.518 218.178 562.149 218.799C562.78 219.421 563.276 220.143 563.634 220.974C563.992 221.806 564.171 222.688 564.171 223.628V229.096H551.244V234.269C551.244 234.832 551.355 235.352 551.568 235.848C551.781 236.343 552.071 236.763 552.447 237.133C552.814 237.494 553.249 237.78 553.744 237.998C554.238 238.216 554.776 238.317 555.348 238.317H557.234C557.805 238.317 558.334 238.207 558.838 237.998C559.341 237.788 559.768 237.502 560.143 237.133C560.519 236.763 560.801 236.343 561.022 235.848C561.236 235.361 561.347 234.832 561.347 234.269V232.724L564.18 233.177V234.109C564.18 235.05 564 235.932 563.642 236.763L563.634 236.755ZM561.338 223.468C561.338 222.906 561.228 222.385 561.014 221.89C560.801 221.403 560.511 220.974 560.135 220.605C559.768 220.243 559.333 219.958 558.83 219.74C558.326 219.521 557.797 219.421 557.225 219.421H555.339C554.767 219.421 554.238 219.53 553.735 219.74C553.232 219.95 552.805 220.235 552.438 220.605C552.071 220.974 551.781 221.394 551.559 221.89C551.337 222.385 551.235 222.906 551.235 223.468V226.912H561.33V223.468H561.338Z" fill="#606161"/>
<path d="M575.847 219.905C575.276 219.905 574.747 220.014 574.244 220.224C573.74 220.434 573.313 220.72 572.946 221.089C572.579 221.459 572.289 221.878 572.067 222.374C571.846 222.87 571.743 223.39 571.743 223.953V240.481H568.91V217.26H569.857L571.402 219.62C572.05 218.755 572.861 218.074 573.834 217.57C574.806 217.066 575.873 216.814 577.025 216.814H578.681V219.922H575.847V219.905Z" fill="#606161"/>
<path d="M596.742 236.755C596.382 237.587 595.888 238.309 595.26 238.93C594.626 239.552 593.894 240.039 593.045 240.391C592.202 240.744 591.307 240.92 590.348 240.92H588.464C587.511 240.92 586.61 240.744 585.767 240.391C584.924 240.039 584.192 239.552 583.558 238.93C582.924 238.309 582.43 237.587 582.076 236.755C581.715 235.923 581.535 235.042 581.535 234.101V223.628C581.535 222.688 581.715 221.806 582.076 220.974C582.43 220.143 582.924 219.421 583.558 218.799C584.192 218.178 584.924 217.691 585.767 217.338C586.61 216.985 587.511 216.809 588.464 216.809H590.348C591.307 216.809 592.202 216.985 593.045 217.338C593.894 217.691 594.626 218.178 595.26 218.799C595.888 219.421 596.382 220.143 596.742 220.974C597.103 221.806 597.277 222.688 597.277 223.628V224.56L594.446 225.014V223.468C594.446 222.906 594.336 222.385 594.12 221.89C593.911 221.403 593.621 220.974 593.243 220.605C592.876 220.243 592.441 219.958 591.935 219.74C591.435 219.521 590.906 219.421 590.336 219.421H588.447C587.877 219.421 587.348 219.53 586.843 219.74C586.343 219.95 585.912 220.235 585.546 220.605C585.18 220.974 584.889 221.394 584.668 221.89C584.448 222.385 584.343 222.906 584.343 223.468V234.26C584.343 234.823 584.453 235.344 584.668 235.839C584.878 236.335 585.168 236.755 585.546 237.124C585.912 237.485 586.348 237.771 586.843 237.989C587.337 238.208 587.877 238.309 588.447 238.309H590.336C590.906 238.309 591.435 238.199 591.935 237.989C592.441 237.78 592.865 237.494 593.243 237.124C593.621 236.755 593.9 236.335 594.12 235.839C594.336 235.352 594.446 234.823 594.446 234.26V232.715L597.277 233.168V234.101C597.277 235.042 597.103 235.923 596.742 236.755Z" fill="#606161"/>
<path d="M617.221 236.755C616.866 237.587 616.372 238.309 615.738 238.93C615.105 239.552 614.372 240.039 613.529 240.391C612.681 240.744 611.786 240.92 610.832 240.92H608.943C607.99 240.92 607.094 240.744 606.251 240.391C605.403 240.039 604.67 239.552 604.037 238.93C603.409 238.309 602.915 237.587 602.554 236.755C602.194 235.923 602.014 235.042 602.014 234.101V223.628C602.014 222.688 602.194 221.806 602.554 220.974C602.915 220.143 603.409 219.421 604.037 218.799C604.67 218.178 605.403 217.691 606.251 217.338C607.094 216.985 607.99 216.809 608.943 216.809H610.832C611.786 216.809 612.681 216.985 613.529 217.338C614.372 217.691 615.105 218.178 615.738 218.799C616.372 219.421 616.866 220.143 617.221 220.974C617.581 221.806 617.761 222.688 617.761 223.628V229.096H604.833V234.269C604.833 234.832 604.943 235.352 605.159 235.848C605.368 236.343 605.658 236.763 606.036 237.133C606.403 237.494 606.839 237.78 607.333 237.998C607.827 238.216 608.367 238.317 608.937 238.317H610.821C611.396 238.317 611.925 238.207 612.425 237.998C612.931 237.788 613.355 237.502 613.733 237.133C614.111 236.763 614.39 236.343 614.611 235.848C614.826 235.361 614.936 234.832 614.936 234.269V232.724L617.767 233.177V234.109C617.767 235.05 617.587 235.932 617.232 236.763L617.221 236.755ZM614.925 223.468C614.925 222.906 614.814 222.385 614.605 221.89C614.39 221.403 614.099 220.974 613.727 220.605C613.355 220.243 612.925 219.958 612.419 219.74C611.913 219.521 611.384 219.421 610.815 219.421H608.931C608.356 219.421 607.827 219.53 607.327 219.74C606.821 219.95 606.397 220.235 606.025 220.605C605.658 220.974 605.368 221.394 605.147 221.89C604.926 222.385 604.821 222.906 604.821 223.468V226.912H614.919L614.925 223.468Z" fill="#606161"/>
<path d="M75.2376 36.0566C97.8679 36.0566 116.061 42.8258 129.825 56.3723C143.589 69.9188 150.476 87.8241 150.476 110.097C150.476 132.369 143.563 150.157 129.757 163.754C115.941 177.351 97.7656 184.145 75.2463 184.145C52.7271 184.145 34.6621 177.326 20.8041 163.678C6.92902 150.039 0 132.176 0 110.097C0 88.0171 6.90339 70.0363 20.7188 56.4479C34.5341 42.8509 52.71 36.0566 75.2376 36.0566ZM75.2376 65.7031C57.9409 65.7031 45.0386 72.4218 36.5224 85.8758C32.2558 92.6281 30.131 100.699 30.131 110.097C30.131 118.68 32.0424 126.373 35.8653 133.167C39.876 140.305 45.6615 145.722 53.2049 149.443C60.0654 152.811 67.4044 154.499 75.2463 154.499C92.5344 154.499 105.445 147.755 113.961 134.259C118.228 127.557 120.353 119.511 120.353 110.105C120.353 96.0293 115.754 84.9939 106.538 76.9904C97.9104 69.4735 87.4828 65.7113 75.2376 65.7113V65.7031Z" fill="url(#paint0_linear_194_4851)"/>
<path d="M599.41 142.061L621.378 163.678C612.56 172.547 601.445 178.577 588.023 181.76C581.46 183.347 574.427 184.145 566.935 184.145C544.501 184.145 526.359 177.326 512.492 163.678C498.634 150.039 491.705 132.176 491.705 110.097C491.705 88.0171 498.609 70.0363 512.424 56.4479C526.231 42.8509 544.406 36.0566 566.935 36.0566C589.464 36.0566 607.764 42.8258 621.529 56.3723L599.41 78.1409C590.795 69.8433 579.965 65.7031 566.935 65.7031C549.646 65.7031 536.744 72.4218 528.219 85.8758C523.961 92.6281 521.828 100.699 521.828 110.097C521.828 118.68 523.748 126.373 527.562 133.167C531.581 140.305 537.358 145.722 544.902 149.443C551.762 152.811 559.11 154.499 566.943 154.499C579.973 154.499 590.801 150.358 599.422 142.061H599.41Z" fill="url(#paint1_linear_194_4851)"/>
<path d="M387.26 62.5479C389.521 62.5479 391.356 60.7427 391.356 58.5171C391.356 56.2913 389.521 54.4941 387.26 54.4941C384.999 54.4941 383.164 56.2998 383.164 58.5171C383.164 60.734 384.999 62.5479 387.26 62.5479Z" fill="url(#paint2_linear_194_4851)"/>
<path d="M334.752 107.52C334.752 107.999 335.614 108.007 335.623 107.52C335.623 107.277 335.435 107.092 335.187 107.092C334.94 107.092 334.752 107.277 334.752 107.52Z" fill="url(#paint3_linear_194_4851)"/>
<path d="M456.311 56.3733C447.411 47.6222 436.659 41.7182 424.072 38.6191L416.367 46.2112C418.014 49.9905 418.935 54.1477 418.935 58.5146C418.935 61.8576 418.398 65.0826 417.399 68.1059C423.134 69.9704 428.348 72.9094 433.024 76.9826C442.231 84.9867 446.831 96.0222 446.831 110.098C446.831 119.504 444.706 127.549 440.439 134.251C431.923 147.748 419.021 154.491 401.724 154.491H356.609V115.918C353.204 124.291 344.892 130.22 335.19 130.22C332.109 130.22 329.174 129.615 326.486 128.54V184.146H401.724C424.252 184.146 442.428 177.352 456.234 163.755C470.058 150.158 476.953 132.278 476.953 110.098C476.953 87.9175 470.075 69.9198 456.32 56.3733H456.311Z" fill="url(#paint4_linear_194_4851)"/>
<path d="M409.232 67.126L389.204 58.7196C388.103 58.2574 386.977 59.358 387.455 60.4412L395.996 80.1522C396.21 80.6476 396.713 80.9749 397.285 80.9499C397.84 80.9249 398.326 80.572 398.497 80.051L401.133 72.1819L409.129 69.5871C409.658 69.4191 410.025 68.94 410.043 68.3946C410.068 67.8487 409.744 67.3446 409.232 67.126ZM399.657 69.8894C399.256 70.0237 398.941 70.326 398.804 70.7289L397.063 75.9191L391.209 62.415L404.931 68.176L399.657 69.8894Z" fill="#939598"/>
<path d="M387.268 43.9961C379.136 43.9961 372.514 50.5132 372.514 58.5171C372.514 66.5206 379.136 73.0375 387.268 73.0375C388.335 73.0375 389.205 72.1811 389.205 71.1311C389.205 70.0817 388.335 69.2247 387.268 69.2247C381.269 69.2247 376.388 64.4212 376.388 58.5171C376.388 52.6128 381.269 47.8089 387.268 47.8089C393.267 47.8089 398.148 52.6128 398.148 58.5171C398.148 59.5666 399.018 60.4235 400.085 60.4235C401.151 60.4235 402.022 59.5666 402.022 58.5171C402.022 50.5132 395.4 43.9961 387.268 43.9961Z" fill="#44823D"/>
<path d="M403.777 42.2568C399.349 37.898 393.478 35.4961 387.257 35.4961C381.037 35.4961 375.165 37.898 370.737 42.2568C361.632 51.2178 361.632 65.8056 370.737 74.7753C375.165 79.1341 381.037 81.5358 387.257 81.5358C388.324 81.5358 389.194 80.6794 389.194 79.6294C389.194 78.58 388.324 77.723 387.257 77.723C376.497 77.723 367.742 69.1061 367.742 58.516C367.742 47.9257 376.497 39.3089 387.257 39.3089C398.018 39.3089 406.773 47.9257 406.773 58.516C406.773 59.566 407.643 60.4224 408.71 60.4224C409.777 60.4224 410.647 59.566 410.647 58.516C410.647 52.3936 408.206 46.6155 403.777 42.2568Z" fill="#F29C49"/>
<path d="M159.588 184.147H189.711V89.3042L249.878 136.679V107.143L159.588 36.0586V184.147Z" fill="url(#paint5_linear_194_4851)"/>
<path d="M355.573 58.5159C355.573 54.1487 356.486 49.9915 358.141 46.2122L352.885 41.0304C347.296 41.5847 342.073 39.5775 338.31 36.0586H271.375V160.422L301.497 184.139V65.7048H356.434C355.88 63.3955 355.581 60.985 355.581 58.5159H355.573Z" fill="url(#paint6_linear_194_4851)"/>
<path d="M423.477 85.2468C421.804 85.2468 420.251 85.7258 418.903 86.5066L411.206 78.9316C410.216 80.0566 409.149 81.1066 408.006 82.0811L415.703 89.6561C414.901 90.9834 414.414 92.5119 414.414 94.1578C414.414 99.0706 418.476 103.068 423.468 103.068C428.46 103.068 432.522 99.0706 432.522 94.1578C432.522 89.2444 428.46 85.2468 423.468 85.2468H423.477ZM423.477 98.609C420.977 98.609 418.954 96.6101 418.954 94.1578C418.954 91.7055 420.985 89.7066 423.477 89.7066C425.968 89.7066 427.999 91.7055 427.999 94.1578C427.999 96.6101 425.968 98.609 423.477 98.609Z" fill="url(#paint7_linear_194_4851)"/>
<path d="M432.522 2.82812C425.029 2.82812 418.945 8.82453 418.945 16.1899C418.945 18.4995 419.543 20.6663 420.592 22.5643L408.006 34.9519C409.149 35.9261 410.216 36.9759 411.206 38.1013L423.426 26.0748C425.832 28.2248 429.023 29.5517 432.531 29.5517C440.023 29.5517 446.107 23.5553 446.107 16.1899C446.107 8.82453 440.014 2.82812 432.531 2.82812H432.522ZM432.522 25.1006C427.53 25.1006 423.468 21.103 423.468 16.1899C423.468 11.2769 427.53 7.27924 432.522 7.27924C437.514 7.27924 441.576 11.2769 441.576 16.1899C441.576 21.103 437.514 25.1006 432.522 25.1006Z" fill="url(#paint8_linear_194_4851)"/>
<path d="M351.05 31.7823C352.722 31.7823 354.276 31.3036 355.624 30.5225L363.321 38.0979C364.311 36.9724 365.377 35.9226 366.521 34.9484L358.824 27.3731C359.617 26.0462 360.104 24.5261 360.104 22.8716C360.104 17.9586 356.042 13.9609 351.05 13.9609C346.058 13.9609 341.996 17.9586 341.996 22.8716C341.996 27.7847 346.058 31.7823 351.05 31.7823ZM351.05 18.4205C353.55 18.4205 355.573 20.4193 355.573 22.8716C355.573 25.3239 353.542 27.3227 351.05 27.3227C348.558 27.3227 346.527 25.3239 346.527 22.8716C346.527 20.4193 348.558 18.4205 351.05 18.4205Z" fill="url(#paint9_linear_194_4851)"/>
<path d="M366.512 82.0811C365.369 81.1066 364.302 80.0566 363.312 78.9316L344.308 97.6346C341.894 95.4846 338.71 94.1578 335.203 94.1578C327.712 94.1578 321.627 100.154 321.627 107.519C321.627 114.885 327.72 120.881 335.203 120.881C342.687 120.881 348.78 114.885 348.78 107.519C348.78 105.21 348.183 103.043 347.133 101.145L366.512 82.0723V82.0811ZM335.195 116.43C330.203 116.43 326.141 112.433 326.141 107.519C326.141 102.607 330.203 98.609 335.195 98.609C340.187 98.609 344.249 102.607 344.249 107.519C344.249 112.433 340.187 116.43 335.195 116.43Z" fill="url(#paint10_linear_194_4851)"/>
<path d="M389.518 98.8131V89.6172C388.767 89.6672 388.017 89.7009 387.248 89.7009C386.48 89.7009 385.738 89.6672 384.987 89.6172V98.8131C378.579 99.88 373.672 105.364 373.672 111.982C373.672 119.356 379.765 125.343 387.248 125.343C394.732 125.343 400.825 119.347 400.825 111.982C400.825 105.372 395.919 99.88 389.51 98.8131H389.518ZM387.248 120.893C382.257 120.893 378.195 116.895 378.195 111.982C378.195 107.069 382.257 103.071 387.248 103.071C392.241 103.071 396.302 107.069 396.302 111.982C396.302 116.895 392.241 120.893 387.248 120.893Z" fill="url(#paint11_linear_194_4851)"/>
<defs>
<linearGradient id="paint0_linear_194_4851" x1="101.213" y1="116.126" x2="519.495" y2="216.66" gradientUnits="userSpaceOnUse">
<stop stop-color="#1C75BC"/>
<stop offset="1" stop-color="#00AEEF"/>
</linearGradient>
<linearGradient id="paint1_linear_194_4851" x1="127.275" y1="7.71216" x2="545.549" y2="108.254" gradientUnits="userSpaceOnUse">
<stop stop-color="#1C75BC"/>
<stop offset="1" stop-color="#00AEEF"/>
</linearGradient>
<linearGradient id="paint2_linear_194_4851" x1="371.798" y1="55.1576" x2="398.424" y2="61.1311" gradientUnits="userSpaceOnUse">
<stop stop-color="#1C75BC"/>
<stop offset="1" stop-color="#00AEEF"/>
</linearGradient>
<linearGradient id="paint3_linear_194_4851" x1="333.557" y1="107.134" x2="336.378" y2="107.766" gradientUnits="userSpaceOnUse">
<stop stop-color="#1C75BC"/>
<stop offset="1" stop-color="#00AEEF"/>
</linearGradient>
<linearGradient id="paint4_linear_194_4851" x1="129.018" y1="57.9186" x2="601.341" y2="163.789" gradientUnits="userSpaceOnUse">
<stop stop-color="#1C75BC"/>
<stop offset="1" stop-color="#00AEEF"/>
</linearGradient>
<linearGradient id="paint5_linear_194_4851" x1="139.458" y1="103.363" x2="451.606" y2="211.267" gradientUnits="userSpaceOnUse">
<stop stop-color="#1C75BC"/>
<stop offset="1" stop-color="#00AEEF"/>
</linearGradient>
<linearGradient id="paint6_linear_194_4851" x1="156.091" y1="55.2489" x2="468.238" y2="163.161" gradientUnits="userSpaceOnUse">
<stop offset="0.05" stop-color="#1C75BC"/>
<stop offset="1" stop-color="#00AEEF"/>
</linearGradient>
<linearGradient id="paint7_linear_194_4851" x1="353.709" y1="76.3113" x2="460.575" y2="101.992" gradientUnits="userSpaceOnUse">
<stop stop-color="#1C75BC"/>
<stop offset="1" stop-color="#00AEEF"/>
</linearGradient>
<linearGradient id="paint8_linear_194_4851" x1="347.334" y1="2.9289" x2="478.521" y2="34.4608" gradientUnits="userSpaceOnUse">
<stop stop-color="#1C75BC"/>
<stop offset="1" stop-color="#00AEEF"/>
</linearGradient>
<linearGradient id="paint9_linear_194_4851" x1="289.133" y1="10.0641" x2="396.016" y2="35.7535" gradientUnits="userSpaceOnUse">
<stop stop-color="#1C75BC"/>
<stop offset="1" stop-color="#00AEEF"/>
</linearGradient>
<linearGradient id="paint10_linear_194_4851" x1="249.803" y1="76.9409" x2="401.009" y2="113.285" gradientUnits="userSpaceOnUse">
<stop stop-color="#1C75BC"/>
<stop offset="1" stop-color="#00AEEF"/>
</linearGradient>
<linearGradient id="paint11_linear_194_4851" x1="321.892" y1="92.187" x2="429.679" y2="118.092" gradientUnits="userSpaceOnUse">
<stop stop-color="#1C75BC"/>
<stop offset="1" stop-color="#00AEEF"/>
</linearGradient>
</defs>
</svg>
