<svg width="600" height="160" viewBox="0 0 600 160" fill="none" xmlns="http://www.w3.org/2000/svg">
<path d="M146.5 92.7477C141.4 87.1477 137.4 79.8477 140.5 72.2477C143.2 66.4477 145.6 60.5477 146.8 53.8477C147.3 60.8477 151.4 67.0477 153.4 73.7477C154.1 76.9477 154.2 80.3477 153 83.6477C151.7 87.2477 149.5 90.4477 147 93.2477" fill="#D22318"/>
<path d="M173.001 89.447L170.701 87.647L154.401 66.147C153.201 64.647 154.101 63.047 156.001 63.447C160.501 64.247 163.901 62.147 166.701 57.647C169.401 53.5471 169.301 47.647 166.701 43.547C163.701 39.247 157.701 37.647 152.401 38.347C143.401 39.647 136.701 47.947 134.601 56.947C132.401 67.347 134.001 77.147 137.401 86.447C138.201 88.347 139.201 90.247 140.401 91.947C141.701 93.647 140.401 95.447 138.401 94.547C127.701 89.747 118.201 80.847 113.201 68.847C107.701 55.947 107.801 39.647 114.401 26.547C119.501 16.547 128.601 7.14705 140.001 3.14705C151.901 -1.85295 167.701 -0.852954 179.201 5.84705C193.401 13.047 203.901 30.947 204.001 47.047C204.501 63.547 197.401 78.5471 185.101 88.147C181.501 90.847 176.701 91.347 173.001 89.447Z" fill="white"/>
<path d="M184.101 86.7466C181.001 89.1466 176.801 89.5465 173.701 87.9465L172.001 86.6466L155.701 65.1466C161.101 66.1466 165.001 63.4466 168.101 58.5466C171.201 53.8466 171.101 47.2466 168.101 42.5466C164.701 37.4466 157.801 35.7466 152.201 36.5466C142.301 38.0466 135.301 47.0466 133.101 56.5466C130.901 67.3466 132.501 77.5466 136.001 87.0466C136.801 89.0466 137.901 91.1465 139.301 92.9465C128.901 88.2466 119.701 79.6466 114.901 68.1466C109.601 55.6466 109.701 39.9466 116.001 27.3466C121.001 17.5466 129.801 8.54655 140.701 4.74655C152.101 -0.0534456 167.501 0.94656 178.601 7.34656C192.101 14.3466 202.301 31.5466 202.401 47.0466C202.801 62.9466 196.001 77.4466 184.101 86.7466Z" fill="#0D3178"/>
<path d="M400.4 116.947V156.547L398.7 158.247H379.2L377.5 156.547V104.247C377.5 92.0473 379.9 84.2473 385.9 78.2473C391.6 72.5473 399.4 69.9473 409.1 69.9473H411.2L412.9 71.6473V88.0473C412.9 91.9473 402.8 87.8473 400.7 94.6473H411.2L412.9 96.3473V115.347L411.2 117.047" fill="white"/>
<path d="M433.801 158.246H414.401L412.701 156.546V131.346C412.701 121.646 412.901 118.746 413.701 115.146C414.701 110.146 417.301 105.746 420.701 101.846C426.201 96.2462 433.401 93.1462 441.301 93.1462C442.601 93.1462 445.401 92.9462 445.401 94.9462V115.546C445.401 118.346 442.301 116.746 440.801 116.746C437.401 116.746 435.401 118.546 435.401 125.946V156.446L433.801 158.246Z" fill="white"/>
<path d="M466.3 126.246L466.6 128.846L477.1 117.246L475 116.946C470.4 116.846 466.3 121.046 466.3 126.246ZM495 132.746L499.7 152.646C500.9 157.746 480.2 159.546 478.3 159.546C458.5 159.546 443 145.346 443 126.346C443 108.046 457.6 93.2461 475.7 93.2461C484 93.2461 491.5 96.3461 497.3 102.046C498.7 103.446 504.7 109.446 502.8 111.446L480.4 136.446H480.6C487.4 136.446 493.9 128.346 495 132.746Z" fill="white"/>
<path d="M505 159.546C503.6 159.546 499.9 159.746 499.9 157.546V137.546L501.6 135.846H502.2C507.4 135.946 509.2 134.246 509.5 127.746C509.7 118.246 510.2 114.346 511.9 109.746C513.6 104.746 517.2 100.746 522.3 97.5465C527.2 94.6465 532.4 93.1465 539 93.1465L541.1 93.2465L542.8 94.9465V114.946L541.1 116.646H540.6C534.1 116.646 533.2 116.746 533 130.146C532.7 139.746 530.7 145.546 525.3 151.146C523.3 153.346 521.1 154.946 518.6 156.246C514.7 158.246 509.4 159.546 505 159.546Z" fill="white"/>
<path d="M564.701 158.246H545.401L543.701 156.546V72.9461L545.401 71.2461H564.701L566.401 72.9461V96.2461C570.401 94.2461 574.401 93.2461 578.701 93.2461C584.401 93.2461 589.701 95.4461 593.601 99.1461C598.701 104.246 600.001 109.446 600.001 122.246V156.646L598.301 158.346H578.901L577.201 156.646V126.946C577.201 118.546 575.501 117.246 571.901 117.246C568.401 117.246 566.401 119.146 566.401 126.946V156.646L564.701 158.246Z" fill="white"/>
<path d="M594.301 72.547C593.001 75.947 591.801 79.547 590.101 82.747C588.301 85.847 585.701 88.647 582.101 90.247C578.201 92.047 576.201 90.847 572.401 90.947C570.501 90.947 569.901 89.347 571.201 88.047L596.601 61.447C598.201 59.747 600.501 61.947 599.001 63.747C597.001 66.247 595.601 69.247 594.301 72.547Z" fill="white"/>
<path d="M579.5 67.6463C585.4 66.2463 591.5 64.2463 597 61.2463C599 60.1463 600.6 62.5463 598.9 64.0463L569.2 90.6463C567.1 92.5463 566.3 90.1463 566.6 88.5463C567.7 80.8463 570.6 70.2463 579.5 67.6463Z" fill="white"/>
<path fillRule="evenodd" clipRule="evenodd" d="M398.801 156.546V115.246H411.301V96.2465H398.801C399.301 90.6465 402.901 88.2465 411.301 87.9465V71.6465H409.201C399.801 71.6465 392.501 74.1465 387.201 79.4465C381.601 84.9465 379.301 92.1465 379.301 104.146V156.446" fill="#76B72A"/>
<path fillRule="evenodd" clipRule="evenodd" d="M414.401 156.547H433.801V126.047C433.801 118.347 436.001 115.147 440.901 115.147C441.901 115.147 442.501 115.247 443.801 115.647V95.0473C442.601 94.9473 442.101 94.9473 441.401 94.9473C433.901 94.9473 427.201 97.8473 421.901 103.147C418.601 106.747 416.301 110.947 415.301 115.547C414.601 118.947 414.301 121.747 414.301 131.347" fill="#76B72A"/>
<path fillRule="evenodd" clipRule="evenodd" d="M466.099 131.848C464.999 129.448 464.599 128.348 464.599 126.148C464.599 120.148 469.299 115.148 474.899 115.148C476.699 115.148 477.699 115.448 479.899 116.348M498.099 153.048L493.399 133.048C487.699 136.548 483.999 138.048 480.499 138.048C479.599 138.048 478.399 137.948 476.999 137.548L501.599 110.148C499.299 106.648 498.199 105.248 496.099 103.148C490.599 97.7477 483.599 94.8477 475.699 94.8477C458.499 94.8477 444.699 108.948 444.699 126.248C444.699 144.148 459.299 157.748 478.399 157.748C485.799 157.848 491.799 156.448 498.099 153.048Z" fill="#76B72A"/>
<path fillRule="evenodd" clipRule="evenodd" d="M501.6 157.547C503.1 157.647 504.2 157.847 505 157.847C509.1 157.847 514.2 156.547 517.9 154.847C520.2 153.547 522.3 152.047 524.1 150.047C529.2 144.947 531.2 139.547 531.4 130.247C531.6 116.747 532.6 115.047 540.6 115.047H541.1V95.0473L539 94.9473C532.7 94.9473 527.8 96.3473 523.2 99.0473C518.3 102.047 515 105.847 513.5 110.347C511.9 114.647 511.4 118.247 511.2 127.747C510.8 135.047 508.5 137.647 502.2 137.547H501.6" fill="#76B72A"/>
<path fillRule="evenodd" clipRule="evenodd" d="M545.4 156.548H564.7V126.848C564.7 118.848 566.9 115.448 571.9 115.448C577 115.448 578.8 118.348 578.8 126.848V156.548H598.2V122.148C598.2 109.448 597 104.948 592.4 100.248C588.9 96.8477 584 94.8477 578.7 94.8477C573.8 94.8477 569.3 96.2477 564.7 98.9477V72.8477H545.4" fill="#76B72A"/>
<path d="M597.8 62.6465C593.3 68.0465 591.9 75.6465 588.7 81.9465C587 84.8465 584.7 87.2465 581.5 88.7465C578 90.3465 576.2 89.1465 572.4 89.3465" fill="#76B72A"/>
<path d="M568.2 88.7465C569.3 81.0465 572.1 71.6465 579.9 69.2465C585.9 67.7465 592 65.8465 597.8 62.6465L568.1 89.2465" fill="#486525"/>
<path d="M17.2 131.446V156.746H0V81.7461C7.3 81.3461 14.5 81.2461 21.8 81.2461C39 81.2461 48.8 88.3461 48.8 103.246C48.8 108.946 47 113.846 43.4 117.846C40.6 121.046 37 123.146 32.9 124.346C34.4 126.446 35.7 128.146 36.6 129.546L55.4 156.646H34M20.4 96.6461C19.2 96.6461 18.2 96.6461 17.2 96.7461V113.446L20 113.546C25.4 113.546 30.8 111.246 30.8 104.846C30.8 99.4461 28 96.6461 20.4 96.6461Z" fill="#D22318"/>
<path d="M101.899 131.046L101.599 132.846H70.5992C71.0992 139.846 74.8992 143.146 82.3992 143.146C88.7992 143.146 93.1992 141.546 98.7992 138.846L100.499 153.746C93.5992 156.546 87.6992 157.846 80.1992 157.846C62.2992 157.846 53.1992 147.946 53.1992 129.046C53.1992 120.446 55.3992 113.346 59.9992 107.746C64.5992 102.046 70.9992 99.2461 78.9992 99.2461C86.4992 99.2461 92.4992 101.646 96.6992 106.846C100.499 111.446 102.299 117.446 102.299 124.646C102.399 126.846 102.199 128.946 101.899 131.046ZM83.6992 115.446C82.5992 114.146 80.9992 113.346 78.6992 113.346C74.7992 113.346 72.2992 115.846 71.2992 119.546H85.3992C85.0992 117.746 84.4992 116.346 83.6992 115.446Z" fill="#D22318"/>
<path d="M110.6 156.747V78.0469C115 85.3469 121 91.1469 127.7 95.5469V156.847" fill="#D22318"/>
<path d="M155.5 100.447H138.4V156.647H155.5V100.447Z" fill="#D22318"/>
<path d="M192.399 152.646L189.699 154.746C186.399 156.746 182.699 157.746 178.699 157.746C173.799 157.746 169.699 156.446 166.599 153.546C163.599 150.646 162.199 146.646 162.199 141.946C162.199 135.046 165.399 129.646 171.299 125.846C176.499 122.646 183.299 120.946 191.399 120.746V120.046C191.399 116.046 189.399 113.846 183.599 113.846C176.899 113.846 172.599 115.946 166.899 119.246L165.299 103.146C172.099 100.546 178.299 99.2461 185.599 99.2461C193.499 99.2461 199.699 100.846 203.599 104.646C206.999 108.046 208.499 113.146 208.499 119.546V141.246C208.499 146.446 208.699 151.646 208.899 156.746H192.399V154.646V152.646ZM191.299 133.746C181.399 134.046 178.599 136.846 178.599 139.946C178.599 142.346 179.499 143.446 182.599 143.446C185.099 143.446 187.099 142.446 188.899 140.246C190.399 138.246 191.199 136.146 191.299 133.746Z" fill="#D22318"/>
<path d="M234.899 106.146C237.299 101.646 242.699 99.2461 249.599 99.2461C260.899 99.2461 266.699 105.846 266.699 118.046V156.846H249.699V121.346C249.699 116.046 247.999 114.746 245.499 114.746C242.999 114.746 240.799 115.946 238.799 118.946C236.799 121.846 235.699 125.346 235.699 129.546V156.846H218.699V100.446H234.999V102.546C234.999 103.746 234.999 104.946 234.899 106.146Z" fill="#D22318"/>
<path d="M300.101 157.747C283.601 157.747 275.301 148.247 275.301 130.347C275.301 121.447 277.501 114.047 282.201 108.447C287.201 102.347 294.401 99.4473 303.501 99.4473C308.001 99.4473 311.801 100.247 316.101 101.447L314.301 117.547C310.801 116.247 307.201 114.847 303.401 114.847C295.301 114.847 293.001 121.747 293.001 128.947C293.001 138.247 296.401 141.847 303.001 141.847C308.101 141.847 310.401 140.747 314.701 138.447L316.101 154.547C310.501 156.847 306.001 157.747 300.101 157.747Z" fill="#D22318"/>
<path d="M369.899 131.046L369.599 132.846H338.599C339.199 139.846 342.899 143.146 350.399 143.146C356.799 143.146 361.199 141.546 366.799 138.846L368.499 153.746C361.599 156.546 355.699 157.846 348.199 157.846C330.299 157.846 321.199 147.946 321.199 129.046C321.199 120.446 323.399 113.346 327.999 107.746C332.599 102.046 338.999 99.2461 346.899 99.2461C354.399 99.2461 360.399 101.646 364.599 106.846C368.399 111.446 370.199 117.446 370.199 124.646C370.299 126.846 370.199 128.946 369.899 131.046ZM351.599 115.446C350.499 114.146 348.899 113.346 346.599 113.346C342.699 113.346 340.199 115.846 339.199 119.546H353.299C352.999 117.746 352.499 116.346 351.599 115.446Z" fill="#D22318"/>
</svg>
