<svg width="531" height="350" viewBox="0 0 531 350" fill="none" xmlns="http://www.w3.org/2000/svg">
<mask id="mask0_193_4832" style="mask-type:luminance" maskUnits="userSpaceOnUse" x="0" y="0" width="531" height="350">
<path d="M530.18 0H0V350H530.18V0Z" fill="white"/>
</mask>
<g mask="url(#mask0_193_4832)">
<path fillRule="evenodd" clipRule="evenodd" d="M509.173 306.853C513.328 306.853 517.39 308.088 520.845 310.4C524.299 312.712 526.992 315.998 528.582 319.843C530.172 323.688 530.588 327.918 529.778 332C528.967 336.081 526.966 339.831 524.028 342.773C521.09 345.716 517.346 347.721 513.271 348.532C509.196 349.344 504.972 348.928 501.133 347.335C497.294 345.742 494.013 343.045 491.704 339.585C489.396 336.125 488.164 332.056 488.164 327.895C488.164 322.314 490.377 316.963 494.317 313.016C498.257 309.07 503.601 306.853 509.173 306.853ZM36.9163 176.257C41.0714 176.257 45.1332 177.491 48.5881 179.803C52.043 182.116 54.7357 185.402 56.3258 189.247C57.9159 193.092 58.3319 197.322 57.5214 201.404C56.7107 205.486 54.7098 209.235 51.7717 212.178C48.8336 215.12 45.0902 217.124 41.0149 217.936C36.9396 218.748 32.7154 218.331 28.8766 216.739C25.0377 215.146 21.7566 212.449 19.4481 208.989C17.1397 205.529 15.9075 201.461 15.9075 197.299C15.9075 191.719 18.121 186.366 22.0609 182.421C26.0007 178.475 31.3444 176.257 36.9163 176.257ZM475.986 121.038H509.084C507.198 130.78 500.663 139.36 491.598 146.768C482.534 154.175 469.801 157.888 453.418 157.888C436.284 157.888 422.581 152.559 412.31 141.901C402.039 131.242 396.903 117.228 396.903 99.8588C396.903 89.6954 399.013 80.0596 403.233 70.9514C407.453 61.8436 413.882 54.4665 422.518 48.8201C431.149 43.1729 441.323 40.3493 453.039 40.3493C467.405 40.3493 478.998 43.9503 487.817 51.1523C496.635 58.3544 502.872 67.2859 506.527 77.9469C510.184 88.6073 511.824 98.9488 511.445 108.971H430.816C430.392 137.81 468.971 135.66 475.986 121.038ZM429.846 89.3875H478.498C476.493 56.8802 430.074 56.4354 429.846 89.3875ZM0 44.7756H13.2607V15.3641H48.1075V44.7756H64.9369V73.3167H48.1075V113.109C48.1075 126.39 50.4801 128.895 64.7675 127.292V155.755C64.8783 155.755 62.2144 155.891 56.7764 156.162C51.3368 156.437 47.4244 156.666 45.0467 156.572C20.2036 155.512 12.5801 145.807 12.5801 119.841V73.3167H0V44.7756ZM79.5188 44.7542H114.24V61.4488C125.377 43.406 137.718 39.8378 150.703 44.0612L150.643 72.3151C150.643 74.9846 112.853 59.6357 114.24 111.012V155.007H79.5188V44.7542ZM159.091 78.4598C159.091 53.356 176.626 41.1519 211.696 41.8475C229.225 42.2674 240.913 45.7349 246.761 52.2498C252.609 58.7647 255.532 69.0964 255.531 83.2453V133.8C255.531 142.015 255.851 145.77 261.046 148.24V153.971C237.683 159.933 225.131 155.105 222.375 141.592C213.025 152.129 199.768 157.742 185.389 157.3C177.325 157.048 169.99 154.284 163.388 149.082C156.786 143.881 153.478 135.46 153.478 123.808C153.478 114.656 156.587 108.555 161.186 103.185C164.184 99.6838 168.113 96.9424 172.846 94.8697C184.413 89.7871 191.301 90.8543 202.827 87.8137C210.879 85.6934 218.772 82.2169 220.614 76.8002C226.024 60.8995 188.183 56.2401 188.778 78.4662L159.091 78.4598ZM222.724 99.7067C219.225 101.871 213.899 103.811 206.748 105.528C199.596 107.244 194.421 109.141 191.222 111.219C188.025 113.294 186.502 117.222 186.652 123.002C187.112 130.226 191.906 134.2 201.037 134.924C208.195 134.384 213.599 131.405 217.249 125.987C220.9 120.569 222.727 113.524 222.731 104.852L222.724 99.7067ZM328.49 65.7249C341.727 65.7249 352.454 80.5929 352.454 98.938C352.454 117.283 341.727 132.156 328.49 132.156C315.253 132.156 304.526 117.281 304.526 98.938C304.526 80.5955 315.254 65.7249 328.49 65.7249ZM352.454 55.566C337.203 38.7139 312.712 36.0919 293.345 50.1784C280.095 59.8133 272.588 78.4795 272.588 98.5918C272.588 130.957 293.887 157.194 320.161 157.194C332.627 157.194 343.974 151.282 352.455 141.617V155.109H385.792V0H352.455L352.454 55.566Z" fill="#E11B22"/>
<path fillRule="evenodd" clipRule="evenodd" d="M18.8594 236.253H53.2369V346.85H18.8594V236.253ZM69.9069 236.253H104.284V250.869C128.374 222.511 175.562 227.938 175.471 271.732V346.852H141.094V274.555C139.877 261.681 125.381 257.093 114.424 261.463C102.976 266.03 104.282 276.12 104.282 286.209V346.852H69.9069V236.253ZM242.371 257.517C255.607 257.517 266.335 272.391 266.335 290.731C266.335 309.071 255.607 323.947 242.371 323.947C229.136 323.947 218.407 309.072 218.407 290.731C218.407 272.39 229.136 257.517 242.371 257.517ZM266.335 247.358C251.084 230.505 226.593 227.885 207.231 241.97C193.983 251.605 186.474 270.271 186.474 290.383C186.474 322.748 207.773 348.986 234.047 348.986C246.514 348.986 257.859 343.075 266.342 333.409V346.901H299.679V191.787H266.342V247.358H266.335ZM368.131 271.139C368.131 246.037 385.666 233.832 420.736 234.527C438.265 234.947 449.953 238.414 455.801 244.928C461.649 251.442 464.572 261.774 464.569 275.923V326.477C464.569 334.693 464.891 338.447 470.086 340.917V346.648C446.722 352.612 434.171 347.782 431.415 334.269C422.065 344.807 408.806 350.418 394.429 349.977C386.365 349.725 379.03 346.961 372.428 341.758C365.826 336.556 362.518 328.137 362.518 316.486C362.518 307.335 365.627 301.233 370.225 295.863C373.224 292.361 377.152 289.62 381.885 287.541C393.453 282.458 400.341 283.525 411.866 280.485C419.917 278.364 427.812 274.888 429.654 269.471C435.064 253.57 397.223 248.911 397.818 271.137L368.131 271.139ZM431.764 292.387C428.265 294.55 422.939 296.49 415.788 298.206C408.636 299.923 403.461 301.82 400.262 303.899C397.064 305.974 395.54 309.901 395.691 315.682C396.151 322.906 400.946 326.88 410.076 327.602C417.234 327.064 422.639 324.085 426.289 318.666C429.94 313.246 431.767 306.202 431.77 297.532L431.764 292.387ZM316.804 236.253H351.181V346.85H316.804V236.253ZM333.991 190.352C337.357 190.351 340.648 191.351 343.447 193.224C346.247 195.097 348.429 197.759 349.717 200.874C351.005 203.989 351.342 207.418 350.686 210.725C350.028 214.032 348.408 217.069 346.027 219.454C343.646 221.838 340.613 223.461 337.311 224.119C334.009 224.776 330.587 224.438 327.477 223.148C324.366 221.857 321.708 219.672 319.839 216.868C317.968 214.064 316.971 210.768 316.971 207.396C316.971 205.158 317.411 202.941 318.267 200.873C319.122 198.804 320.376 196.925 321.956 195.343C323.537 193.76 325.413 192.504 327.478 191.648C329.543 190.791 331.755 190.351 333.991 190.352Z" fill="#FFC20E"/>
</g>
</svg>
