<svg width="643" height="140" viewBox="0 0 643 140" fill="none" xmlns="http://www.w3.org/2000/svg">
<path fillRule="evenodd" clipRule="evenodd" d="M93.2077 16.4707L63.8339 73.3555L34.4684 16.4707H0L63.8339 139.999L127.676 16.4707H93.2077Z" fill="#0070AE"/>
<path fillRule="evenodd" clipRule="evenodd" d="M41.1855 0L67.9563 49.4114L94.7271 0H41.1855ZM145.48 0L74.1342 135.881H642.499V0H145.48Z" fill="#EB008B"/>
<path fillRule="evenodd" clipRule="evenodd" d="M502.465 61.7639L506.373 41.1758H512.271L516.938 52.1533L521.876 41.1758H527.823L531.295 61.7639H525.311L523.61 49.9092L518.05 61.7639H515.673L510.364 49.9092L508.408 61.7639H502.465ZM547.769 45.6557H541.06V49.1434H547.403V53.6192H541.06V57.2839H547.769V61.7639H535.414V41.1758H547.769V45.6557Z" fill="white"/>
<path fillRule="evenodd" clipRule="evenodd" d="M565.103 49.1239H577.755C577.755 51.821 577.459 54.0239 576.857 55.7245C575.96 58.265 574.485 60.2333 572.446 61.6209C570.404 63.0168 567.969 63.7126 565.157 63.7126C562.994 63.7126 561.021 63.305 559.222 62.5062C557.422 61.695 555.943 60.5421 554.782 59.0474C553.905 57.9068 553.233 56.6098 552.756 55.148C552.282 53.6904 552.043 52.1833 552.043 50.6104C552.043 48.881 552.323 47.2175 552.883 45.6404C553.443 44.0634 554.23 42.6757 555.247 41.4858C556.421 40.1352 557.883 39.0975 559.625 38.3687C561.372 37.6399 563.291 37.2734 565.391 37.2734C568.287 37.2734 570.745 38.0311 572.759 39.5381C573.563 40.1311 574.234 40.7775 574.782 41.4816C575.325 42.1858 575.881 43.1122 576.441 44.2651L570.387 46.7934C570.099 46.1428 569.823 45.6281 569.559 45.241C569.296 44.8622 568.97 44.504 568.587 44.1787C567.603 43.3552 566.433 42.9434 565.082 42.9434C563.427 42.9434 562.059 43.5034 560.964 44.6193C560.243 45.3481 559.687 46.2457 559.283 47.3081C558.884 48.3704 558.682 49.4739 558.682 50.6104C558.682 51.7304 558.876 52.8133 559.267 53.8551C559.654 54.9051 560.198 55.7945 560.894 56.5356C561.985 57.7133 563.439 58.3062 565.26 58.3062C566.874 58.3062 568.163 57.8203 569.106 56.865C569.469 56.4945 569.736 56.1156 569.909 55.7121C570.082 55.3127 570.227 54.7651 570.329 54.0609H565.099V49.1198L565.103 49.1239ZM593.266 53.6739L590.523 45.7681L587.706 53.6739H593.266ZM594.983 58.615H585.935L584.382 62.9468H577.64L587.088 38.0764H594.048L603.299 62.9468H596.482L594.983 58.615Z" fill="white"/>
<mask id="mask0_196_5077" style="mask-type:luminance" maskUnits="userSpaceOnUse" x="0" y="0" width="642" height="140">
<path d="M0 139.055H641.947V0.328125H0V139.055Z" fill="white"/>
</mask>
<g mask="url(#mask0_196_5077)">
<path fillRule="evenodd" clipRule="evenodd" d="M228.115 100.514H243.988V38.6588H228.115V100.514ZM296.669 42.1917L290.318 54.701C286.858 51.9834 283.37 50.6245 279.857 50.6245C277.616 50.6245 275.874 51.2422 274.626 52.4816C273.547 53.5439 273.011 54.6927 273.011 55.9321C273.011 57.5668 274.012 58.9751 276.01 60.1527C276.665 60.548 277.348 60.8609 278.069 61.0998C278.782 61.3468 280.779 61.9686 284.057 62.965C287.13 63.8709 289.568 64.8633 291.368 65.9379C293.172 67.0085 294.733 68.3797 296.043 70.0432C297.113 71.402 297.896 72.8844 298.39 74.4861C298.884 76.092 299.131 77.949 299.131 80.0614C299.131 87.016 297.237 92.2824 293.448 95.8483C291.302 97.87 288.658 99.4306 285.511 100.538C282.365 101.638 278.975 102.194 275.338 102.194C271.224 102.194 267.093 101.407 262.95 99.8383C259.7 98.6277 256.747 97.0712 254.095 95.173L260.89 82.2066C265.664 86.559 270.326 88.7331 274.89 88.7331C277.752 88.7331 279.811 87.9919 281.059 86.5095C282.105 85.3319 282.628 84.039 282.628 82.6555C282.628 80.8396 281.702 79.3284 279.857 78.1096C278.72 77.3561 276.455 76.4832 273.057 75.4826C269.63 74.4861 267.101 73.6296 265.479 72.9214C263.848 72.2091 262.488 71.3897 261.385 70.4509C258.131 67.7291 256.512 63.6156 256.512 58.1145C256.512 52.3745 258.193 47.6104 261.562 43.8264C265.499 39.3876 270.746 37.1641 277.307 37.1641C280.557 37.1641 283.827 37.5964 287.122 38.457C290.417 39.3135 293.6 40.5652 296.669 42.1917ZM325.025 62.4956H347.92V38.6588H363.793V100.514H347.92V74.7785H325.025V100.514H309.144V38.6588H325.025V62.4956ZM409.716 77.4508L402.903 57.781L395.877 77.4549H409.716V77.4508ZM413.982 89.7295H391.491L387.632 100.518H370.861L394.353 38.6546H411.672L434.678 100.509H417.726L413.982 89.7295ZM457.532 38.6588V87.0572H476.581V100.514H441.655V38.6588H457.532ZM221.698 38.6588L221.727 38.597L221.599 38.6588H204.499L189.651 76.2732L174.94 38.6588H157.835L157.584 38.5599L189.59 117.412L221.175 39.9517L221.719 38.6588H221.698ZM500.341 100.563L504.509 75.6967H510.802L515.781 88.9554L521.053 75.6967H527.396L531.103 100.563H524.719L522.902 86.2419L516.968 100.563H514.435L508.772 86.2419L506.683 100.563H500.341ZM548.446 91.286L545.707 83.3802L542.882 91.286H548.446ZM550.163 96.2271H541.119L539.566 100.563H532.824L542.268 75.6926H549.233L558.479 100.563H551.667L550.163 96.2271ZM567.667 86.806H568.853C570.196 86.806 571.16 86.5219 571.749 85.9537C572.025 85.686 572.255 85.3443 572.433 84.9243C572.614 84.5001 572.704 84.0966 572.704 83.7096C572.704 83.3225 572.618 82.9231 572.445 82.5031C572.268 82.0914 572.037 81.7455 571.749 81.4819C571.16 80.9137 570.196 80.6337 568.853 80.6337H567.667V86.806ZM573.977 90.3595L581.691 100.563H573.746L567.667 91.0142V100.563H561.288V75.6926H571.213C572.721 75.6926 573.989 75.8985 575.015 76.3226C576.04 76.7384 576.918 77.4137 577.651 78.3402C578.186 79.0155 578.598 79.7896 578.895 80.6666C579.191 81.5396 579.339 82.4372 579.339 83.3431C579.339 84.3643 579.162 85.3443 578.816 86.2872C578.47 87.226 577.993 88.0042 577.395 88.6095C576.951 89.0583 576.473 89.4207 575.954 89.6842C575.443 89.9519 574.78 90.1783 573.977 90.3595ZM593.631 81.1072V100.563H587.247V81.1072H582.049V75.6967H598.915V81.1072H593.631Z" fill="white"/>
</g>
<mask id="mask1_196_5077" style="mask-type:luminance" maskUnits="userSpaceOnUse" x="0" y="0" width="642" height="140">
<path d="M0 139.055H641.947V0.328125H0V139.055Z" fill="white"/>
</mask>
<g mask="url(#mask1_196_5077)">
<path fillRule="evenodd" clipRule="evenodd" d="M500.341 62.9444L504.509 38.0782H510.802L515.781 51.3369L521.053 38.0782H527.396L531.103 62.9444H524.719L522.902 48.6234L516.968 62.9444H514.435L508.772 48.6234L506.684 62.9444H500.341ZM549.113 43.4887H541.527V47.701H548.697V53.1075H541.527V57.5339H549.113V62.9444H535.143V38.0782H549.113V43.4887ZM565.102 49.1175H577.754C577.754 51.8187 577.457 54.0175 576.856 55.7221C575.958 58.2627 574.484 60.2309 572.445 61.6186C570.402 63.0144 567.968 63.7103 565.155 63.7103C562.993 63.7103 561.02 63.3027 559.22 62.5039C557.42 61.6927 555.942 60.5398 554.78 59.0451C553.903 57.9045 553.232 56.6074 552.754 55.1457C552.28 53.688 552.041 52.181 552.041 50.6081C552.041 48.8787 552.322 47.2152 552.882 45.6381C553.442 44.0611 554.228 42.6734 555.246 41.4834C556.42 40.1329 557.882 39.0952 559.624 38.3664C561.37 37.6376 563.289 37.2711 565.39 37.2711C568.285 37.2711 570.744 38.0288 572.758 39.5358C573.561 40.1287 574.232 40.7752 574.78 41.4793C575.324 42.1834 575.88 43.1099 576.44 44.2628L570.386 46.791C570.097 46.1405 569.821 45.6258 569.558 45.2387C569.294 44.8599 568.969 44.5016 568.586 44.1764C567.597 43.3528 566.432 42.9411 565.081 42.9411C563.425 42.9411 562.058 43.5011 560.962 44.6169C560.242 45.3458 559.686 46.2393 559.282 47.3057C558.882 48.3681 558.681 49.4675 558.681 50.6081C558.681 51.7281 558.874 52.811 559.265 53.8528C559.653 54.9027 560.196 55.7921 560.892 56.5292C561.984 57.711 563.438 58.2998 565.258 58.2998C566.872 58.2998 568.162 57.818 569.105 56.8586C569.467 56.4963 569.735 56.1133 569.908 55.7139C570.081 55.3104 570.225 54.7586 570.328 54.0586H565.097L565.102 49.1175ZM593.264 53.6716L590.521 45.7658L587.7 53.6716H593.264ZM594.978 58.6127H585.933L584.381 62.9444H577.638L587.086 38.0741H594.047L603.297 62.9444H596.481L594.978 58.6127ZM228.111 100.514H243.988V38.6588H228.111V100.514ZM296.669 42.1876L290.318 54.7051C286.858 51.9834 283.37 50.6287 279.857 50.6287C277.616 50.6287 275.874 51.2422 274.626 52.4816C273.547 53.5439 273.011 54.6927 273.011 55.9321C273.011 57.5668 274.012 58.9751 276.006 60.1527C276.665 60.548 277.348 60.8609 278.065 61.0998C278.782 61.3468 280.779 61.9686 284.057 62.965C287.126 63.8709 289.568 64.8633 291.368 65.9379C293.172 67.0085 294.733 68.3797 296.043 70.0432C297.113 71.402 297.896 72.8844 298.39 74.4861C298.884 76.092 299.132 77.949 299.132 80.0614C299.132 87.016 297.237 92.2824 293.448 95.8442C291.302 97.87 288.658 99.4347 285.511 100.538C282.365 101.638 278.975 102.194 275.338 102.194C271.224 102.194 267.093 101.407 262.946 99.8383C259.7 98.6277 256.747 97.0712 254.091 95.1689L260.89 82.2066C265.664 86.559 270.326 88.7331 274.89 88.7331C277.752 88.7331 279.811 87.9919 281.059 86.5095C282.105 85.3319 282.624 84.039 282.624 82.6555C282.624 80.8396 281.702 79.3284 279.852 78.1096C278.72 77.3561 276.455 76.4832 273.057 75.4826C269.63 74.4861 267.101 73.6297 265.479 72.9214C263.848 72.2091 262.488 71.3855 261.385 70.4509C258.131 67.7291 256.508 63.6156 256.508 58.1104C256.508 52.3745 258.193 47.6104 261.562 43.8305C265.499 39.3876 270.746 37.1641 277.311 37.1641C280.561 37.1641 283.831 37.5964 287.126 38.457C290.421 39.3135 293.6 40.5652 296.673 42.1917M325.021 62.4956H347.92V38.6588H363.793V100.514H347.92V74.7785H325.021V100.514H309.144V38.6588H325.021V62.4956ZM409.72 77.4549L402.903 57.781L395.877 77.4549H409.716H409.72ZM413.982 89.7254H391.491L387.632 100.514H370.861L394.353 38.6588H411.672L434.678 100.514H417.726L413.982 89.7254ZM457.532 38.6588V87.0572H476.581V100.514H441.655V38.6588H457.532ZM221.698 38.6588L221.727 38.597L221.599 38.6588H204.499L189.651 76.2732L174.94 38.6588H157.835L157.584 38.5599L189.59 117.412L221.175 39.9517L221.719 38.6588H221.698ZM500.341 100.563L504.509 75.6967H510.802L515.781 88.9554L521.053 75.6967H527.396L531.103 100.563H524.719L522.902 86.2419L516.968 100.563H514.435L508.772 86.2419L506.684 100.563H500.341ZM548.446 91.286L545.707 83.3802L542.882 91.286H548.446ZM550.163 96.2271H541.119L539.566 100.563H532.824L542.268 75.6926H549.233L558.479 100.563H551.667L550.163 96.2271ZM567.667 86.806H568.854C570.196 86.806 571.16 86.5219 571.749 85.9537C572.025 85.686 572.255 85.3401 572.433 84.9243C572.614 84.5001 572.704 84.0966 572.704 83.7096C572.704 83.3225 572.618 82.9231 572.445 82.5031C572.268 82.0913 572.037 81.7455 571.749 81.4819C571.16 80.9137 570.196 80.6337 568.854 80.6337H567.667V86.806ZM573.977 90.3595L581.691 100.563H573.746L567.667 91.0142V100.563H561.288V75.6926H571.214C572.721 75.6926 573.989 75.8985 575.015 76.3185C576.04 76.7384 576.918 77.4137 577.651 78.3361C578.186 79.0155 578.598 79.7896 578.895 80.6666C579.191 81.5396 579.339 82.4372 579.339 83.3431C579.339 84.3643 579.162 85.3443 578.816 86.2872C578.47 87.226 577.993 88.0042 577.395 88.6095C576.951 89.0583 576.473 89.4207 575.954 89.6842C575.443 89.9519 574.78 90.1783 573.977 90.3595ZM593.631 81.1031V100.563H587.247V81.1031H582.049V75.6967H598.915V81.1031H593.631ZM605.212 78.6984V78.5996L605.225 78.4143C605.225 78.3484 605.241 78.2002 605.254 78.1384C605.274 78.0273 605.295 77.9202 605.324 77.809C605.348 77.7061 605.385 77.6073 605.422 77.5084C605.505 77.2696 605.624 77.0555 605.76 76.8496L605.843 76.7302L605.925 76.619C605.991 76.5449 606.048 76.4749 606.118 76.4049L606.213 76.3102L606.267 76.2608C606.349 76.1785 606.448 76.1085 606.543 76.0343L606.658 75.9561C606.806 75.8655 606.946 75.779 607.111 75.709C607.226 75.6555 607.346 75.6102 607.469 75.5732L607.63 75.532C607.873 75.4785 607.902 75.4743 608.145 75.4496C608.207 75.4414 608.268 75.4496 608.334 75.4373C608.392 75.429 608.458 75.4414 608.524 75.4414C608.61 75.4414 608.8 75.462 608.886 75.4785L609.051 75.5114C609.45 75.5896 609.825 75.7626 610.163 75.989C610.241 76.0426 610.319 76.0961 610.389 76.1579L610.497 76.2526L610.768 76.5285L610.789 76.5532L610.859 76.6355C611.073 76.9279 611.098 76.9649 611.258 77.2861L611.291 77.352L611.374 77.5702L611.423 77.7184L611.444 77.7967C611.481 77.9408 611.51 78.0726 611.526 78.2167L611.547 78.402C611.555 78.4596 611.547 78.5337 611.559 78.5914C611.567 78.6655 611.551 78.789 611.547 78.8755V78.9167L611.543 78.9702L611.53 79.0567L611.489 79.3161C611.464 79.4396 611.427 79.5508 611.39 79.6661C611.316 79.9049 611.176 80.2014 611.032 80.4072L610.888 80.6131L610.867 80.6378L610.843 80.6708L610.727 80.8067C610.674 80.8684 610.616 80.9219 610.558 80.9796C610.46 81.0784 610.344 81.1649 610.229 81.2514L610.171 81.2925C610.114 81.3337 610.056 81.3749 609.99 81.4078C609.801 81.5149 609.656 81.5931 609.45 81.6631C609.352 81.7002 609.245 81.7372 609.146 81.7578C608.973 81.7949 608.89 81.8113 608.721 81.8319C608.668 81.8361 608.384 81.8566 608.343 81.8525L607.976 81.8237L607.721 81.7784C607.597 81.7537 607.486 81.7166 607.375 81.6837L607.119 81.5849L606.856 81.4531C606.609 81.3131 606.374 81.1402 606.172 80.9384C606.118 80.8808 606.053 80.8231 606.007 80.7614L605.913 80.6502C605.851 80.5678 605.781 80.4855 605.727 80.3908L605.649 80.2672C605.641 80.2425 605.628 80.2261 605.616 80.2055L605.595 80.1725C605.546 80.0737 605.497 79.9667 605.455 79.8637C605.398 79.7196 605.336 79.5631 605.307 79.4108C605.282 79.2873 605.262 79.1884 605.245 79.069L605.233 78.9867C605.225 78.9043 605.217 78.822 605.217 78.7437L605.212 78.6984ZM608.38 74.622H608.194C608.124 74.622 607.877 74.6467 607.799 74.6591C607.712 74.6714 607.626 74.6838 607.539 74.7085C607.523 74.7085 607.502 74.7126 607.486 74.7208L607.243 74.7867L607.193 74.7991C607.111 74.8238 606.996 74.8649 606.918 74.8979L606.876 74.9185C606.815 74.9432 606.757 74.9638 606.699 74.9926C606.526 75.0791 606.423 75.1367 606.254 75.2396C606.131 75.3138 605.933 75.4579 605.826 75.5567L605.76 75.6143L605.694 75.6761L605.657 75.7049L605.628 75.7379L605.328 76.0632C605.287 76.1043 605.254 76.1579 605.217 76.2032C605.068 76.3926 604.936 76.6067 604.829 76.8208C604.747 76.9937 604.669 77.1749 604.611 77.3561L604.512 77.6979L604.5 77.7514L604.479 77.8543L604.459 77.9573C604.459 77.9902 604.446 78.0314 604.442 78.0643L604.426 78.1796C604.413 78.2908 604.393 78.5584 604.405 78.6531V78.8384L604.409 78.892L604.442 79.2378C604.463 79.3696 604.492 79.5261 604.525 79.6496L604.681 80.1314C604.714 80.2055 604.739 80.2755 604.776 80.3496C604.908 80.6131 604.961 80.7037 605.118 80.9508L605.221 81.0908L605.418 81.3337C605.464 81.3872 605.62 81.5478 605.665 81.589C605.768 81.6796 605.867 81.7702 605.974 81.8484L606.118 81.9555L606.584 82.2396L606.926 82.3919L607.016 82.429C607.111 82.466 607.206 82.4908 607.305 82.5196L607.399 82.5484L607.449 82.5608C607.605 82.5978 607.766 82.6225 607.927 82.6431L608.038 82.6555C608.079 82.6596 608.12 82.6555 608.157 82.6637C608.244 82.676 608.47 82.6719 608.577 82.6678L608.746 82.6513L608.866 82.6431L609.08 82.6102C609.125 82.606 609.187 82.5937 609.232 82.5813L609.286 82.569L609.623 82.4743C609.809 82.4208 610.023 82.3219 610.2 82.2313L610.361 82.1449L610.517 82.0461C610.628 81.9802 610.925 81.7619 611.011 81.6713L611.143 81.5478C611.197 81.4984 611.25 81.449 611.3 81.3914L611.501 81.1566C611.555 81.0825 611.613 81.0125 611.662 80.9343L611.736 80.8272C611.872 80.6214 611.987 80.3908 612.078 80.1643L612.128 80.0284C612.198 79.8555 612.292 79.5096 612.313 79.3284C612.313 79.2996 612.325 79.2584 612.329 79.2255L612.346 79.1102C612.358 79.0073 612.379 78.719 612.37 78.6326C612.362 78.5749 612.37 78.509 612.37 78.4514C612.37 78.3773 612.338 78.1302 612.329 78.052L612.309 77.9449C612.305 77.8749 612.284 77.8049 612.268 77.7349L612.255 77.6814C612.255 77.6608 612.251 77.6526 612.243 77.632L612.218 77.5373L612.16 77.3437C612.099 77.1584 612.02 76.9855 611.934 76.8126L611.893 76.7302C611.847 76.6355 611.786 76.5449 611.728 76.4543L611.707 76.4132L611.654 76.339L611.576 76.232L611.551 76.1949C611.501 76.129 611.353 75.9479 611.291 75.8861L610.974 75.5814L610.797 75.4373C610.752 75.4002 610.707 75.3673 610.653 75.3343C610.422 75.1779 610.188 75.0379 609.932 74.9308L609.52 74.7826L609.471 74.7661L609.372 74.7414L609.269 74.7167C609.133 74.6879 608.989 74.6632 608.845 74.6426L608.734 74.6302C608.635 74.6179 608.536 74.6179 608.433 74.6179H608.38V74.622Z" fill="white"/>
<path fillRule="evenodd" clipRule="evenodd" d="M608.393 78.3867H607.899V77.2667H608.397C608.735 77.2667 608.99 77.3078 609.114 77.5549C609.171 77.6702 609.167 77.8349 609.151 77.9625C609.143 78.0161 609.118 78.0861 609.089 78.1355C608.961 78.3455 608.698 78.3867 608.393 78.3867ZM606.643 80.8202H607.882C607.899 80.8202 607.903 80.8161 607.903 80.8037V79.1649C608.257 79.1649 608.582 79.132 608.83 79.3543L608.879 79.4037C608.916 79.4367 608.982 79.5314 609.011 79.5684L609.097 79.7208L609.118 79.7537L609.357 80.1902L609.427 80.3137L609.443 80.3466C609.505 80.4702 609.6 80.6266 609.666 80.7584L609.703 80.8202H611.041C611.041 80.7955 610.909 80.5731 610.889 80.5319L610.79 80.3549L610.778 80.3384L610.749 80.2849C610.625 80.0419 610.465 79.7702 610.337 79.5314L610.312 79.4943C610.238 79.3502 610.119 79.1978 610.007 79.0702L609.95 79.0167L609.822 78.9178C609.76 78.8767 609.579 78.7778 609.497 78.7778C609.509 78.7655 609.662 78.7202 609.686 78.7078C609.752 78.6831 609.806 78.6584 609.863 78.6255C609.925 78.5967 610.028 78.5225 610.086 78.4731L610.18 78.3743L610.263 78.2673C610.3 78.2096 610.316 78.1643 610.345 78.1025C610.411 77.9378 610.419 77.7855 610.419 77.6084C610.419 77.3778 610.349 77.1267 610.201 76.9414C609.867 76.5255 609.143 76.4473 608.611 76.4473H606.643V80.8202Z" fill="white"/>
</g>
</svg>
